<?xml version="1.0" encoding="utf-8" standalone="no"?>
<!DOCTYPE svg PUBLIC "-//W3C//DTD SVG 1.1//EN"
  "http://www.w3.org/Graphics/SVG/1.1/DTD/svg11.dtd">
<svg xmlns:xlink="http://www.w3.org/1999/xlink" width="490.284625pt" height="378.61125pt" viewBox="0 0 490.284625 378.61125" xmlns="http://www.w3.org/2000/svg" version="1.1">
 <metadata>
  <rdf:RDF xmlns:dc="http://purl.org/dc/elements/1.1/" xmlns:cc="http://creativecommons.org/ns#" xmlns:rdf="http://www.w3.org/1999/02/22-rdf-syntax-ns#">
   <cc:Work>
    <dc:type rdf:resource="http://purl.org/dc/dcmitype/StillImage"/>
    <dc:date>2023-03-27T16:24:20.102340</dc:date>
    <dc:format>image/svg+xml</dc:format>
    <dc:creator>
     <cc:Agent>
      <dc:title>Matplotlib v3.5.2, https://matplotlib.org/</dc:title>
     </cc:Agent>
    </dc:creator>
   </cc:Work>
  </rdf:RDF>
 </metadata>
 <defs>
  <style type="text/css">*{stroke-linejoin: round; stroke-linecap: butt}</style>
 </defs>
 <g id="figure_1">
  <g id="patch_1">
   <path d="M 0 378.61125 
L 490.284625 378.61125 
L 490.284625 0 
L 0 0 
z
" style="fill: #ffffff"/>
  </g>
  <g id="axes_1">
   <g id="patch_2">
    <path d="M 56.516563 343.958437 
L 451.580562 343.958437 
L 451.580562 17.798437 
L 56.516563 17.798437 
z
" style="fill: #ffffff"/>
   </g>
   <g id="matplotlib.axis_1">
    <g id="xtick_1">
     <g id="line2d_1">
      <defs>
       <path id="m85398c1e51" d="M 0 0 
L 0 3.5 
" style="stroke: #000000; stroke-width: 0.8"/>
      </defs>
      <g>
       <use xlink:href="#m85398c1e51" x="62.166727" y="343.958437" style="stroke: #000000; stroke-width: 0.8"/>
      </g>
     </g>
     <g id="text_1">
      <!-- 0 -->
      <g transform="translate(59.621727 357.037187)scale(0.08 -0.08)">
       <defs>
        <path id="DejaVuSans-30" d="M 2034 4250 
Q 1547 4250 1301 3770 
Q 1056 3291 1056 2328 
Q 1056 1369 1301 889 
Q 1547 409 2034 409 
Q 2525 409 2770 889 
Q 3016 1369 3016 2328 
Q 3016 3291 2770 3770 
Q 2525 4250 2034 4250 
z
M 2034 4750 
Q 2819 4750 3233 4129 
Q 3647 3509 3647 2328 
Q 3647 1150 3233 529 
Q 2819 -91 2034 -91 
Q 1250 -91 836 529 
Q 422 1150 422 2328 
Q 422 3509 836 4129 
Q 1250 4750 2034 4750 
z
" transform="scale(0.015625)"/>
       </defs>
       <use xlink:href="#DejaVuSans-30"/>
      </g>
     </g>
    </g>
    <g id="xtick_2">
     <g id="line2d_2">
      <g>
       <use xlink:href="#m85398c1e51" x="136.756362" y="343.958437" style="stroke: #000000; stroke-width: 0.8"/>
      </g>
     </g>
     <g id="text_2">
      <!-- 200 -->
      <g transform="translate(129.121362 357.037187)scale(0.08 -0.08)">
       <defs>
        <path id="DejaVuSans-32" d="M 1228 531 
L 3431 531 
L 3431 0 
L 469 0 
L 469 531 
Q 828 903 1448 1529 
Q 2069 2156 2228 2338 
Q 2531 2678 2651 2914 
Q 2772 3150 2772 3378 
Q 2772 3750 2511 3984 
Q 2250 4219 1831 4219 
Q 1534 4219 1204 4116 
Q 875 4013 500 3803 
L 500 4441 
Q 881 4594 1212 4672 
Q 1544 4750 1819 4750 
Q 2544 4750 2975 4387 
Q 3406 4025 3406 3419 
Q 3406 3131 3298 2873 
Q 3191 2616 2906 2266 
Q 2828 2175 2409 1742 
Q 1991 1309 1228 531 
z
" transform="scale(0.015625)"/>
       </defs>
       <use xlink:href="#DejaVuSans-32"/>
       <use xlink:href="#DejaVuSans-30" x="63.623047"/>
       <use xlink:href="#DejaVuSans-30" x="127.246094"/>
      </g>
     </g>
    </g>
    <g id="xtick_3">
     <g id="line2d_3">
      <g>
       <use xlink:href="#m85398c1e51" x="211.345997" y="343.958437" style="stroke: #000000; stroke-width: 0.8"/>
      </g>
     </g>
     <g id="text_3">
      <!-- 400 -->
      <g transform="translate(203.710997 357.037187)scale(0.08 -0.08)">
       <defs>
        <path id="DejaVuSans-34" d="M 2419 4116 
L 825 1625 
L 2419 1625 
L 2419 4116 
z
M 2253 4666 
L 3047 4666 
L 3047 1625 
L 3713 1625 
L 3713 1100 
L 3047 1100 
L 3047 0 
L 2419 0 
L 2419 1100 
L 313 1100 
L 313 1709 
L 2253 4666 
z
" transform="scale(0.015625)"/>
       </defs>
       <use xlink:href="#DejaVuSans-34"/>
       <use xlink:href="#DejaVuSans-30" x="63.623047"/>
       <use xlink:href="#DejaVuSans-30" x="127.246094"/>
      </g>
     </g>
    </g>
    <g id="xtick_4">
     <g id="line2d_4">
      <g>
       <use xlink:href="#m85398c1e51" x="285.935631" y="343.958437" style="stroke: #000000; stroke-width: 0.8"/>
      </g>
     </g>
     <g id="text_4">
      <!-- 600 -->
      <g transform="translate(278.300631 357.037187)scale(0.08 -0.08)">
       <defs>
        <path id="DejaVuSans-36" d="M 2113 2584 
Q 1688 2584 1439 2293 
Q 1191 2003 1191 1497 
Q 1191 994 1439 701 
Q 1688 409 2113 409 
Q 2538 409 2786 701 
Q 3034 994 3034 1497 
Q 3034 2003 2786 2293 
Q 2538 2584 2113 2584 
z
M 3366 4563 
L 3366 3988 
Q 3128 4100 2886 4159 
Q 2644 4219 2406 4219 
Q 1781 4219 1451 3797 
Q 1122 3375 1075 2522 
Q 1259 2794 1537 2939 
Q 1816 3084 2150 3084 
Q 2853 3084 3261 2657 
Q 3669 2231 3669 1497 
Q 3669 778 3244 343 
Q 2819 -91 2113 -91 
Q 1303 -91 875 529 
Q 447 1150 447 2328 
Q 447 3434 972 4092 
Q 1497 4750 2381 4750 
Q 2619 4750 2861 4703 
Q 3103 4656 3366 4563 
z
" transform="scale(0.015625)"/>
       </defs>
       <use xlink:href="#DejaVuSans-36"/>
       <use xlink:href="#DejaVuSans-30" x="63.623047"/>
       <use xlink:href="#DejaVuSans-30" x="127.246094"/>
      </g>
     </g>
    </g>
    <g id="xtick_5">
     <g id="line2d_5">
      <g>
       <use xlink:href="#m85398c1e51" x="360.525266" y="343.958437" style="stroke: #000000; stroke-width: 0.8"/>
      </g>
     </g>
     <g id="text_5">
      <!-- 800 -->
      <g transform="translate(352.890266 357.037187)scale(0.08 -0.08)">
       <defs>
        <path id="DejaVuSans-38" d="M 2034 2216 
Q 1584 2216 1326 1975 
Q 1069 1734 1069 1313 
Q 1069 891 1326 650 
Q 1584 409 2034 409 
Q 2484 409 2743 651 
Q 3003 894 3003 1313 
Q 3003 1734 2745 1975 
Q 2488 2216 2034 2216 
z
M 1403 2484 
Q 997 2584 770 2862 
Q 544 3141 544 3541 
Q 544 4100 942 4425 
Q 1341 4750 2034 4750 
Q 2731 4750 3128 4425 
Q 3525 4100 3525 3541 
Q 3525 3141 3298 2862 
Q 3072 2584 2669 2484 
Q 3125 2378 3379 2068 
Q 3634 1759 3634 1313 
Q 3634 634 3220 271 
Q 2806 -91 2034 -91 
Q 1263 -91 848 271 
Q 434 634 434 1313 
Q 434 1759 690 2068 
Q 947 2378 1403 2484 
z
M 1172 3481 
Q 1172 3119 1398 2916 
Q 1625 2713 2034 2713 
Q 2441 2713 2670 2916 
Q 2900 3119 2900 3481 
Q 2900 3844 2670 4047 
Q 2441 4250 2034 4250 
Q 1625 4250 1398 4047 
Q 1172 3844 1172 3481 
z
" transform="scale(0.015625)"/>
       </defs>
       <use xlink:href="#DejaVuSans-38"/>
       <use xlink:href="#DejaVuSans-30" x="63.623047"/>
       <use xlink:href="#DejaVuSans-30" x="127.246094"/>
      </g>
     </g>
    </g>
    <g id="xtick_6">
     <g id="line2d_6">
      <g>
       <use xlink:href="#m85398c1e51" x="435.114901" y="343.958437" style="stroke: #000000; stroke-width: 0.8"/>
      </g>
     </g>
     <g id="text_6">
      <!-- 1000 -->
      <g transform="translate(424.934901 357.037187)scale(0.08 -0.08)">
       <defs>
        <path id="DejaVuSans-31" d="M 794 531 
L 1825 531 
L 1825 4091 
L 703 3866 
L 703 4441 
L 1819 4666 
L 2450 4666 
L 2450 531 
L 3481 531 
L 3481 0 
L 794 0 
L 794 531 
z
" transform="scale(0.015625)"/>
       </defs>
       <use xlink:href="#DejaVuSans-31"/>
       <use xlink:href="#DejaVuSans-30" x="63.623047"/>
       <use xlink:href="#DejaVuSans-30" x="127.246094"/>
       <use xlink:href="#DejaVuSans-30" x="190.869141"/>
      </g>
     </g>
    </g>
    <g id="text_7">
     <!-- Temperature (°C) -->
     <g transform="translate(215.212156 369.539531)scale(0.09 -0.09)">
      <defs>
       <path id="DejaVuSans-54" d="M -19 4666 
L 3928 4666 
L 3928 4134 
L 2272 4134 
L 2272 0 
L 1638 0 
L 1638 4134 
L -19 4134 
L -19 4666 
z
" transform="scale(0.015625)"/>
       <path id="DejaVuSans-65" d="M 3597 1894 
L 3597 1613 
L 953 1613 
Q 991 1019 1311 708 
Q 1631 397 2203 397 
Q 2534 397 2845 478 
Q 3156 559 3463 722 
L 3463 178 
Q 3153 47 2828 -22 
Q 2503 -91 2169 -91 
Q 1331 -91 842 396 
Q 353 884 353 1716 
Q 353 2575 817 3079 
Q 1281 3584 2069 3584 
Q 2775 3584 3186 3129 
Q 3597 2675 3597 1894 
z
M 3022 2063 
Q 3016 2534 2758 2815 
Q 2500 3097 2075 3097 
Q 1594 3097 1305 2825 
Q 1016 2553 972 2059 
L 3022 2063 
z
" transform="scale(0.015625)"/>
       <path id="DejaVuSans-6d" d="M 3328 2828 
Q 3544 3216 3844 3400 
Q 4144 3584 4550 3584 
Q 5097 3584 5394 3201 
Q 5691 2819 5691 2113 
L 5691 0 
L 5113 0 
L 5113 2094 
Q 5113 2597 4934 2840 
Q 4756 3084 4391 3084 
Q 3944 3084 3684 2787 
Q 3425 2491 3425 1978 
L 3425 0 
L 2847 0 
L 2847 2094 
Q 2847 2600 2669 2842 
Q 2491 3084 2119 3084 
Q 1678 3084 1418 2786 
Q 1159 2488 1159 1978 
L 1159 0 
L 581 0 
L 581 3500 
L 1159 3500 
L 1159 2956 
Q 1356 3278 1631 3431 
Q 1906 3584 2284 3584 
Q 2666 3584 2933 3390 
Q 3200 3197 3328 2828 
z
" transform="scale(0.015625)"/>
       <path id="DejaVuSans-70" d="M 1159 525 
L 1159 -1331 
L 581 -1331 
L 581 3500 
L 1159 3500 
L 1159 2969 
Q 1341 3281 1617 3432 
Q 1894 3584 2278 3584 
Q 2916 3584 3314 3078 
Q 3713 2572 3713 1747 
Q 3713 922 3314 415 
Q 2916 -91 2278 -91 
Q 1894 -91 1617 61 
Q 1341 213 1159 525 
z
M 3116 1747 
Q 3116 2381 2855 2742 
Q 2594 3103 2138 3103 
Q 1681 3103 1420 2742 
Q 1159 2381 1159 1747 
Q 1159 1113 1420 752 
Q 1681 391 2138 391 
Q 2594 391 2855 752 
Q 3116 1113 3116 1747 
z
" transform="scale(0.015625)"/>
       <path id="DejaVuSans-72" d="M 2631 2963 
Q 2534 3019 2420 3045 
Q 2306 3072 2169 3072 
Q 1681 3072 1420 2755 
Q 1159 2438 1159 1844 
L 1159 0 
L 581 0 
L 581 3500 
L 1159 3500 
L 1159 2956 
Q 1341 3275 1631 3429 
Q 1922 3584 2338 3584 
Q 2397 3584 2469 3576 
Q 2541 3569 2628 3553 
L 2631 2963 
z
" transform="scale(0.015625)"/>
       <path id="DejaVuSans-61" d="M 2194 1759 
Q 1497 1759 1228 1600 
Q 959 1441 959 1056 
Q 959 750 1161 570 
Q 1363 391 1709 391 
Q 2188 391 2477 730 
Q 2766 1069 2766 1631 
L 2766 1759 
L 2194 1759 
z
M 3341 1997 
L 3341 0 
L 2766 0 
L 2766 531 
Q 2569 213 2275 61 
Q 1981 -91 1556 -91 
Q 1019 -91 701 211 
Q 384 513 384 1019 
Q 384 1609 779 1909 
Q 1175 2209 1959 2209 
L 2766 2209 
L 2766 2266 
Q 2766 2663 2505 2880 
Q 2244 3097 1772 3097 
Q 1472 3097 1187 3025 
Q 903 2953 641 2809 
L 641 3341 
Q 956 3463 1253 3523 
Q 1550 3584 1831 3584 
Q 2591 3584 2966 3190 
Q 3341 2797 3341 1997 
z
" transform="scale(0.015625)"/>
       <path id="DejaVuSans-74" d="M 1172 4494 
L 1172 3500 
L 2356 3500 
L 2356 3053 
L 1172 3053 
L 1172 1153 
Q 1172 725 1289 603 
Q 1406 481 1766 481 
L 2356 481 
L 2356 0 
L 1766 0 
Q 1100 0 847 248 
Q 594 497 594 1153 
L 594 3053 
L 172 3053 
L 172 3500 
L 594 3500 
L 594 4494 
L 1172 4494 
z
" transform="scale(0.015625)"/>
       <path id="DejaVuSans-75" d="M 544 1381 
L 544 3500 
L 1119 3500 
L 1119 1403 
Q 1119 906 1312 657 
Q 1506 409 1894 409 
Q 2359 409 2629 706 
Q 2900 1003 2900 1516 
L 2900 3500 
L 3475 3500 
L 3475 0 
L 2900 0 
L 2900 538 
Q 2691 219 2414 64 
Q 2138 -91 1772 -91 
Q 1169 -91 856 284 
Q 544 659 544 1381 
z
M 1991 3584 
L 1991 3584 
z
" transform="scale(0.015625)"/>
       <path id="DejaVuSans-20" transform="scale(0.015625)"/>
       <path id="DejaVuSans-28" d="M 1984 4856 
Q 1566 4138 1362 3434 
Q 1159 2731 1159 2009 
Q 1159 1288 1364 580 
Q 1569 -128 1984 -844 
L 1484 -844 
Q 1016 -109 783 600 
Q 550 1309 550 2009 
Q 550 2706 781 3412 
Q 1013 4119 1484 4856 
L 1984 4856 
z
" transform="scale(0.015625)"/>
       <path id="DejaVuSans-b0" d="M 1600 4347 
Q 1350 4347 1178 4173 
Q 1006 4000 1006 3750 
Q 1006 3503 1178 3333 
Q 1350 3163 1600 3163 
Q 1850 3163 2022 3333 
Q 2194 3503 2194 3750 
Q 2194 3997 2020 4172 
Q 1847 4347 1600 4347 
z
M 1600 4750 
Q 1800 4750 1984 4673 
Q 2169 4597 2303 4453 
Q 2447 4313 2519 4134 
Q 2591 3956 2591 3750 
Q 2591 3338 2302 3052 
Q 2013 2766 1594 2766 
Q 1172 2766 890 3047 
Q 609 3328 609 3750 
Q 609 4169 896 4459 
Q 1184 4750 1600 4750 
z
" transform="scale(0.015625)"/>
       <path id="DejaVuSans-43" d="M 4122 4306 
L 4122 3641 
Q 3803 3938 3442 4084 
Q 3081 4231 2675 4231 
Q 1875 4231 1450 3742 
Q 1025 3253 1025 2328 
Q 1025 1406 1450 917 
Q 1875 428 2675 428 
Q 3081 428 3442 575 
Q 3803 722 4122 1019 
L 4122 359 
Q 3791 134 3420 21 
Q 3050 -91 2638 -91 
Q 1578 -91 968 557 
Q 359 1206 359 2328 
Q 359 3453 968 4101 
Q 1578 4750 2638 4750 
Q 3056 4750 3426 4639 
Q 3797 4528 4122 4306 
z
" transform="scale(0.015625)"/>
       <path id="DejaVuSans-29" d="M 513 4856 
L 1013 4856 
Q 1481 4119 1714 3412 
Q 1947 2706 1947 2009 
Q 1947 1309 1714 600 
Q 1481 -109 1013 -844 
L 513 -844 
Q 928 -128 1133 580 
Q 1338 1288 1338 2009 
Q 1338 2731 1133 3434 
Q 928 4138 513 4856 
z
" transform="scale(0.015625)"/>
      </defs>
      <use xlink:href="#DejaVuSans-54"/>
      <use xlink:href="#DejaVuSans-65" x="44.083984"/>
      <use xlink:href="#DejaVuSans-6d" x="105.607422"/>
      <use xlink:href="#DejaVuSans-70" x="203.019531"/>
      <use xlink:href="#DejaVuSans-65" x="266.496094"/>
      <use xlink:href="#DejaVuSans-72" x="328.019531"/>
      <use xlink:href="#DejaVuSans-61" x="369.132812"/>
      <use xlink:href="#DejaVuSans-74" x="430.412109"/>
      <use xlink:href="#DejaVuSans-75" x="469.621094"/>
      <use xlink:href="#DejaVuSans-72" x="533"/>
      <use xlink:href="#DejaVuSans-65" x="571.863281"/>
      <use xlink:href="#DejaVuSans-20" x="633.386719"/>
      <use xlink:href="#DejaVuSans-28" x="665.173828"/>
      <use xlink:href="#DejaVuSans-b0" x="704.1875"/>
      <use xlink:href="#DejaVuSans-43" x="754.1875"/>
      <use xlink:href="#DejaVuSans-29" x="824.011719"/>
     </g>
    </g>
   </g>
   <g id="matplotlib.axis_2">
    <g id="ytick_1">
     <g id="line2d_7">
      <defs>
       <path id="mc014c2f28f" d="M 0 0 
L -3.5 0 
" style="stroke: #1f0133; stroke-width: 0.8"/>
      </defs>
      <g>
       <use xlink:href="#mc014c2f28f" x="56.516563" y="311.757935" style="fill: #1f0133; stroke: #1f0133; stroke-width: 0.8"/>
      </g>
     </g>
     <g id="text_8">
      <!-- −0.175 -->
      <g style="fill: #1f0133" transform="translate(19.910313 314.79731)scale(0.08 -0.08)">
       <defs>
        <path id="DejaVuSans-2212" d="M 678 2272 
L 4684 2272 
L 4684 1741 
L 678 1741 
L 678 2272 
z
" transform="scale(0.015625)"/>
        <path id="DejaVuSans-2e" d="M 684 794 
L 1344 794 
L 1344 0 
L 684 0 
L 684 794 
z
" transform="scale(0.015625)"/>
        <path id="DejaVuSans-37" d="M 525 4666 
L 3525 4666 
L 3525 4397 
L 1831 0 
L 1172 0 
L 2766 4134 
L 525 4134 
L 525 4666 
z
" transform="scale(0.015625)"/>
        <path id="DejaVuSans-35" d="M 691 4666 
L 3169 4666 
L 3169 4134 
L 1269 4134 
L 1269 2991 
Q 1406 3038 1543 3061 
Q 1681 3084 1819 3084 
Q 2600 3084 3056 2656 
Q 3513 2228 3513 1497 
Q 3513 744 3044 326 
Q 2575 -91 1722 -91 
Q 1428 -91 1123 -41 
Q 819 9 494 109 
L 494 744 
Q 775 591 1075 516 
Q 1375 441 1709 441 
Q 2250 441 2565 725 
Q 2881 1009 2881 1497 
Q 2881 1984 2565 2268 
Q 2250 2553 1709 2553 
Q 1456 2553 1204 2497 
Q 953 2441 691 2322 
L 691 4666 
z
" transform="scale(0.015625)"/>
       </defs>
       <use xlink:href="#DejaVuSans-2212"/>
       <use xlink:href="#DejaVuSans-30" x="83.789062"/>
       <use xlink:href="#DejaVuSans-2e" x="147.412109"/>
       <use xlink:href="#DejaVuSans-31" x="179.199219"/>
       <use xlink:href="#DejaVuSans-37" x="242.822266"/>
       <use xlink:href="#DejaVuSans-35" x="306.445312"/>
      </g>
     </g>
    </g>
    <g id="ytick_2">
     <g id="line2d_8">
      <g>
       <use xlink:href="#mc014c2f28f" x="56.516563" y="271.667135" style="fill: #1f0133; stroke: #1f0133; stroke-width: 0.8"/>
      </g>
     </g>
     <g id="text_9">
      <!-- −0.150 -->
      <g style="fill: #1f0133" transform="translate(19.910313 274.70651)scale(0.08 -0.08)">
       <use xlink:href="#DejaVuSans-2212"/>
       <use xlink:href="#DejaVuSans-30" x="83.789062"/>
       <use xlink:href="#DejaVuSans-2e" x="147.412109"/>
       <use xlink:href="#DejaVuSans-31" x="179.199219"/>
       <use xlink:href="#DejaVuSans-35" x="242.822266"/>
       <use xlink:href="#DejaVuSans-30" x="306.445312"/>
      </g>
     </g>
    </g>
    <g id="ytick_3">
     <g id="line2d_9">
      <g>
       <use xlink:href="#mc014c2f28f" x="56.516563" y="231.576335" style="fill: #1f0133; stroke: #1f0133; stroke-width: 0.8"/>
      </g>
     </g>
     <g id="text_10">
      <!-- −0.125 -->
      <g style="fill: #1f0133" transform="translate(19.910313 234.61571)scale(0.08 -0.08)">
       <use xlink:href="#DejaVuSans-2212"/>
       <use xlink:href="#DejaVuSans-30" x="83.789062"/>
       <use xlink:href="#DejaVuSans-2e" x="147.412109"/>
       <use xlink:href="#DejaVuSans-31" x="179.199219"/>
       <use xlink:href="#DejaVuSans-32" x="242.822266"/>
       <use xlink:href="#DejaVuSans-35" x="306.445312"/>
      </g>
     </g>
    </g>
    <g id="ytick_4">
     <g id="line2d_10">
      <g>
       <use xlink:href="#mc014c2f28f" x="56.516563" y="191.485535" style="fill: #1f0133; stroke: #1f0133; stroke-width: 0.8"/>
      </g>
     </g>
     <g id="text_11">
      <!-- −0.100 -->
      <g style="fill: #1f0133" transform="translate(19.910313 194.52491)scale(0.08 -0.08)">
       <use xlink:href="#DejaVuSans-2212"/>
       <use xlink:href="#DejaVuSans-30" x="83.789062"/>
       <use xlink:href="#DejaVuSans-2e" x="147.412109"/>
       <use xlink:href="#DejaVuSans-31" x="179.199219"/>
       <use xlink:href="#DejaVuSans-30" x="242.822266"/>
       <use xlink:href="#DejaVuSans-30" x="306.445312"/>
      </g>
     </g>
    </g>
    <g id="ytick_5">
     <g id="line2d_11">
      <g>
       <use xlink:href="#mc014c2f28f" x="56.516563" y="151.394735" style="fill: #1f0133; stroke: #1f0133; stroke-width: 0.8"/>
      </g>
     </g>
     <g id="text_12">
      <!-- −0.075 -->
      <g style="fill: #1f0133" transform="translate(19.910313 154.43411)scale(0.08 -0.08)">
       <use xlink:href="#DejaVuSans-2212"/>
       <use xlink:href="#DejaVuSans-30" x="83.789062"/>
       <use xlink:href="#DejaVuSans-2e" x="147.412109"/>
       <use xlink:href="#DejaVuSans-30" x="179.199219"/>
       <use xlink:href="#DejaVuSans-37" x="242.822266"/>
       <use xlink:href="#DejaVuSans-35" x="306.445312"/>
      </g>
     </g>
    </g>
    <g id="ytick_6">
     <g id="line2d_12">
      <g>
       <use xlink:href="#mc014c2f28f" x="56.516563" y="111.303934" style="fill: #1f0133; stroke: #1f0133; stroke-width: 0.8"/>
      </g>
     </g>
     <g id="text_13">
      <!-- −0.050 -->
      <g style="fill: #1f0133" transform="translate(19.910313 114.343309)scale(0.08 -0.08)">
       <use xlink:href="#DejaVuSans-2212"/>
       <use xlink:href="#DejaVuSans-30" x="83.789062"/>
       <use xlink:href="#DejaVuSans-2e" x="147.412109"/>
       <use xlink:href="#DejaVuSans-30" x="179.199219"/>
       <use xlink:href="#DejaVuSans-35" x="242.822266"/>
       <use xlink:href="#DejaVuSans-30" x="306.445312"/>
      </g>
     </g>
    </g>
    <g id="ytick_7">
     <g id="line2d_13">
      <g>
       <use xlink:href="#mc014c2f28f" x="56.516563" y="71.213134" style="fill: #1f0133; stroke: #1f0133; stroke-width: 0.8"/>
      </g>
     </g>
     <g id="text_14">
      <!-- −0.025 -->
      <g style="fill: #1f0133" transform="translate(19.910313 74.252509)scale(0.08 -0.08)">
       <use xlink:href="#DejaVuSans-2212"/>
       <use xlink:href="#DejaVuSans-30" x="83.789062"/>
       <use xlink:href="#DejaVuSans-2e" x="147.412109"/>
       <use xlink:href="#DejaVuSans-30" x="179.199219"/>
       <use xlink:href="#DejaVuSans-32" x="242.822266"/>
       <use xlink:href="#DejaVuSans-35" x="306.445312"/>
      </g>
     </g>
    </g>
    <g id="ytick_8">
     <g id="line2d_14">
      <g>
       <use xlink:href="#mc014c2f28f" x="56.516563" y="31.122334" style="fill: #1f0133; stroke: #1f0133; stroke-width: 0.8"/>
      </g>
     </g>
     <g id="text_15">
      <!-- 0.000 -->
      <g style="fill: #1f0133" transform="translate(26.614063 34.161709)scale(0.08 -0.08)">
       <use xlink:href="#DejaVuSans-30"/>
       <use xlink:href="#DejaVuSans-2e" x="63.623047"/>
       <use xlink:href="#DejaVuSans-30" x="95.410156"/>
       <use xlink:href="#DejaVuSans-30" x="159.033203"/>
       <use xlink:href="#DejaVuSans-30" x="222.65625"/>
      </g>
     </g>
    </g>
    <g id="text_16">
     <!-- Derivitave Weight (% / °C) -->
     <g style="fill: #1f0133" transform="translate(14.038594 240.172969)rotate(-90)scale(0.09 -0.09)">
      <defs>
       <path id="DejaVuSans-44" d="M 1259 4147 
L 1259 519 
L 2022 519 
Q 2988 519 3436 956 
Q 3884 1394 3884 2338 
Q 3884 3275 3436 3711 
Q 2988 4147 2022 4147 
L 1259 4147 
z
M 628 4666 
L 1925 4666 
Q 3281 4666 3915 4102 
Q 4550 3538 4550 2338 
Q 4550 1131 3912 565 
Q 3275 0 1925 0 
L 628 0 
L 628 4666 
z
" transform="scale(0.015625)"/>
       <path id="DejaVuSans-69" d="M 603 3500 
L 1178 3500 
L 1178 0 
L 603 0 
L 603 3500 
z
M 603 4863 
L 1178 4863 
L 1178 4134 
L 603 4134 
L 603 4863 
z
" transform="scale(0.015625)"/>
       <path id="DejaVuSans-76" d="M 191 3500 
L 800 3500 
L 1894 563 
L 2988 3500 
L 3597 3500 
L 2284 0 
L 1503 0 
L 191 3500 
z
" transform="scale(0.015625)"/>
       <path id="DejaVuSans-57" d="M 213 4666 
L 850 4666 
L 1831 722 
L 2809 4666 
L 3519 4666 
L 4500 722 
L 5478 4666 
L 6119 4666 
L 4947 0 
L 4153 0 
L 3169 4050 
L 2175 0 
L 1381 0 
L 213 4666 
z
" transform="scale(0.015625)"/>
       <path id="DejaVuSans-67" d="M 2906 1791 
Q 2906 2416 2648 2759 
Q 2391 3103 1925 3103 
Q 1463 3103 1205 2759 
Q 947 2416 947 1791 
Q 947 1169 1205 825 
Q 1463 481 1925 481 
Q 2391 481 2648 825 
Q 2906 1169 2906 1791 
z
M 3481 434 
Q 3481 -459 3084 -895 
Q 2688 -1331 1869 -1331 
Q 1566 -1331 1297 -1286 
Q 1028 -1241 775 -1147 
L 775 -588 
Q 1028 -725 1275 -790 
Q 1522 -856 1778 -856 
Q 2344 -856 2625 -561 
Q 2906 -266 2906 331 
L 2906 616 
Q 2728 306 2450 153 
Q 2172 0 1784 0 
Q 1141 0 747 490 
Q 353 981 353 1791 
Q 353 2603 747 3093 
Q 1141 3584 1784 3584 
Q 2172 3584 2450 3431 
Q 2728 3278 2906 2969 
L 2906 3500 
L 3481 3500 
L 3481 434 
z
" transform="scale(0.015625)"/>
       <path id="DejaVuSans-68" d="M 3513 2113 
L 3513 0 
L 2938 0 
L 2938 2094 
Q 2938 2591 2744 2837 
Q 2550 3084 2163 3084 
Q 1697 3084 1428 2787 
Q 1159 2491 1159 1978 
L 1159 0 
L 581 0 
L 581 4863 
L 1159 4863 
L 1159 2956 
Q 1366 3272 1645 3428 
Q 1925 3584 2291 3584 
Q 2894 3584 3203 3211 
Q 3513 2838 3513 2113 
z
" transform="scale(0.015625)"/>
       <path id="DejaVuSans-25" d="M 4653 2053 
Q 4381 2053 4226 1822 
Q 4072 1591 4072 1178 
Q 4072 772 4226 539 
Q 4381 306 4653 306 
Q 4919 306 5073 539 
Q 5228 772 5228 1178 
Q 5228 1588 5073 1820 
Q 4919 2053 4653 2053 
z
M 4653 2450 
Q 5147 2450 5437 2106 
Q 5728 1763 5728 1178 
Q 5728 594 5436 251 
Q 5144 -91 4653 -91 
Q 4153 -91 3862 251 
Q 3572 594 3572 1178 
Q 3572 1766 3864 2108 
Q 4156 2450 4653 2450 
z
M 1428 4353 
Q 1159 4353 1004 4120 
Q 850 3888 850 3481 
Q 850 3069 1003 2837 
Q 1156 2606 1428 2606 
Q 1700 2606 1854 2837 
Q 2009 3069 2009 3481 
Q 2009 3884 1853 4118 
Q 1697 4353 1428 4353 
z
M 4250 4750 
L 4750 4750 
L 1831 -91 
L 1331 -91 
L 4250 4750 
z
M 1428 4750 
Q 1922 4750 2215 4408 
Q 2509 4066 2509 3481 
Q 2509 2891 2217 2550 
Q 1925 2209 1428 2209 
Q 931 2209 642 2551 
Q 353 2894 353 3481 
Q 353 4063 643 4406 
Q 934 4750 1428 4750 
z
" transform="scale(0.015625)"/>
       <path id="DejaVuSans-2f" d="M 1625 4666 
L 2156 4666 
L 531 -594 
L 0 -594 
L 1625 4666 
z
" transform="scale(0.015625)"/>
      </defs>
      <use xlink:href="#DejaVuSans-44"/>
      <use xlink:href="#DejaVuSans-65" x="77.001953"/>
      <use xlink:href="#DejaVuSans-72" x="138.525391"/>
      <use xlink:href="#DejaVuSans-69" x="179.638672"/>
      <use xlink:href="#DejaVuSans-76" x="207.421875"/>
      <use xlink:href="#DejaVuSans-69" x="266.601562"/>
      <use xlink:href="#DejaVuSans-74" x="294.384766"/>
      <use xlink:href="#DejaVuSans-61" x="333.59375"/>
      <use xlink:href="#DejaVuSans-76" x="394.873047"/>
      <use xlink:href="#DejaVuSans-65" x="454.052734"/>
      <use xlink:href="#DejaVuSans-20" x="515.576172"/>
      <use xlink:href="#DejaVuSans-57" x="547.363281"/>
      <use xlink:href="#DejaVuSans-65" x="640.365234"/>
      <use xlink:href="#DejaVuSans-69" x="701.888672"/>
      <use xlink:href="#DejaVuSans-67" x="729.671875"/>
      <use xlink:href="#DejaVuSans-68" x="793.148438"/>
      <use xlink:href="#DejaVuSans-74" x="856.527344"/>
      <use xlink:href="#DejaVuSans-20" x="895.736328"/>
      <use xlink:href="#DejaVuSans-28" x="927.523438"/>
      <use xlink:href="#DejaVuSans-25" x="966.537109"/>
      <use xlink:href="#DejaVuSans-20" x="1061.556641"/>
      <use xlink:href="#DejaVuSans-2f" x="1093.34375"/>
      <use xlink:href="#DejaVuSans-20" x="1127.035156"/>
      <use xlink:href="#DejaVuSans-b0" x="1158.822266"/>
      <use xlink:href="#DejaVuSans-43" x="1208.822266"/>
      <use xlink:href="#DejaVuSans-29" x="1278.646484"/>
     </g>
    </g>
   </g>
   <g id="line2d_15">
    <path d="M 74.474017 37.237663 
L 76.711706 45.332407 
L 77.457602 48.811281 
L 78.576447 55.435266 
L 79.695291 64.028836 
L 80.814136 74.77137 
L 82.305929 91.757205 
L 83.424773 107.148238 
L 84.543618 125.826902 
L 87.154255 170.623622 
L 91.629633 243.500254 
L 94.24027 284.81722 
L 95.732063 304.712334 
L 96.850907 316.639399 
L 97.596804 322.47156 
L 98.3427 326.489679 
L 98.715648 327.819074 
L 99.088596 328.718071 
L 99.461545 329.126157 
L 99.834493 329.132983 
L 100.207441 328.645039 
L 100.580389 327.78203 
L 100.953337 326.512475 
L 101.699234 322.545304 
L 102.44513 317.127716 
L 103.563975 306.788944 
L 104.682819 294.355598 
L 106.174612 275.055019 
L 110.277042 220.647166 
L 111.768834 204.579084 
L 113.260627 190.72963 
L 114.75242 179.065858 
L 116.617161 166.392624 
L 118.108953 157.664209 
L 119.600746 150.11434 
L 121.092539 143.547287 
L 123.330228 135.296804 
L 124.449072 131.884714 
L 125.567917 129.009061 
L 127.059709 125.722767 
L 129.297399 121.598071 
L 131.162139 118.916163 
L 132.653932 117.0762 
L 134.145725 115.215122 
L 136.010466 113.043209 
L 137.502258 111.3242 
L 138.994051 109.355496 
L 140.485844 107.421641 
L 143.096481 104.655101 
L 143.842377 104.219558 
L 147.198911 102.530276 
L 147.944807 102.014164 
L 149.063652 101.393446 
L 150.182496 100.855378 
L 150.928393 100.643425 
L 151.674289 100.569836 
L 152.793133 100.82399 
L 153.911978 101.365477 
L 155.030822 102.103139 
L 157.268512 103.660647 
L 158.387356 104.17061 
L 159.133252 104.260175 
L 159.879149 104.09702 
L 160.625045 103.543482 
L 161.370941 102.541458 
L 162.116838 101.083758 
L 162.862734 99.115718 
L 165.100423 92.591161 
L 165.84632 91.026313 
L 166.965164 89.272682 
L 168.084009 87.901123 
L 169.202853 86.95974 
L 169.948749 86.722594 
L 170.694646 86.698145 
L 171.81349 86.72731 
L 174.424127 86.517096 
L 178.153609 86.171997 
L 179.272454 86.025151 
L 183.374884 85.807112 
L 189.715003 85.665355 
L 193.071536 85.303978 
L 193.817433 85.565627 
L 194.563329 85.541636 
L 195.309225 85.017738 
L 195.682173 84.692653 
L 197.173966 84.363199 
L 199.038707 84.040729 
L 200.5305 83.45685 
L 209.481256 78.995415 
L 210.973048 78.020934 
L 215.821375 74.946731 
L 218.432012 73.62181 
L 219.550856 73.147359 
L 221.415597 72.45977 
L 225.518027 70.049946 
L 227.755716 68.390456 
L 229.993405 66.56041 
L 233.722887 63.340239 
L 235.587628 61.906111 
L 237.452369 60.733961 
L 238.944161 59.879398 
L 244.538384 57.231597 
L 250.505555 55.119534 
L 254.607985 53.749121 
L 256.472726 53.090302 
L 260.948104 51.532133 
L 263.558741 50.676141 
L 272.509497 47.860991 
L 273.628342 47.612893 
L 276.238979 46.829059 
L 277.357823 46.536049 
L 288.546269 43.488043 
L 304.955988 39.888228 
L 305.701885 39.805888 
L 307.193677 39.417244 
L 312.7879 38.303886 
L 314.279692 38.034732 
L 315.398537 37.80385 
L 318.009174 37.432049 
L 320.246863 37.059584 
L 320.99276 36.979128 
L 321.738656 36.854407 
L 323.976345 36.663516 
L 327.332879 36.339072 
L 332.554153 35.890506 
L 334.045946 35.715504 
L 335.16479 35.594237 
L 340.386065 35.258236 
L 341.504909 35.163117 
L 348.590924 34.65705 
L 349.336821 34.59608 
L 353.812199 34.493449 
L 354.185147 34.775075 
L 354.558095 34.901917 
L 354.931043 34.829422 
L 356.049888 34.223515 
L 356.422836 33.915824 
L 357.168732 34.169043 
L 357.914629 34.296718 
L 358.287577 34.420077 
L 359.406421 34.321746 
L 360.525266 34.144543 
L 362.017059 34.243367 
L 365.74654 34.072342 
L 366.492437 34.063749 
L 367.984229 34.027259 
L 369.476022 34.09413 
L 370.221918 34.015402 
L 379.918571 34.05117 
L 380.291519 34.184496 
L 381.410364 34.158711 
L 382.529208 34.046722 
L 386.25869 34.163696 
L 387.004586 34.074899 
L 388.496379 34.146305 
L 389.988172 34.079825 
L 392.225861 34.201626 
L 392.971757 34.120736 
L 393.717653 34.205986 
L 394.836498 34.227955 
L 395.582394 34.262515 
L 396.328291 34.318472 
L 397.820083 34.14605 
L 400.430721 34.389292 
L 401.176617 34.271272 
L 401.922513 34.091678 
L 403.041358 34.273562 
L 403.787254 34.397401 
L 406.024943 34.248262 
L 407.516736 34.419227 
L 409.008529 34.285974 
L 411.246218 34.375814 
L 412.365062 34.303905 
L 413.856855 34.330615 
L 414.975699 34.269852 
L 417.213388 34.434873 
L 418.705181 34.419582 
L 420.196974 34.301827 
L 420.94287 34.289434 
L 422.434663 34.398074 
L 425.0453 34.204774 
L 426.164144 34.087733 
L 427.282989 33.708354 
L 427.655937 33.52095 
L 429.14773 33.506169 
L 429.893626 33.395522 
L 430.639523 33.110995 
L 432.131315 32.907996 
L 433.623108 32.623892 
L 433.623108 32.623892 
" clip-path="url(#p2a36c168dc)" style="fill: none; stroke: #1f0133; stroke-width: 1.5; stroke-linecap: square"/>
   </g>
   <g id="patch_3">
    <path d="M 56.516563 343.958437 
L 56.516563 17.798437 
" style="fill: none; stroke: #000000; stroke-width: 0.8; stroke-linejoin: miter; stroke-linecap: square"/>
   </g>
   <g id="patch_4">
    <path d="M 451.580562 343.958437 
L 451.580562 17.798437 
" style="fill: none; stroke: #000000; stroke-width: 0.8; stroke-linejoin: miter; stroke-linecap: square"/>
   </g>
   <g id="patch_5">
    <path d="M 56.516563 343.958437 
L 451.580562 343.958437 
" style="fill: none; stroke: #000000; stroke-width: 0.8; stroke-linejoin: miter; stroke-linecap: square"/>
   </g>
   <g id="patch_6">
    <path d="M 56.516563 17.798437 
L 451.580562 17.798437 
" style="fill: none; stroke: #000000; stroke-width: 0.8; stroke-linejoin: miter; stroke-linecap: square"/>
   </g>
  </g>
  <g id="axes_2">
   <g id="matplotlib.axis_3">
    <g id="ytick_9">
     <g id="line2d_16">
      <defs>
       <path id="mdaaa4a491c" d="M 0 0 
L 3.5 0 
" style="stroke: #256676; stroke-width: 0.8"/>
      </defs>
      <g>
       <use xlink:href="#mdaaa4a491c" x="451.580562" y="343.958437" style="fill: #256676; stroke: #256676; stroke-width: 0.8"/>
      </g>
     </g>
     <g id="text_17">
      <!-- −4 -->
      <g style="fill: #256676" transform="translate(458.580562 346.997812)scale(0.08 -0.08)">
       <use xlink:href="#DejaVuSans-2212"/>
       <use xlink:href="#DejaVuSans-34" x="83.789062"/>
      </g>
     </g>
    </g>
    <g id="ytick_10">
     <g id="line2d_17">
      <g>
       <use xlink:href="#mdaaa4a491c" x="451.580562" y="303.188437" style="fill: #256676; stroke: #256676; stroke-width: 0.8"/>
      </g>
     </g>
     <g id="text_18">
      <!-- −3 -->
      <g style="fill: #256676" transform="translate(458.580562 306.227812)scale(0.08 -0.08)">
       <defs>
        <path id="DejaVuSans-33" d="M 2597 2516 
Q 3050 2419 3304 2112 
Q 3559 1806 3559 1356 
Q 3559 666 3084 287 
Q 2609 -91 1734 -91 
Q 1441 -91 1130 -33 
Q 819 25 488 141 
L 488 750 
Q 750 597 1062 519 
Q 1375 441 1716 441 
Q 2309 441 2620 675 
Q 2931 909 2931 1356 
Q 2931 1769 2642 2001 
Q 2353 2234 1838 2234 
L 1294 2234 
L 1294 2753 
L 1863 2753 
Q 2328 2753 2575 2939 
Q 2822 3125 2822 3475 
Q 2822 3834 2567 4026 
Q 2313 4219 1838 4219 
Q 1578 4219 1281 4162 
Q 984 4106 628 3988 
L 628 4550 
Q 988 4650 1302 4700 
Q 1616 4750 1894 4750 
Q 2613 4750 3031 4423 
Q 3450 4097 3450 3541 
Q 3450 3153 3228 2886 
Q 3006 2619 2597 2516 
z
" transform="scale(0.015625)"/>
       </defs>
       <use xlink:href="#DejaVuSans-2212"/>
       <use xlink:href="#DejaVuSans-33" x="83.789062"/>
      </g>
     </g>
    </g>
    <g id="ytick_11">
     <g id="line2d_18">
      <g>
       <use xlink:href="#mdaaa4a491c" x="451.580562" y="262.418437" style="fill: #256676; stroke: #256676; stroke-width: 0.8"/>
      </g>
     </g>
     <g id="text_19">
      <!-- −2 -->
      <g style="fill: #256676" transform="translate(458.580562 265.457812)scale(0.08 -0.08)">
       <use xlink:href="#DejaVuSans-2212"/>
       <use xlink:href="#DejaVuSans-32" x="83.789062"/>
      </g>
     </g>
    </g>
    <g id="ytick_12">
     <g id="line2d_19">
      <g>
       <use xlink:href="#mdaaa4a491c" x="451.580562" y="221.648437" style="fill: #256676; stroke: #256676; stroke-width: 0.8"/>
      </g>
     </g>
     <g id="text_20">
      <!-- −1 -->
      <g style="fill: #256676" transform="translate(458.580562 224.687812)scale(0.08 -0.08)">
       <use xlink:href="#DejaVuSans-2212"/>
       <use xlink:href="#DejaVuSans-31" x="83.789062"/>
      </g>
     </g>
    </g>
    <g id="ytick_13">
     <g id="line2d_20">
      <g>
       <use xlink:href="#mdaaa4a491c" x="451.580562" y="180.878437" style="fill: #256676; stroke: #256676; stroke-width: 0.8"/>
      </g>
     </g>
     <g id="text_21">
      <!-- 0 -->
      <g style="fill: #256676" transform="translate(458.580562 183.917812)scale(0.08 -0.08)">
       <use xlink:href="#DejaVuSans-30"/>
      </g>
     </g>
    </g>
    <g id="ytick_14">
     <g id="line2d_21">
      <g>
       <use xlink:href="#mdaaa4a491c" x="451.580562" y="140.108437" style="fill: #256676; stroke: #256676; stroke-width: 0.8"/>
      </g>
     </g>
     <g id="text_22">
      <!-- 1 -->
      <g style="fill: #256676" transform="translate(458.580562 143.147812)scale(0.08 -0.08)">
       <use xlink:href="#DejaVuSans-31"/>
      </g>
     </g>
    </g>
    <g id="ytick_15">
     <g id="line2d_22">
      <g>
       <use xlink:href="#mdaaa4a491c" x="451.580562" y="99.338437" style="fill: #256676; stroke: #256676; stroke-width: 0.8"/>
      </g>
     </g>
     <g id="text_23">
      <!-- 2 -->
      <g style="fill: #256676" transform="translate(458.580562 102.377812)scale(0.08 -0.08)">
       <use xlink:href="#DejaVuSans-32"/>
      </g>
     </g>
    </g>
    <g id="ytick_16">
     <g id="line2d_23">
      <g>
       <use xlink:href="#mdaaa4a491c" x="451.580562" y="58.568437" style="fill: #256676; stroke: #256676; stroke-width: 0.8"/>
      </g>
     </g>
     <g id="text_24">
      <!-- 3 -->
      <g style="fill: #256676" transform="translate(458.580562 61.607812)scale(0.08 -0.08)">
       <use xlink:href="#DejaVuSans-33"/>
      </g>
     </g>
    </g>
    <g id="ytick_17">
     <g id="line2d_24">
      <g>
       <use xlink:href="#mdaaa4a491c" x="451.580562" y="17.798437" style="fill: #256676; stroke: #256676; stroke-width: 0.8"/>
      </g>
     </g>
     <g id="text_25">
      <!-- 4 -->
      <g style="fill: #256676" transform="translate(458.580562 20.837812)scale(0.08 -0.08)">
       <use xlink:href="#DejaVuSans-34"/>
      </g>
     </g>
    </g>
    <g id="text_26">
     <!-- 2nd Derivitave Weight -->
     <g style="fill: #256676" transform="translate(481.212906 231.189141)rotate(-90)scale(0.09 -0.09)">
      <defs>
       <path id="DejaVuSans-6e" d="M 3513 2113 
L 3513 0 
L 2938 0 
L 2938 2094 
Q 2938 2591 2744 2837 
Q 2550 3084 2163 3084 
Q 1697 3084 1428 2787 
Q 1159 2491 1159 1978 
L 1159 0 
L 581 0 
L 581 3500 
L 1159 3500 
L 1159 2956 
Q 1366 3272 1645 3428 
Q 1925 3584 2291 3584 
Q 2894 3584 3203 3211 
Q 3513 2838 3513 2113 
z
" transform="scale(0.015625)"/>
       <path id="DejaVuSans-64" d="M 2906 2969 
L 2906 4863 
L 3481 4863 
L 3481 0 
L 2906 0 
L 2906 525 
Q 2725 213 2448 61 
Q 2172 -91 1784 -91 
Q 1150 -91 751 415 
Q 353 922 353 1747 
Q 353 2572 751 3078 
Q 1150 3584 1784 3584 
Q 2172 3584 2448 3432 
Q 2725 3281 2906 2969 
z
M 947 1747 
Q 947 1113 1208 752 
Q 1469 391 1925 391 
Q 2381 391 2643 752 
Q 2906 1113 2906 1747 
Q 2906 2381 2643 2742 
Q 2381 3103 1925 3103 
Q 1469 3103 1208 2742 
Q 947 2381 947 1747 
z
" transform="scale(0.015625)"/>
      </defs>
      <use xlink:href="#DejaVuSans-32"/>
      <use xlink:href="#DejaVuSans-6e" x="63.623047"/>
      <use xlink:href="#DejaVuSans-64" x="127.001953"/>
      <use xlink:href="#DejaVuSans-20" x="190.478516"/>
      <use xlink:href="#DejaVuSans-44" x="222.265625"/>
      <use xlink:href="#DejaVuSans-65" x="299.267578"/>
      <use xlink:href="#DejaVuSans-72" x="360.791016"/>
      <use xlink:href="#DejaVuSans-69" x="401.904297"/>
      <use xlink:href="#DejaVuSans-76" x="429.6875"/>
      <use xlink:href="#DejaVuSans-69" x="488.867188"/>
      <use xlink:href="#DejaVuSans-74" x="516.650391"/>
      <use xlink:href="#DejaVuSans-61" x="555.859375"/>
      <use xlink:href="#DejaVuSans-76" x="617.138672"/>
      <use xlink:href="#DejaVuSans-65" x="676.318359"/>
      <use xlink:href="#DejaVuSans-20" x="737.841797"/>
      <use xlink:href="#DejaVuSans-57" x="769.628906"/>
      <use xlink:href="#DejaVuSans-65" x="862.630859"/>
      <use xlink:href="#DejaVuSans-69" x="924.154297"/>
      <use xlink:href="#DejaVuSans-67" x="951.9375"/>
      <use xlink:href="#DejaVuSans-68" x="1015.414062"/>
      <use xlink:href="#DejaVuSans-74" x="1078.792969"/>
     </g>
    </g>
    <g id="text_27">
     <!-- 1e−5 -->
     <g style="fill: #256676" transform="translate(424.32275 14.798437)scale(0.1 -0.1)">
      <use xlink:href="#DejaVuSans-31"/>
      <use xlink:href="#DejaVuSans-65" x="63.623047"/>
      <use xlink:href="#DejaVuSans-2212" x="125.146484"/>
      <use xlink:href="#DejaVuSans-35" x="208.935547"/>
     </g>
    </g>
   </g>
   <g id="line2d_25">
    <path d="M 75.592862 214.908567 
L 75.96581 216.73669 
L 76.711706 222.339096 
L 77.457602 230.018819 
L 78.576447 245.279703 
L 81.560032 289.06205 
L 82.305929 300.656401 
L 83.051825 316.554615 
L 84.17067 340.708079 
L 84.543618 345.638928 
L 84.916566 348.0248 
L 85.289514 347.741409 
L 85.662462 345.675998 
L 86.781307 336.028878 
L 87.154255 334.060355 
L 87.527203 333.261516 
L 87.900151 333.133882 
L 88.646048 333.796041 
L 89.018996 334.183083 
L 89.764892 335.405885 
L 90.883737 337.977475 
L 91.256685 337.873647 
L 91.629633 337.121235 
L 92.375529 334.263128 
L 93.121426 330.136759 
L 93.494374 327.360518 
L 94.24027 319.055852 
L 95.359115 300.752926 
L 96.105011 285.122789 
L 97.223856 254.781889 
L 101.699234 121.747703 
L 102.44513 104.513515 
L 103.563975 84.339453 
L 105.055767 62.7855 
L 105.801664 55.556972 
L 106.54756 51.326155 
L 106.920508 50.193568 
L 107.293456 49.471715 
L 107.666404 49.524655 
L 108.039353 50.600089 
L 108.412301 52.883763 
L 109.158197 59.622493 
L 110.64999 75.16032 
L 113.633575 103.493396 
L 114.75242 111.547791 
L 117.736005 127.491918 
L 118.481901 131.401106 
L 121.465487 143.458679 
L 122.584331 146.780923 
L 125.194969 156.881022 
L 126.686761 160.986904 
L 127.432658 162.515903 
L 127.805606 163.088423 
L 128.178554 163.394079 
L 128.92445 164.591802 
L 130.789191 168.005997 
L 131.535088 168.851275 
L 131.908036 168.941534 
L 132.653932 168.815765 
L 133.772777 169.547404 
L 134.145725 169.94179 
L 134.518673 170.100209 
L 134.891621 170.013288 
L 135.264569 169.673476 
L 135.637517 169.527363 
L 136.756362 169.843823 
L 137.12931 169.831074 
L 137.502258 169.518557 
L 138.248155 168.386265 
L 138.994051 168.033829 
L 139.366999 168.203956 
L 140.112896 169.263019 
L 140.858792 170.14295 
L 141.977636 170.639376 
L 142.350585 171.230736 
L 143.096481 173.598706 
L 143.469429 174.933979 
L 143.842377 175.793481 
L 144.588274 176.675187 
L 144.961222 176.641966 
L 145.33417 176.491448 
L 146.825963 174.877715 
L 147.944807 175.141493 
L 148.317755 175.302348 
L 149.063652 175.853665 
L 149.4366 176.12765 
L 150.555444 178.186754 
L 153.166082 184.954779 
L 154.284926 186.843083 
L 155.030822 187.563612 
L 155.403771 187.732391 
L 155.776719 187.712216 
L 156.522615 187.219438 
L 157.268512 186.242173 
L 158.014408 184.463141 
L 158.760304 181.906175 
L 159.506201 178.367021 
L 160.252097 173.646815 
L 161.370941 165.186072 
L 162.489786 156.381443 
L 162.862734 154.219325 
L 163.235682 152.890519 
L 163.60863 152.477268 
L 163.981579 152.988904 
L 164.354527 154.337837 
L 165.100423 158.422527 
L 166.219268 164.875522 
L 166.965164 167.689254 
L 168.456957 172.410153 
L 170.321698 180.106185 
L 170.694646 180.728896 
L 171.067594 180.977667 
L 171.440542 180.91058 
L 172.186438 180.256428 
L 172.932335 180.050613 
L 173.678231 180.125315 
L 174.424127 180.256069 
L 175.170024 180.196856 
L 175.91592 180.19327 
L 177.034765 179.898114 
L 177.780661 179.421803 
L 178.526557 179.571679 
L 179.645402 180.048752 
L 180.764246 179.79553 
L 181.137195 179.936737 
L 182.628987 181.071496 
L 183.374884 180.867932 
L 184.12078 180.587686 
L 184.866676 180.823289 
L 185.612573 181.072434 
L 186.358469 181.1308 
L 187.850262 180.814965 
L 189.342054 179.758349 
L 190.087951 179.689814 
L 191.579743 179.833566 
L 191.952692 179.927895 
L 193.071536 181.873691 
L 193.444484 182.075077 
L 193.817433 181.496342 
L 194.190381 179.839067 
L 194.563329 177.521486 
L 194.936277 176.074703 
L 195.309225 175.4879 
L 195.682173 175.825344 
L 196.801018 179.146765 
L 197.173966 179.39722 
L 197.546914 179.50026 
L 197.919862 179.366671 
L 198.292811 179.05367 
L 199.784603 177.172815 
L 200.157551 176.845244 
L 200.5305 176.692897 
L 201.276396 176.717959 
L 202.768189 176.284028 
L 203.141137 176.138521 
L 204.63293 176.09254 
L 206.124722 175.673345 
L 206.870619 175.939634 
L 207.989463 176.247598 
L 208.735359 176.077348 
L 209.481256 175.539444 
L 210.227152 174.752393 
L 210.973048 174.766 
L 211.718945 175.040697 
L 212.091893 175.048166 
L 213.583686 174.532313 
L 214.70253 174.833832 
L 215.821375 175.771496 
L 216.194323 176.106262 
L 216.567271 176.228172 
L 218.059064 175.874232 
L 218.432012 176.150151 
L 219.550856 177.399615 
L 219.923805 177.610799 
L 220.296753 177.527594 
L 221.042649 176.697378 
L 221.788546 175.905246 
L 222.161494 175.723518 
L 223.280338 175.738805 
L 224.026235 175.283463 
L 225.145079 174.44207 
L 225.890975 174.14209 
L 226.636872 173.874725 
L 228.501613 173.239012 
L 229.247509 172.908677 
L 229.993405 172.544828 
L 231.11225 172.552878 
L 232.604043 172.866508 
L 234.095835 173.179792 
L 235.21468 174.043893 
L 236.333524 174.87344 
L 237.825317 175.284189 
L 239.690058 176.24637 
L 243.41954 176.441918 
L 245.657229 177.451202 
L 246.776073 177.665001 
L 249.013762 177.453147 
L 250.878503 177.642025 
L 251.624399 177.41391 
L 251.997348 177.426162 
L 253.48914 178.023348 
L 255.353881 177.490188 
L 256.099777 177.623842 
L 256.472726 177.530348 
L 257.964518 177.837389 
L 258.337466 177.97057 
L 258.710415 177.93033 
L 259.829259 177.340842 
L 260.202207 177.231803 
L 260.575156 177.259382 
L 261.694 177.642047 
L 264.304637 177.962666 
L 265.79643 177.532083 
L 266.542326 177.804605 
L 267.288223 178.018308 
L 268.034119 178.08931 
L 268.780015 177.927837 
L 269.89886 177.957276 
L 270.644756 177.829724 
L 271.390653 177.845283 
L 272.509497 178.532204 
L 273.255393 178.432457 
L 274.374238 177.879066 
L 274.747186 177.888008 
L 275.493082 178.285673 
L 275.866031 178.518625 
L 276.238979 178.528305 
L 276.984875 178.305699 
L 277.730772 177.753217 
L 278.476668 177.771206 
L 278.849616 177.77223 
L 279.595512 178.16192 
L 280.341409 178.15679 
L 281.087305 178.211921 
L 281.460253 178.10677 
L 283.324994 178.831042 
L 283.697942 178.87705 
L 284.443839 178.565222 
L 285.189735 178.365171 
L 285.562683 178.314298 
L 286.681528 178.441614 
L 288.546269 178.503725 
L 289.665113 179.069567 
L 290.411009 179.128678 
L 290.783958 179.028637 
L 291.902802 178.34862 
L 292.648698 178.144527 
L 293.394595 178.678136 
L 294.140491 179.105612 
L 294.513439 179.256504 
L 294.886387 179.241244 
L 295.259336 178.928205 
L 295.632284 178.781483 
L 296.751128 178.865489 
L 297.497025 179.065629 
L 298.988817 178.677475 
L 303.464195 178.628204 
L 303.837144 178.765744 
L 304.58304 179.422818 
L 304.955988 179.383101 
L 305.701885 179.004257 
L 306.447781 178.559228 
L 307.193677 178.680146 
L 309.431366 179.171699 
L 310.550211 178.87142 
L 310.923159 178.62811 
L 311.296107 178.730438 
L 312.414952 179.411881 
L 313.160848 179.431615 
L 313.533796 179.085881 
L 314.279692 178.903261 
L 315.398537 179.229705 
L 315.771485 179.419378 
L 316.144433 179.407097 
L 316.517382 179.54359 
L 317.263278 179.522482 
L 318.382122 179.133726 
L 318.755071 179.175113 
L 319.128019 179.33176 
L 319.500967 179.611839 
L 319.873915 179.752114 
L 320.99276 179.595984 
L 322.484552 180.213725 
L 323.603397 179.897201 
L 324.722241 180.081383 
L 325.841086 179.639157 
L 326.586982 179.852442 
L 327.332879 180.240416 
L 327.705827 180.122236 
L 328.078775 180.122653 
L 328.451723 179.902402 
L 329.570568 179.97843 
L 329.943516 180.20486 
L 330.316464 180.194465 
L 330.689412 180.384215 
L 331.06236 180.157732 
L 331.435308 180.108619 
L 331.808257 179.896973 
L 332.554153 179.894758 
L 332.927101 179.818397 
L 333.300049 179.996125 
L 333.672998 179.80731 
L 334.418894 179.795563 
L 335.16479 180.187905 
L 335.537738 180.332496 
L 335.910687 180.613585 
L 336.656583 180.382474 
L 337.029531 180.156988 
L 338.148376 180.078038 
L 339.26722 180.205407 
L 340.013116 179.948507 
L 340.759013 180.121463 
L 341.504909 180.29887 
L 342.250805 180.685882 
L 342.623754 180.601617 
L 342.996702 180.663569 
L 343.36965 180.506213 
L 344.115546 179.902199 
L 344.488495 179.887425 
L 344.861443 180.005414 
L 345.234391 180.001948 
L 345.607339 180.352542 
L 345.980287 180.500966 
L 346.353235 180.508231 
L 346.726184 180.240247 
L 347.099132 180.197203 
L 347.47208 180.005653 
L 347.845028 179.672639 
L 348.217976 179.719829 
L 348.590924 179.883507 
L 349.336821 180.601248 
L 349.709769 181.020651 
L 350.082717 181.106545 
L 351.201562 180.261982 
L 351.57451 180.17738 
L 352.320406 180.478512 
L 352.693354 180.656938 
L 353.439251 182.381022 
L 353.812199 182.714404 
L 354.185147 182.167266 
L 354.558095 181.116442 
L 354.931043 179.355766 
L 355.303992 176.982605 
L 355.67694 176.589973 
L 356.049888 177.550354 
L 357.541681 182.976532 
L 359.406421 179.498186 
L 359.77937 179.696465 
L 361.271162 181.362112 
L 362.390007 180.251889 
L 362.762955 179.994274 
L 363.135903 180.088982 
L 363.8818 180.843138 
L 364.254748 180.971306 
L 364.627696 180.927535 
L 365.000644 181.047529 
L 365.74654 180.61854 
L 367.238333 180.636383 
L 367.611281 181.051414 
L 368.357178 181.231329 
L 368.730126 181.273662 
L 369.476022 180.563742 
L 369.84897 180.477482 
L 371.340763 181.151836 
L 372.086659 180.417341 
L 372.832556 180.320334 
L 373.205504 180.582299 
L 373.578452 181.228155 
L 373.9514 181.500795 
L 374.697297 181.199208 
L 375.070245 181.265001 
L 375.816141 180.489722 
L 376.562037 180.966194 
L 378.05383 181.119299 
L 378.426778 180.580179 
L 378.799726 180.500337 
L 379.545623 181.373258 
L 380.291519 181.597105 
L 380.664467 181.353439 
L 381.410364 180.186703 
L 382.529208 180.317366 
L 383.275105 180.822603 
L 384.393949 182.105831 
L 384.766897 182.187334 
L 385.139845 181.692883 
L 385.885742 180.21553 
L 386.25869 180.039273 
L 386.631638 180.059257 
L 387.377534 180.987257 
L 387.750483 181.126241 
L 388.496379 180.70186 
L 389.242275 180.655514 
L 389.988172 181.459897 
L 390.36112 181.623612 
L 391.107016 181.413374 
L 391.852913 180.507744 
L 392.598809 180.753792 
L 392.971757 180.842182 
L 393.717653 181.275311 
L 394.46355 181.137163 
L 395.209446 181.480183 
L 395.955342 180.903586 
L 396.701239 180.135226 
L 397.074187 180.121103 
L 398.56598 182.071096 
L 398.938928 181.942399 
L 399.684824 181.240857 
L 400.057772 180.745535 
L 400.803669 179.542455 
L 401.176617 179.471056 
L 401.549565 179.671247 
L 402.66841 182.152803 
L 403.041358 182.305308 
L 403.414306 181.927213 
L 404.53315 180.295532 
L 404.906099 180.19059 
L 405.651995 180.958574 
L 406.397891 181.699166 
L 406.770839 181.599833 
L 407.516736 180.793406 
L 407.889684 180.437775 
L 408.262632 180.3221 
L 409.381477 181.228231 
L 410.127373 181.226836 
L 410.873269 180.529328 
L 411.246218 180.435849 
L 412.365062 180.862993 
L 412.73801 181.003775 
L 413.110958 180.94254 
L 413.856855 180.480628 
L 414.229803 180.549824 
L 414.975699 181.148107 
L 415.348647 181.394217 
L 416.094544 181.483083 
L 416.84044 181.388174 
L 417.213388 181.410767 
L 417.959285 180.795517 
L 418.332233 180.425176 
L 419.078129 180.093114 
L 419.451077 180.08705 
L 420.196974 180.611901 
L 421.315818 181.486789 
L 421.688766 181.390428 
L 422.807611 180.16793 
L 423.180559 180.138967 
L 424.299404 180.485566 
L 424.672352 180.445639 
L 425.418248 179.816083 
L 425.791196 179.404192 
L 426.910041 177.753481 
L 427.282989 178.088466 
L 428.028885 179.503471 
L 428.401834 180.266677 
L 428.774782 180.511894 
L 430.266574 178.255123 
L 430.639523 178.336774 
L 431.758367 179.673872 
L 432.504263 179.496357 
L 432.877212 179.273309 
L 432.877212 179.273309 
" clip-path="url(#p2a36c168dc)" style="fill: none; stroke: #256676; stroke-width: 1.5; stroke-linecap: square"/>
   </g>
   <g id="patch_7">
    <path d="M 56.516563 343.958437 
L 56.516563 17.798437 
" style="fill: none; stroke: #000000; stroke-width: 0.8; stroke-linejoin: miter; stroke-linecap: square"/>
   </g>
   <g id="patch_8">
    <path d="M 451.580562 343.958437 
L 451.580562 17.798437 
" style="fill: none; stroke: #000000; stroke-width: 0.8; stroke-linejoin: miter; stroke-linecap: square"/>
   </g>
   <g id="patch_9">
    <path d="M 56.516563 343.958437 
L 451.580562 343.958437 
" style="fill: none; stroke: #000000; stroke-width: 0.8; stroke-linejoin: miter; stroke-linecap: square"/>
   </g>
   <g id="patch_10">
    <path d="M 56.516563 17.798437 
L 451.580562 17.798437 
" style="fill: none; stroke: #000000; stroke-width: 0.8; stroke-linejoin: miter; stroke-linecap: square"/>
   </g>
  </g>
 </g>
 <defs>
  <clipPath id="p2a36c168dc">
   <rect x="56.516563" y="17.798437" width="395.064" height="326.16"/>
  </clipPath>
 </defs>
</svg>
