<svg id="Layer_1" data-name="Layer 1" xmlns="http://www.w3.org/2000/svg" xmlns:xlink="http://www.w3.org/1999/xlink" width="2.72in" height="2.4in" viewBox="0 0 195.61 172.55"><defs><style>.cls-1,.cls-11,.cls-12,.cls-15,.cls-28,.cls-3,.cls-45,.cls-5,.cls-7,.cls-8,.cls-9{fill:none;}.cls-2{fill:#f2f2f2;}.cls-2,.cls-3,.cls-4,.cls-5,.cls-6,.cls-7{opacity:0.5;}.cls-3{stroke:#f2f2f2;}.cls-3,.cls-5,.cls-7{stroke-miterlimit:10;}.cls-4{fill:#e6e6e6;}.cls-5{stroke:#e6e6e6;}.cls-6{fill:#ececec;}.cls-7{stroke:#ececec;}.cls-45,.cls-8{stroke:#000;}.cls-11,.cls-12,.cls-8{stroke-linecap:square;}.cls-11,.cls-12,.cls-15,.cls-28,.cls-45,.cls-8,.cls-9{stroke-linejoin:round;}.cls-8,.cls-9{stroke-width:0.8px;}.cls-9{stroke:#b0b0b0;}.cls-10{clip-path:url(#clip-path);}.cls-11,.cls-15{stroke:#001282;}.cls-11,.cls-12{stroke-width:1.5px;}.cls-12,.cls-28{stroke:#99004d;}.cls-13{clip-path:url(#clip-path-29);}.cls-14{fill:#001282;}.cls-16{clip-path:url(#clip-path-30);}.cls-17{clip-path:url(#clip-path-31);}.cls-18{clip-path:url(#clip-path-32);}.cls-19{clip-path:url(#clip-path-33);}.cls-20{clip-path:url(#clip-path-34);}.cls-21{clip-path:url(#clip-path-35);}.cls-22{clip-path:url(#clip-path-36);}.cls-23{clip-path:url(#clip-path-37);}.cls-24{clip-path:url(#clip-path-38);}.cls-25{clip-path:url(#clip-path-39);}.cls-26{clip-path:url(#clip-path-41);}.cls-27{fill:#99004d;}.cls-29{clip-path:url(#clip-path-42);}.cls-30{clip-path:url(#clip-path-43);}.cls-31{clip-path:url(#clip-path-44);}.cls-32{clip-path:url(#clip-path-45);}.cls-33{clip-path:url(#clip-path-46);}.cls-34{clip-path:url(#clip-path-47);}.cls-35{clip-path:url(#clip-path-48);}.cls-36{clip-path:url(#clip-path-49);}.cls-37{clip-path:url(#clip-path-50);}.cls-38{clip-path:url(#clip-path-51);}.cls-39{clip-path:url(#clip-path-52);}.cls-40{clip-path:url(#clip-path-53);}.cls-41{clip-path:url(#clip-path-54);}.cls-42{clip-path:url(#clip-path-55);}.cls-43{clip-path:url(#clip-path-56);}.cls-44{fill:#717171;}.cls-44,.cls-45{opacity:0.3;}</style><clipPath id="clip-path" transform="translate(-11.52 -18.85)"><rect class="cls-1" x="7.2" y="7.2" width="163.08" height="163.08"/></clipPath><clipPath id="clip-path-29" transform="translate(-11.52 -18.85)"><rect class="cls-1" x="74.9" y="68.06" width="13" height="13"/></clipPath><clipPath id="clip-path-30" transform="translate(-11.52 -18.85)"><rect class="cls-1" x="82.81" y="49.09" width="13" height="13"/></clipPath><clipPath id="clip-path-31" transform="translate(-11.52 -18.85)"><rect class="cls-1" x="64.87" y="88.19" width="13" height="13"/></clipPath><clipPath id="clip-path-32" transform="translate(-11.52 -18.85)"><rect class="cls-1" x="64.88" y="89.29" width="13" height="13"/></clipPath><clipPath id="clip-path-33" transform="translate(-11.52 -18.85)"><rect class="cls-1" x="64.91" y="91.17" width="13" height="13"/></clipPath><clipPath id="clip-path-34" transform="translate(-11.52 -18.85)"><rect class="cls-1" x="98.24" y="97" width="13" height="13"/></clipPath><clipPath id="clip-path-35" transform="translate(-11.52 -18.85)"><rect class="cls-1" x="98.24" y="97.5" width="13" height="13"/></clipPath><clipPath id="clip-path-36" transform="translate(-11.52 -18.85)"><rect class="cls-1" x="98.25" y="95.97" width="13" height="13"/></clipPath><clipPath id="clip-path-37" transform="translate(-11.52 -18.85)"><rect class="cls-1" x="53.04" y="101.85" width="13" height="13"/></clipPath><clipPath id="clip-path-38" transform="translate(-11.52 -18.85)"><rect class="cls-1" x="42.67" y="105.5" width="13" height="13"/></clipPath><clipPath id="clip-path-39" transform="translate(-11.52 -18.85)"><rect class="cls-1" x="42.76" y="108.81" width="13" height="13"/></clipPath><clipPath id="clip-path-41" transform="translate(-11.52 -18.85)"><rect class="cls-1" x="74.85" y="60.19" width="13" height="13"/></clipPath><clipPath id="clip-path-42" transform="translate(-11.52 -18.85)"><rect class="cls-1" x="74.86" y="62.34" width="13" height="13"/></clipPath><clipPath id="clip-path-43" transform="translate(-11.52 -18.85)"><rect class="cls-1" x="82.81" y="41.3" width="13" height="13"/></clipPath><clipPath id="clip-path-44" transform="translate(-11.52 -18.85)"><rect class="cls-1" x="64.85" y="86.99" width="13" height="13"/></clipPath><clipPath id="clip-path-45" transform="translate(-11.52 -18.85)"><rect class="cls-1" x="64.85" y="86.48" width="13" height="13"/></clipPath><clipPath id="clip-path-46" transform="translate(-11.52 -18.85)"><rect class="cls-1" x="64.83" y="85.44" width="13" height="13"/></clipPath><clipPath id="clip-path-47" transform="translate(-11.52 -18.85)"><rect class="cls-1" x="80.84" y="88.94" width="13" height="13"/></clipPath><clipPath id="clip-path-48" transform="translate(-11.52 -18.85)"><rect class="cls-1" x="80.84" y="90.08" width="13" height="13"/></clipPath><clipPath id="clip-path-49" transform="translate(-11.52 -18.85)"><rect class="cls-1" x="80.84" y="90.66" width="13" height="13"/></clipPath><clipPath id="clip-path-50" transform="translate(-11.52 -18.85)"><rect class="cls-1" x="52.78" y="89.61" width="13" height="13"/></clipPath><clipPath id="clip-path-51" transform="translate(-11.52 -18.85)"><rect class="cls-1" x="42.6" y="103.22" width="13" height="13"/></clipPath><clipPath id="clip-path-52" transform="translate(-11.52 -18.85)"><rect class="cls-1" x="55.62" y="92.9" width="13" height="13"/></clipPath><clipPath id="clip-path-53" transform="translate(-11.52 -18.85)"><rect class="cls-1" x="55.61" y="92.32" width="13" height="13"/></clipPath><clipPath id="clip-path-54" transform="translate(-11.52 -18.85)"><rect class="cls-1" x="45.3" y="99.96" width="13" height="13"/></clipPath><clipPath id="clip-path-55" transform="translate(-11.52 -18.85)"><rect class="cls-1" x="45.19" y="95.78" width="13" height="13"/></clipPath><clipPath id="clip-path-56" transform="translate(-11.52 -18.85)"><rect class="cls-1" x="45.31" y="100.31" width="13" height="13"/></clipPath></defs><polyline class="cls-2" points="7.99 111.22 61.85 66.08 61.1 0.98 4.67 42.16"/><polyline class="cls-3" points="7.99 111.22 61.85 66.08 61.1 0.98 4.67 42.16"/><polyline class="cls-4" points="61.85 66.08 148.26 91.2 151.35 23.85 61.1 0.98"/><polyline class="cls-5" points="61.85 66.08 148.26 91.2 151.35 23.85 61.1 0.98"/><polyline class="cls-6" points="7.99 111.22 99.6 141.14 148.26 91.2 61.85 66.08"/><polyline class="cls-7" points="7.99 111.22 99.6 141.14 148.26 91.2 61.85 66.08"/><line class="cls-8" x1="7.99" y1="111.22" x2="99.6" y2="141.14"/><path d="M30.23,177l0,.05a.12.12,0,0,1-.09,0H30l-.19-.06-.19-.07-.12-.07,0-.06a.15.15,0,0,1,0-.07l1.71-5.24h0L27.29,176a.12.12,0,0,1-.05.05H27l-.17-.05L26.7,176l-.11-.07a.17.17,0,0,1-.06-.06.14.14,0,0,1,0-.06l-.3-5.92h0l-1.71,5.23a.07.07,0,0,1,0,.06s0,0-.08,0h-.13l-.2,0-.19-.07-.11-.07a.15.15,0,0,1,0-.07v-.07l1.81-5.52a.39.39,0,0,1,.19-.25.39.39,0,0,1,.26,0l.49.16a1.27,1.27,0,0,1,.26.11.61.61,0,0,1,.17.15.72.72,0,0,1,.09.2l0,.25.29,4.91h0l3.2-3.75a1.23,1.23,0,0,1,.19-.2.58.58,0,0,1,.18-.11.44.44,0,0,1,.19,0,.6.6,0,0,1,.22,0l.51.17a.52.52,0,0,1,.13.06.28.28,0,0,1,.09.1.32.32,0,0,1,0,.14.35.35,0,0,1,0,.17Z" transform="translate(-11.52 -18.85)"/><path d="M36.53,174.6a.72.72,0,0,1-.12.22.15.15,0,0,1-.14,0l-.6-.2a1.06,1.06,0,0,1,.11.45,1.36,1.36,0,0,1-.08.44,1.71,1.71,0,0,1-.32.6,1.48,1.48,0,0,1-.49.37,1.51,1.51,0,0,1-.61.12,1.91,1.91,0,0,1-.69-.11,1.8,1.8,0,0,1-.46-.23,1,1,0,0,1-.3-.28.72.72,0,0,0-.2.14.58.58,0,0,0-.13.23.32.32,0,0,0,.06.32.75.75,0,0,0,.36.25l1.08.4a2.27,2.27,0,0,1,.54.27,1.49,1.49,0,0,1,.38.37,1,1,0,0,1,.18.44,1.05,1.05,0,0,1-.05.52,1.32,1.32,0,0,1-.3.51,1.26,1.26,0,0,1-.52.33,1.81,1.81,0,0,1-.73.11,3.33,3.33,0,0,1-1-.19,4.11,4.11,0,0,1-.83-.36,2.06,2.06,0,0,1-.51-.43.91.91,0,0,1-.21-.46,1.12,1.12,0,0,1,0-.48,1.55,1.55,0,0,1,.14-.29,1.07,1.07,0,0,1,.2-.23,1.31,1.31,0,0,1,.27-.19l.34-.15a1,1,0,0,1-.24-.4.75.75,0,0,1,0-.42,1.11,1.11,0,0,1,.28-.47,1.73,1.73,0,0,1,.41-.3,1.8,1.8,0,0,1-.1-.46,1.66,1.66,0,0,1,.09-.55,1.73,1.73,0,0,1,.33-.6,1.44,1.44,0,0,1,.49-.37,1.55,1.55,0,0,1,.61-.13,1.91,1.91,0,0,1,.69.11l.35.13a2.69,2.69,0,0,1,.29.16l1.26.41a.14.14,0,0,1,.09.12A.62.62,0,0,1,36.53,174.6Zm-2.26,4.14a.51.51,0,0,0-.08-.49,1.28,1.28,0,0,0-.55-.35l-1.07-.39a2.33,2.33,0,0,0-.31.14,1.39,1.39,0,0,0-.22.15,1,1,0,0,0-.14.17.75.75,0,0,0-.08.18.52.52,0,0,0,.16.56,2,2,0,0,0,.8.43,1.87,1.87,0,0,0,.6.12,1.16,1.16,0,0,0,.44,0,.67.67,0,0,0,.29-.19A.78.78,0,0,0,34.27,178.74Zm.7-3.43a1,1,0,0,0,0-.75.91.91,0,0,0-.59-.45,1,1,0,0,0-.41-.06,1,1,0,0,0-.34.12.85.85,0,0,0-.26.24,1.54,1.54,0,0,0-.17.34,1,1,0,0,0,0,.73.94.94,0,0,0,.58.45,1.09,1.09,0,0,0,.42.06.76.76,0,0,0,.34-.11.85.85,0,0,0,.26-.24A1.29,1.29,0,0,0,35,175.31Z" transform="translate(-11.52 -18.85)"/><path d="M42.29,177.62a4.92,4.92,0,0,1-.6,1.26,2.88,2.88,0,0,1-.84.83,2.51,2.51,0,0,1-1.06.35,3.59,3.59,0,0,1-2.38-.76,2.12,2.12,0,0,1-.62-.85,2.52,2.52,0,0,1-.17-1.12,5.27,5.27,0,0,1,.27-1.36,4.6,4.6,0,0,1,.59-1.24,2.69,2.69,0,0,1,.84-.81,2.3,2.3,0,0,1,1.06-.35,3.13,3.13,0,0,1,1.28.17,3.41,3.41,0,0,1,1.09.58,2.28,2.28,0,0,1,.63.85,2.6,2.6,0,0,1,.17,1.11A4.71,4.71,0,0,1,42.29,177.62Zm-.86-.22a5.45,5.45,0,0,0,.22-1,2.42,2.42,0,0,0,0-.86,1.61,1.61,0,0,0-.4-.69,2.1,2.1,0,0,0-.81-.46,1.75,1.75,0,0,0-.94-.09,1.61,1.61,0,0,0-.74.33,2.31,2.31,0,0,0-.57.66,5.44,5.44,0,0,0-.39.88,5.92,5.92,0,0,0-.23,1,2.25,2.25,0,0,0,0,.87,1.55,1.55,0,0,0,.39.68,2.08,2.08,0,0,0,.82.47,2,2,0,0,0,.95.09,1.62,1.62,0,0,0,.74-.34,2.35,2.35,0,0,0,.57-.67A5.56,5.56,0,0,0,41.43,177.4Z" transform="translate(-11.52 -18.85)"/><path d="M48.29,175.9A9,9,0,0,0,47,177.6a9.25,9.25,0,0,0-.86,1.9,9.59,9.59,0,0,0-.43,2.05,10.22,10.22,0,0,0,0,2.14.31.31,0,0,1,0,.1.06.06,0,0,1,0,.05.2.2,0,0,1-.11,0l-.19,0-.14-.05-.1-.05a.17.17,0,0,1-.06-.06.09.09,0,0,1,0-.06,10.3,10.3,0,0,1-.13-1.1,8.46,8.46,0,0,1,.14-2.17,10.12,10.12,0,0,1,.27-1.05,8.35,8.35,0,0,1,.41-1,8.78,8.78,0,0,1,.54-.94,9.57,9.57,0,0,1,.64-.89c.24-.28.49-.56.75-.83,0,0,0,0,0,0h.18l.17.05.17.07a.35.35,0,0,1,.09.07.12.12,0,0,1,0,.08A.25.25,0,0,1,48.29,175.9Z" transform="translate(-11.52 -18.85)"/><path d="M54.74,180.32s0,.05,0,.08l-.07.11-2.53,3.56a.16.16,0,0,1-.07.07.17.17,0,0,1-.1,0l-.15,0a.9.9,0,0,1-.24-.07l-.24-.08-.14-.08a.17.17,0,0,1-.07-.08.29.29,0,0,1,0-.09l.11-3.32v0l0,0-1.81,2.77a.23.23,0,0,1-.07.07l-.1,0-.17,0-.24-.07-.23-.08-.14-.08a.27.27,0,0,1-.07-.08.25.25,0,0,1,0-.09l.07-4.37c0-.05,0-.09,0-.12a.24.24,0,0,1,0-.09s0,0,0-.06l.07,0,.13,0,.18.05.21.08.11.06a.18.18,0,0,1,0,.07v.08l-.11,3.77v.05l0,0,2-3.14a.17.17,0,0,1,.06-.06.1.1,0,0,1,.08,0h.12l.19.06a.75.75,0,0,1,.18.07l.1.05a.23.23,0,0,1,.05.07.17.17,0,0,1,0,.07l-.13,3.78v.05l0,0L54,180.09A.1.1,0,0,1,54,180a.11.11,0,0,1,.08,0,.34.34,0,0,1,.13,0l.2,0,.18.07.1.05,0,.06A.17.17,0,0,1,54.74,180.32Z" transform="translate(-11.52 -18.85)"/><path d="M56.6,185.23a1,1,0,0,1-.09.2.3.3,0,0,1-.09.1.29.29,0,0,1-.14,0H56.1l-.22,0-.21-.05a1.75,1.75,0,0,1-.53-.27.94.94,0,0,1-.3-.39,1.17,1.17,0,0,1-.07-.51,2.54,2.54,0,0,1,.14-.65l.8-2.44-.59-.19a.13.13,0,0,1-.09-.11.55.55,0,0,1,0-.26,1,1,0,0,1,.06-.14.35.35,0,0,1,.06-.09.13.13,0,0,1,.07,0h.07l.58.19.33-1s0,0,0-.06l.08,0h.13l.19.06a.61.61,0,0,1,.18.07.23.23,0,0,1,.11.07s0,0,0,.06a.08.08,0,0,1,0,.07l-.32,1,1.07.35.06,0s0,0,0,.07a.4.4,0,0,1,0,.11,1.13,1.13,0,0,1,0,.15.59.59,0,0,1-.12.23.16.16,0,0,1-.14,0l-1.07-.35-.76,2.33a1.55,1.55,0,0,0-.09.69.67.67,0,0,0,.59.41h.37l.05,0a.11.11,0,0,1,0,.06v.09S56.62,185.17,56.6,185.23Z" transform="translate(-11.52 -18.85)"/><path d="M58.63,185.8a.68.68,0,0,1-.25.4.62.62,0,0,1-.44,0,.57.57,0,0,1-.35-.24.69.69,0,0,1,0-.46c.08-.22.16-.35.26-.4a.59.59,0,0,1,.43,0,.58.58,0,0,1,.35.23A.66.66,0,0,1,58.63,185.8Z" transform="translate(-11.52 -18.85)"/><path d="M62.91,187.79a.18.18,0,0,1-.08.05h-.21l-.16-.05a.84.84,0,0,1-.16-.07.17.17,0,0,1-.07-.08.11.11,0,0,1,0-.08l.08-.08,6.13-4.62.08-.05h.09l.12,0,.16,0a.48.48,0,0,1,.16.07.13.13,0,0,1,.07.08.11.11,0,0,1,0,.08.32.32,0,0,1-.08.09Zm2.8-4.13a3.07,3.07,0,0,1-.29.63,1.37,1.37,0,0,1-.41.42,1.26,1.26,0,0,1-.51.19,1.38,1.38,0,0,1-.62-.08,1.5,1.5,0,0,1-.55-.29,1,1,0,0,1-.29-.44,1.49,1.49,0,0,1-.07-.57,3.37,3.37,0,0,1,.15-.68,2.08,2.08,0,0,1,.28-.6,1.32,1.32,0,0,1,.39-.42,1.23,1.23,0,0,1,.52-.2,1.57,1.57,0,0,1,1.2.4,1.12,1.12,0,0,1,.29.46,1.52,1.52,0,0,1,0,.57A2.78,2.78,0,0,1,65.71,183.66Zm-.66-.18a2.79,2.79,0,0,0,.12-.48,1.48,1.48,0,0,0,0-.37.5.5,0,0,0-.14-.27.56.56,0,0,0-.27-.16.53.53,0,0,0-.3,0,.57.57,0,0,0-.27.13,1.08,1.08,0,0,0-.21.28,2.63,2.63,0,0,0-.19.44,3.24,3.24,0,0,0-.13.55,1.07,1.07,0,0,0,0,.37.49.49,0,0,0,.15.24.72.72,0,0,0,.26.14.65.65,0,0,0,.33,0,.6.6,0,0,0,.26-.14,1.94,1.94,0,0,0,.21-.3A3,3,0,0,0,65.05,183.48Zm3.22,4.34a3.07,3.07,0,0,1-.29.63,1.37,1.37,0,0,1-.41.42,1.26,1.26,0,0,1-.51.19,1.38,1.38,0,0,1-.62-.08,1.5,1.5,0,0,1-.55-.29,1.06,1.06,0,0,1-.29-.44,1.49,1.49,0,0,1-.07-.57,3.23,3.23,0,0,1,.15-.68,2.08,2.08,0,0,1,.28-.6,1.35,1.35,0,0,1,.4-.42,1.14,1.14,0,0,1,.51-.2,1.57,1.57,0,0,1,1.2.4,1.19,1.19,0,0,1,.29.46,1.52,1.52,0,0,1,0,.57A2.78,2.78,0,0,1,68.27,187.82Zm-.66-.18a2.79,2.79,0,0,0,.12-.48,1.48,1.48,0,0,0,0-.37.57.57,0,0,0-.13-.27.64.64,0,0,0-.28-.16.53.53,0,0,0-.3,0,.5.5,0,0,0-.26.13.91.91,0,0,0-.22.28,2.63,2.63,0,0,0-.19.44,3.24,3.24,0,0,0-.13.55,1.07,1.07,0,0,0,0,.37.49.49,0,0,0,.15.24.72.72,0,0,0,.26.14.66.66,0,0,0,.33,0,.54.54,0,0,0,.26-.15,1.14,1.14,0,0,0,.21-.29A3,3,0,0,0,67.61,187.64Z" transform="translate(-11.52 -18.85)"/><path d="M71.18,187.7a8.16,8.16,0,0,1-.4,1,8,8,0,0,1-.53.95,9.08,9.08,0,0,1-.64.89,9.47,9.47,0,0,1-.75.81l-.06,0h-.08l-.11,0-.14,0-.19-.07a.3.3,0,0,1-.08-.07.08.08,0,0,1,0-.08l.06-.08a10,10,0,0,0,1.27-1.71,9.09,9.09,0,0,0,.86-1.91,9.56,9.56,0,0,0,.4-4.17.25.25,0,0,1,0-.09.07.07,0,0,1,.06,0H71l.18,0,.16.06.09.06a.12.12,0,0,1,0,0,.05.05,0,0,1,0,0,10.86,10.86,0,0,1,.11,2.2A8.25,8.25,0,0,1,71.18,187.7Z" transform="translate(-11.52 -18.85)"/><polyline class="cls-9" points="9.73 111.79 63.49 66.56 62.82 1.41"/><polyline class="cls-9" points="26.62 117.3 79.48 71.2 79.48 5.63"/><polyline class="cls-9" points="43.84 122.93 95.76 75.94 96.47 9.94"/><polyline class="cls-9" points="61.42 128.67 112.34 80.75 113.79 14.33"/><polyline class="cls-9" points="79.36 134.53 129.24 85.67 131.44 18.81"/><polyline class="cls-9" points="97.67 140.51 146.45 90.67 149.45 23.37"/><line class="cls-8" x1="10.2" y1="111.39" x2="8.79" y2="112.58"/><path d="M15.89,150a7.66,7.66,0,0,1-.11,1.32,3.36,3.36,0,0,1-.38,1,1.85,1.85,0,0,1-.7.66,2.16,2.16,0,0,1-1.06.24,2.15,2.15,0,0,1-1-.21,1.64,1.64,0,0,1-.66-.62,2.92,2.92,0,0,1-.35-1,8.08,8.08,0,0,1-.11-1.39,6.74,6.74,0,0,1,.12-1.32,3.12,3.12,0,0,1,.38-1,1.82,1.82,0,0,1,.69-.66,2.16,2.16,0,0,1,1.06-.24,2.22,2.22,0,0,1,1,.21,1.58,1.58,0,0,1,.65.63,2.8,2.8,0,0,1,.36,1A8.16,8.16,0,0,1,15.89,150ZM15,150c0-.31,0-.59,0-.85s-.06-.47-.1-.66a2.65,2.65,0,0,0-.17-.5,1.5,1.5,0,0,0-.25-.34.88.88,0,0,0-.34-.19,1.37,1.37,0,0,0-.42-.06,1.12,1.12,0,0,0-.68.19,1.32,1.32,0,0,0-.4.54,2.92,2.92,0,0,0-.21.8c0,.31,0,.63,0,1a8.24,8.24,0,0,0,.07,1.2,2.59,2.59,0,0,0,.24.81,1,1,0,0,0,.4.45,1.13,1.13,0,0,0,.6.14,1.42,1.42,0,0,0,.48-.08,1,1,0,0,0,.36-.26,1.17,1.17,0,0,0,.24-.39,2.35,2.35,0,0,0,.16-.51,3.49,3.49,0,0,0,.08-.6C15,150.48,15,150.26,15,150Z" transform="translate(-11.52 -18.85)"/><line class="cls-8" x1="27.08" y1="116.9" x2="25.7" y2="118.11"/><path d="M30.08,158.51a.7.7,0,0,1,0,.16.23.23,0,0,1,0,.1.1.1,0,0,1-.05.06l-.07,0H26.6l-.06,0-.06-.06a.23.23,0,0,1,0-.1.76.76,0,0,1,0-.16.66.66,0,0,1,0-.15.23.23,0,0,1,0-.1.18.18,0,0,1,.05-.07l.07,0h1.32v-4.8l-1.22.72a.29.29,0,0,1-.15.06.09.09,0,0,1-.09,0,.23.23,0,0,1-.05-.1c0-.05,0-.11,0-.19a.57.57,0,0,1,0-.14.3.3,0,0,1,0-.1.16.16,0,0,1,0-.07l.07-.06,1.46-.93.05,0,.07,0h.44l.13,0,.06,0s0,0,0,.06v5.55H29.9l.08,0a.18.18,0,0,1,.05.07.23.23,0,0,1,0,.1S30.08,158.45,30.08,158.51Z" transform="translate(-11.52 -18.85)"/><path d="M35.34,155.67a7.69,7.69,0,0,1-.11,1.33,3.29,3.29,0,0,1-.38,1,1.87,1.87,0,0,1-.7.67,2.47,2.47,0,0,1-2.06,0,1.73,1.73,0,0,1-.66-.63,2.79,2.79,0,0,1-.35-1A8.25,8.25,0,0,1,31,155.7a6.92,6.92,0,0,1,.12-1.33,3.06,3.06,0,0,1,.38-1,1.92,1.92,0,0,1,.69-.67,2.16,2.16,0,0,1,1.06-.24,2.22,2.22,0,0,1,1,.22,1.61,1.61,0,0,1,.65.62,2.92,2.92,0,0,1,.36,1A8.11,8.11,0,0,1,35.34,155.67Zm-.86.06c0-.32,0-.6,0-.85a5.15,5.15,0,0,0-.1-.66,2.43,2.43,0,0,0-.17-.5,1.3,1.3,0,0,0-.25-.34.9.9,0,0,0-.34-.2,1.33,1.33,0,0,0-.42-.06,1.07,1.07,0,0,0-.67.2,1.26,1.26,0,0,0-.41.54,2.82,2.82,0,0,0-.21.8c0,.3-.05.63-.05,1a10.13,10.13,0,0,0,.07,1.21,2.45,2.45,0,0,0,.24.8,1.07,1.07,0,0,0,.4.46,1.27,1.27,0,0,0,.6.14,1.21,1.21,0,0,0,.48-.09,1,1,0,0,0,.36-.25,1.28,1.28,0,0,0,.24-.39,2.76,2.76,0,0,0,.16-.51,3.78,3.78,0,0,0,.08-.6C34.48,156.19,34.48,156,34.48,155.73Z" transform="translate(-11.52 -18.85)"/><line class="cls-8" x1="44.3" y1="122.52" x2="42.94" y2="123.75"/><path d="M47.32,164.31a.71.71,0,0,1,0,.15.34.34,0,0,1,0,.12.13.13,0,0,1-.06.07l-.08,0H43.64l-.12,0a.16.16,0,0,1-.08-.06.17.17,0,0,1-.06-.11.9.9,0,0,1,0-.18c0-.06,0-.12,0-.17l0-.13.07-.11a.53.53,0,0,1,.1-.12l1.26-1.3a8.63,8.63,0,0,0,.7-.81,4.19,4.19,0,0,0,.41-.64,2.52,2.52,0,0,0,.19-.54,2.42,2.42,0,0,0,0-.45,1,1,0,0,0-.07-.39.91.91,0,0,0-.2-.33.93.93,0,0,0-.34-.23,1.3,1.3,0,0,0-.46-.08,1.82,1.82,0,0,0-.55.08,3.73,3.73,0,0,0-.43.18l-.31.18a.36.36,0,0,1-.18.09l-.07,0a.43.43,0,0,1,0-.07l0-.11c0-.05,0-.11,0-.18a.53.53,0,0,1,0-.13s0-.06,0-.09a.16.16,0,0,1,0-.07.24.24,0,0,1,.07-.09l.21-.14a2,2,0,0,1,.36-.17,2.09,2.09,0,0,1,.48-.14,2.38,2.38,0,0,1,.55-.06,2.2,2.2,0,0,1,.8.13,1.49,1.49,0,0,1,.57.35,1.51,1.51,0,0,1,.34.52,1.91,1.91,0,0,1,.11.64,4,4,0,0,1-.05.6,2.43,2.43,0,0,1-.23.65,4.72,4.72,0,0,1-.5.78,12.64,12.64,0,0,1-.87,1l-1,1h2.75a.13.13,0,0,1,.08,0l.06.06a.36.36,0,0,1,0,.11A.81.81,0,0,1,47.32,164.31Z" transform="translate(-11.52 -18.85)"/><path d="M52.6,161.49a6.78,6.78,0,0,1-.12,1.33,2.92,2.92,0,0,1-.38,1,1.82,1.82,0,0,1-.69.66,2.16,2.16,0,0,1-1.06.24,2.22,2.22,0,0,1-1-.21,1.58,1.58,0,0,1-.65-.63,2.8,2.8,0,0,1-.36-1,8.24,8.24,0,0,1-.1-1.39,6.74,6.74,0,0,1,.12-1.32,2.92,2.92,0,0,1,.38-1,1.78,1.78,0,0,1,.69-.67,2.26,2.26,0,0,1,1-.23,2.19,2.19,0,0,1,1,.21,1.7,1.7,0,0,1,.66.62,2.92,2.92,0,0,1,.35,1A8,8,0,0,1,52.6,161.49Zm-.86.06a7.35,7.35,0,0,0,0-.85,3.84,3.84,0,0,0-.1-.66,2.09,2.09,0,0,0-.17-.5,1.11,1.11,0,0,0-.25-.34.92.92,0,0,0-.33-.19,1.42,1.42,0,0,0-.42-.07,1.1,1.1,0,0,0-.68.2,1.34,1.34,0,0,0-.41.54,2.83,2.83,0,0,0-.2.8c0,.3,0,.63,0,1a8.3,8.3,0,0,0,.07,1.21,2.91,2.91,0,0,0,.23.81,1.06,1.06,0,0,0,.41.45,1.11,1.11,0,0,0,.6.14,1.21,1.21,0,0,0,.48-.09.87.87,0,0,0,.35-.25,1.3,1.3,0,0,0,.25-.39,3.07,3.07,0,0,0,.16-.51,5.13,5.13,0,0,0,.08-.6C51.73,162,51.74,161.79,51.74,161.55Z" transform="translate(-11.52 -18.85)"/><line class="cls-8" x1="61.87" y1="128.25" x2="60.53" y2="129.51"/><path d="M64.88,168.8a2,2,0,0,1-.15.79,1.61,1.61,0,0,1-.44.59,1.86,1.86,0,0,1-.69.39,3.05,3.05,0,0,1-.94.13,2.76,2.76,0,0,1-.59,0,2.7,2.7,0,0,1-.49-.12,2.18,2.18,0,0,1-.36-.15.84.84,0,0,1-.18-.11L61,170.2l0-.08a.37.37,0,0,1,0-.12.86.86,0,0,1,0-.17.51.51,0,0,1,0-.25.1.1,0,0,1,.1-.06.39.39,0,0,1,.17.07,2.68,2.68,0,0,0,.34.17,4,4,0,0,0,.49.17,2.39,2.39,0,0,0,.62.08,2,2,0,0,0,.58-.08,1.22,1.22,0,0,0,.42-.24,1,1,0,0,0,.26-.36,1.33,1.33,0,0,0,.08-.45,1,1,0,0,0-.11-.48,1,1,0,0,0-.31-.37,1.39,1.39,0,0,0-.52-.24,2.4,2.4,0,0,0-.69-.09h-.7a.13.13,0,0,1-.07-.06.3.3,0,0,1,0-.1.72.72,0,0,1,0-.17.61.61,0,0,1,0-.15.15.15,0,0,1,0-.1.1.1,0,0,1,.06-.05l.08,0h.55a2.08,2.08,0,0,0,.58-.08,1.37,1.37,0,0,0,.43-.24,1,1,0,0,0,.27-.38,1.06,1.06,0,0,0,.1-.48,1.21,1.21,0,0,0-.06-.38,1.23,1.23,0,0,0-.19-.31,1.08,1.08,0,0,0-.33-.2,1.26,1.26,0,0,0-.46-.08,1.5,1.5,0,0,0-.52.09,2.65,2.65,0,0,0-.42.18l-.31.18a.34.34,0,0,1-.17.09h-.06a.1.1,0,0,1,0,0l0-.1V165a.3.3,0,0,1,0-.1.25.25,0,0,1,0-.07l.06-.08a1,1,0,0,1,.19-.14l.35-.17a2.74,2.74,0,0,1,.48-.14,2.65,2.65,0,0,1,.58-.06,2.55,2.55,0,0,1,.77.11,1.61,1.61,0,0,1,.56.32,1.41,1.41,0,0,1,.33.49,1.81,1.81,0,0,1,.11.63,1.92,1.92,0,0,1-.08.55,1.33,1.33,0,0,1-.23.46,1.51,1.51,0,0,1-.37.34,1.63,1.63,0,0,1-.51.19h0a1.89,1.89,0,0,1,.6.16,1.8,1.8,0,0,1,.47.33,1.37,1.37,0,0,1,.3.45A1.51,1.51,0,0,1,64.88,168.8Z" transform="translate(-11.52 -18.85)"/><path d="M70.21,167.44a6.74,6.74,0,0,1-.12,1.32,2.92,2.92,0,0,1-.38,1,1.82,1.82,0,0,1-.69.66,2.16,2.16,0,0,1-1.06.24,2.22,2.22,0,0,1-1-.21,1.58,1.58,0,0,1-.65-.63,2.8,2.8,0,0,1-.36-1,8.16,8.16,0,0,1-.1-1.39,6.74,6.74,0,0,1,.12-1.32,2.92,2.92,0,0,1,.38-1,1.75,1.75,0,0,1,.69-.66,2.14,2.14,0,0,1,1-.24,2.19,2.19,0,0,1,1,.21,1.7,1.7,0,0,1,.66.62,2.92,2.92,0,0,1,.35,1A8.08,8.08,0,0,1,70.21,167.44Zm-.86.05a7.46,7.46,0,0,0,0-.85,3.84,3.84,0,0,0-.1-.66,2.09,2.09,0,0,0-.17-.5,1.25,1.25,0,0,0-.25-.34.92.92,0,0,0-.33-.19,1.42,1.42,0,0,0-.42-.06,1.1,1.1,0,0,0-.68.19,1.34,1.34,0,0,0-.41.54,2.93,2.93,0,0,0-.2.8c0,.31,0,.63,0,1a8.24,8.24,0,0,0,.07,1.2,2.91,2.91,0,0,0,.23.81,1,1,0,0,0,.41.45,1.11,1.11,0,0,0,.6.14,1.42,1.42,0,0,0,.48-.08,1.1,1.1,0,0,0,.35-.26,1.38,1.38,0,0,0,.25-.39,3.07,3.07,0,0,0,.16-.51,4.86,4.86,0,0,0,.08-.6C69.34,168,69.35,167.73,69.35,167.49Z" transform="translate(-11.52 -18.85)"/><line class="cls-8" x1="79.79" y1="134.1" x2="78.49" y2="135.38"/><path d="M83.17,174.88a.47.47,0,0,1,0,.25.14.14,0,0,1-.13.09h-.72v1.33a.08.08,0,0,1,0,.07.14.14,0,0,1-.07,0,.23.23,0,0,1-.13,0h-.4a.23.23,0,0,1-.13,0l-.07,0a.14.14,0,0,1,0-.07v-1.33H78.75a.19.19,0,0,1-.07-.06.23.23,0,0,1,0-.11,1,1,0,0,1,0-.19v-.16a.59.59,0,0,1,0-.14.56.56,0,0,1,0-.12l.06-.12L81,170.48l.07-.07a.33.33,0,0,1,.12,0l.19,0h.26l.28,0,.2,0a.23.23,0,0,1,.11,0,.09.09,0,0,1,0,.08v4H83a.16.16,0,0,1,.13.08A.5.5,0,0,1,83.17,174.88Zm-1.74-3.82h0l-2,3.47h2Z" transform="translate(-11.52 -18.85)"/><path d="M88.18,173.5a7.78,7.78,0,0,1-.11,1.33,3.29,3.29,0,0,1-.38,1,1.87,1.87,0,0,1-.7.67,2.42,2.42,0,0,1-2.06,0,1.7,1.7,0,0,1-.66-.62,2.92,2.92,0,0,1-.35-1,8,8,0,0,1-.11-1.38,6.85,6.85,0,0,1,.12-1.33,3.06,3.06,0,0,1,.38-1,1.92,1.92,0,0,1,.69-.67,2.16,2.16,0,0,1,1.06-.24,2.22,2.22,0,0,1,1,.21,1.64,1.64,0,0,1,.65.63,2.8,2.8,0,0,1,.36,1A8.32,8.32,0,0,1,88.18,173.5Zm-.86.06c0-.32,0-.6,0-.85a5.62,5.62,0,0,0-.1-.67,2.54,2.54,0,0,0-.17-.49,1.3,1.3,0,0,0-.25-.34.9.9,0,0,0-.34-.2A1.33,1.33,0,0,0,86,171a1.07,1.07,0,0,0-.67.2,1.22,1.22,0,0,0-.41.53,2.68,2.68,0,0,0-.2.8,7.74,7.74,0,0,0-.06,1,10,10,0,0,0,.07,1.2,2.59,2.59,0,0,0,.24.81,1.07,1.07,0,0,0,.4.46,1.27,1.27,0,0,0,.6.14,1.21,1.21,0,0,0,.48-.09,1,1,0,0,0,.36-.25,1.22,1.22,0,0,0,.24-.4,2.44,2.44,0,0,0,.16-.5,3.75,3.75,0,0,0,.08-.61C87.32,174,87.32,173.79,87.32,173.56Z" transform="translate(-11.52 -18.85)"/><line class="cls-8" x1="98.1" y1="140.07" x2="96.81" y2="141.38"/><path d="M101.22,180.83a2.21,2.21,0,0,1-.17.91,1.76,1.76,0,0,1-.48.66,2.34,2.34,0,0,1-.74.42,3.29,3.29,0,0,1-1.52.09,2.76,2.76,0,0,1-.47-.1l-.34-.12-.17-.09,0-.06s0,0,0-.07a.36.36,0,0,1,0-.11s0-.09,0-.15,0-.11,0-.15l0-.11a.15.15,0,0,1,0-.06l.06,0a.37.37,0,0,1,.15.06l.27.14c.12,0,.26.09.43.13a2.74,2.74,0,0,0,.61.06,2.25,2.25,0,0,0,.6-.07,1.41,1.41,0,0,0,.47-.25,1.1,1.1,0,0,0,.31-.42,1.38,1.38,0,0,0,.12-.61,1.43,1.43,0,0,0-.1-.53A.87.87,0,0,0,100,180a1.36,1.36,0,0,0-.5-.23,3.12,3.12,0,0,0-.73-.07,3.94,3.94,0,0,0-.51,0l-.4,0a.24.24,0,0,1-.19-.06.35.35,0,0,1-.06-.24v-2.58a.36.36,0,0,1,.07-.24.31.31,0,0,1,.22-.07h2.8a.1.1,0,0,1,.07,0,.09.09,0,0,1,.06.06.34.34,0,0,1,0,.12.76.76,0,0,1,0,.16.7.7,0,0,1,0,.27.14.14,0,0,1-.13.1H98.4v1.77a1.84,1.84,0,0,1,.33,0h.4a2.77,2.77,0,0,1,.91.13,1.64,1.64,0,0,1,.65.36,1.47,1.47,0,0,1,.4.58A2,2,0,0,1,101.22,180.83Z" transform="translate(-11.52 -18.85)"/><path d="M106.53,179.69a7.69,7.69,0,0,1-.11,1.33,3.29,3.29,0,0,1-.38,1,1.87,1.87,0,0,1-.7.67,2.16,2.16,0,0,1-1.06.24,2,2,0,0,1-1-.22,1.7,1.7,0,0,1-.66-.62,2.85,2.85,0,0,1-.35-1,8,8,0,0,1-.11-1.38,6.92,6.92,0,0,1,.12-1.33,3.06,3.06,0,0,1,.38-1,1.92,1.92,0,0,1,.69-.67,2.16,2.16,0,0,1,1.06-.24,2.22,2.22,0,0,1,1,.21,1.71,1.71,0,0,1,.65.63,2.85,2.85,0,0,1,.36,1A8.11,8.11,0,0,1,106.53,179.69Zm-.86.06c0-.32,0-.6,0-.85a5.15,5.15,0,0,0-.1-.66,2.43,2.43,0,0,0-.17-.5,1.3,1.3,0,0,0-.25-.34.9.9,0,0,0-.34-.2,1.33,1.33,0,0,0-.42-.06,1.07,1.07,0,0,0-.67.2,1.29,1.29,0,0,0-.41.53,3,3,0,0,0-.21.8c0,.31,0,.64,0,1a10,10,0,0,0,.07,1.2,2.59,2.59,0,0,0,.24.81,1.07,1.07,0,0,0,.4.46,1.27,1.27,0,0,0,.6.14,1.21,1.21,0,0,0,.48-.09,1,1,0,0,0,.36-.25,1.28,1.28,0,0,0,.24-.39,2.76,2.76,0,0,0,.16-.51,3.75,3.75,0,0,0,.08-.61C105.67,180.21,105.67,180,105.67,179.75Z" transform="translate(-11.52 -18.85)"/><line class="cls-8" x1="148.26" y1="91.2" x2="99.6" y2="141.14"/><path d="M149.61,179.41a.49.49,0,0,1,.15.09.11.11,0,0,1,.05.1.22.22,0,0,1-.06.12l-.16.18-.17.17-.12.08-.08,0-.08,0-1.48-.68-1.83,1.88.72,1.43a.16.16,0,0,1,0,.08.28.28,0,0,1,0,.09.4.4,0,0,1-.07.12,1.93,1.93,0,0,1-.15.16,1.2,1.2,0,0,1-.17.16.22.22,0,0,1-.12.06.12.12,0,0,1-.1-.05.49.49,0,0,1-.09-.15l-2.73-5.61a.44.44,0,0,1,0-.1.18.18,0,0,1,0-.1.77.77,0,0,1,.09-.13l.17-.18a1.51,1.51,0,0,1,.18-.18.53.53,0,0,1,.14-.1.23.23,0,0,1,.11,0l.1,0ZM144,177.74h0l1.49,3,1.54-1.57Z" transform="translate(-11.52 -18.85)"/><path d="M151,178.27a.06.06,0,0,1,0,.06s0,0,0,.07a.3.3,0,0,1-.06.11l-.14.15a1.84,1.84,0,0,1-.14.14l-.11.06a.11.11,0,0,1-.07,0l-.06,0-4.67-4.55a.21.21,0,0,1,0-.06.12.12,0,0,1,0-.08.41.41,0,0,1,.06-.11l.13-.14.15-.14.11-.07h.08l.06,0Z" transform="translate(-11.52 -18.85)"/><path d="M153.22,175.76a.36.36,0,0,1,.12.16.09.09,0,0,1,0,.1l-1.41,1.44a.46.46,0,0,1-.07.07h-.07l-.09,0-.11-.09-.08-.09-.06-.08,0-.09v-.11l0-.89c0-.16,0-.3,0-.42a1.42,1.42,0,0,0,0-.31,1.55,1.55,0,0,0-.08-.23,1.19,1.19,0,0,0-.15-.18.37.37,0,0,0-.31-.12.47.47,0,0,0-.34.17.94.94,0,0,0-.18.24,1.28,1.28,0,0,0-.09.22.64.64,0,0,0-.05.17.34.34,0,0,1,0,.1l0,0-.06,0-.07,0-.11-.09-.09-.11a.17.17,0,0,1,0-.1.3.3,0,0,1,0-.15,1.36,1.36,0,0,1,.09-.23,2.43,2.43,0,0,1,.15-.26,1.64,1.64,0,0,1,.21-.25,1.66,1.66,0,0,1,.38-.3,1.11,1.11,0,0,1,.37-.11.7.7,0,0,1,.35.06.85.85,0,0,1,.31.21.88.88,0,0,1,.19.24,1.08,1.08,0,0,1,.13.33,2.46,2.46,0,0,1,.06.44,4.41,4.41,0,0,1,0,.61l0,.6,1-1a.1.1,0,0,1,.12,0A.45.45,0,0,1,153.22,175.76Z" transform="translate(-11.52 -18.85)"/><path d="M155.56,169.09a5,5,0,0,1,.87,1.1,2.85,2.85,0,0,1,.37,1.12,2.32,2.32,0,0,1-.15,1.1,3.06,3.06,0,0,1-.72,1.07,3.3,3.3,0,0,1-1,.74,2.11,2.11,0,0,1-1,.18,2.76,2.76,0,0,1-1.08-.34,5.28,5.28,0,0,1-1.1-.84,4.85,4.85,0,0,1-.85-1.08,2.68,2.68,0,0,1-.36-1.11,2.26,2.26,0,0,1,.16-1.11,3.27,3.27,0,0,1,.71-1.07,3.35,3.35,0,0,1,1-.72,2.24,2.24,0,0,1,1-.19,2.5,2.5,0,0,1,1.07.33A4.86,4.86,0,0,1,155.56,169.09Zm-.57.68a5.39,5.39,0,0,0-.78-.63,2.27,2.27,0,0,0-.8-.33,1.52,1.52,0,0,0-.79.06,1.91,1.91,0,0,0-.78.52,1.87,1.87,0,0,0-.49.8,1.59,1.59,0,0,0,0,.81,2.41,2.41,0,0,0,.34.8,4.68,4.68,0,0,0,.62.74,5.19,5.19,0,0,0,.8.65,2.25,2.25,0,0,0,.79.34,1.63,1.63,0,0,0,.79-.05,2,2,0,0,0,.78-.54,1.9,1.9,0,0,0,.5-.8,1.53,1.53,0,0,0,0-.82,2.25,2.25,0,0,0-.35-.8A4.74,4.74,0,0,0,155,169.77Z" transform="translate(-11.52 -18.85)"/><path d="M159.37,168.52a.83.83,0,0,1,.22.35.94.94,0,0,1,0,.41,1.4,1.4,0,0,1-.15.45,2.26,2.26,0,0,1-.58.65,2.68,2.68,0,0,1-.23.17l-.21.1a.31.31,0,0,1-.15,0,.19.19,0,0,1-.1,0,.64.64,0,0,1-.15-.12.49.49,0,0,1-.11-.14.08.08,0,0,1,0-.08s0,0,.1-.05a2.46,2.46,0,0,0,.4-.19,1.66,1.66,0,0,0,.27-.23.79.79,0,0,0,.17-.23.74.74,0,0,0,.07-.21.35.35,0,0,0,0-.18.56.56,0,0,0-.09-.14.44.44,0,0,0-.18-.11.44.44,0,0,0-.2,0,1.06,1.06,0,0,0-.25.11,2.6,2.6,0,0,0-.27.24l-.23.23a.1.1,0,0,1,0,0h-.06l-.07,0a.57.57,0,0,1-.09-.08l-.08-.09a.21.21,0,0,1,0-.07,0,0,0,0,1,0-.05.05.05,0,0,1,0,0l.22-.23a1,1,0,0,0,.28-.46.41.41,0,0,0-.12-.37.38.38,0,0,0-.3-.11.62.62,0,0,0-.36.21.82.82,0,0,0-.16.22l-.1.22a1.89,1.89,0,0,1-.06.18.34.34,0,0,1,0,.1l0,0h0l-.07,0-.09-.07-.06-.07,0-.05,0,0s0,0,0-.06a.66.66,0,0,1,0-.13c0-.06.05-.13.09-.22a2.43,2.43,0,0,1,.15-.26,2.76,2.76,0,0,1,.23-.27,1.63,1.63,0,0,1,.37-.3,1,1,0,0,1,.35-.12.68.68,0,0,1,.32,0,.77.77,0,0,1,.29.19.62.62,0,0,1,.15.21.72.72,0,0,1,.07.25.63.63,0,0,1,0,.27,1.48,1.48,0,0,1-.1.27,1.66,1.66,0,0,1,.3-.19.71.71,0,0,1,.28-.06.59.59,0,0,1,.27.05A.61.61,0,0,1,159.37,168.52Z" transform="translate(-11.52 -18.85)"/><path d="M158.66,160.91a9.16,9.16,0,0,0,1,1.9,9.67,9.67,0,0,0,3,2.9,10.61,10.61,0,0,0,1.92.92l.09.05a.11.11,0,0,1,0,.08.45.45,0,0,1,0,.1.69.69,0,0,1-.12.14,1.13,1.13,0,0,1-.11.11l-.09.06-.08,0h-.06a9.37,9.37,0,0,1-1-.38,9.85,9.85,0,0,1-1-.48,8.8,8.8,0,0,1-.9-.6,8,8,0,0,1-.83-.71,7.85,7.85,0,0,1-.73-.81,9.79,9.79,0,0,1-1.12-1.87c-.16-.34-.29-.68-.42-1,0,0,0,0,0-.05l0-.06a.24.24,0,0,1,.06-.09l.11-.13a.64.64,0,0,1,.14-.12.19.19,0,0,1,.1,0,.08.08,0,0,1,.08,0A.18.18,0,0,1,158.66,160.91Z" transform="translate(-11.52 -18.85)"/><path d="M165.48,157.07l.05.06.06.11,2.09,3.84a.19.19,0,0,1,0,.1.2.2,0,0,1,0,.1l-.09.13-.16.18-.19.17a.76.76,0,0,1-.13.1l-.11,0-.09,0L164,160.29l0,0,0,0,1.69,2.84a.16.16,0,0,1,0,.09.26.26,0,0,1,0,.11.77.77,0,0,1-.09.13l-.17.18a1.31,1.31,0,0,1-.18.17l-.13.09-.1,0-.09,0-3.89-2-.11-.06s0,0-.06-.05,0,0,0-.06a.22.22,0,0,1,0-.08l.07-.11.13-.13.16-.16.11-.07a.08.08,0,0,1,.08,0l.08,0,3.33,1.76,0,0,0,0-1.91-3.22a.13.13,0,0,1,0-.08.08.08,0,0,1,0-.08.37.37,0,0,1,.06-.1l.14-.15a.79.79,0,0,1,.14-.13.2.2,0,0,1,.1-.07.09.09,0,0,1,.07,0l.07,0,3.34,1.78,0,0,0,0-1.87-3.28s0,0,0-.08a.25.25,0,0,1,0-.08l.07-.11.14-.15.14-.13a.24.24,0,0,1,.09-.07h.08Z" transform="translate(-11.52 -18.85)"/><path d="M170.69,157.56l.15.17a.27.27,0,0,1,0,.13.44.44,0,0,1,0,.14.65.65,0,0,1-.09.16.94.94,0,0,1-.12.18,1.15,1.15,0,0,1-.14.17,1.88,1.88,0,0,1-.48.36,1,1,0,0,1-.47.09,1,1,0,0,1-.49-.16,2.53,2.53,0,0,1-.53-.41l-1.84-1.79-.42.44a.17.17,0,0,1-.14,0,.57.57,0,0,1-.22-.15l-.1-.11a.93.93,0,0,1,0-.1.25.25,0,0,1,0-.08l0-.06.42-.44-.74-.73a.1.1,0,0,1,0-.05.22.22,0,0,1,0-.08.31.31,0,0,1,.07-.12l.12-.14.15-.14.11-.06a.08.08,0,0,1,.08,0,.09.09,0,0,1,.06,0l.75.73.78-.81.06,0a.22.22,0,0,1,.08,0,.27.27,0,0,1,.1.06l.12.1a.59.59,0,0,1,.15.21.11.11,0,0,1,0,.13l-.78.81,1.75,1.71a1.35,1.35,0,0,0,.59.38.48.48,0,0,0,.5-.18.79.79,0,0,0,.12-.15l.08-.15a.61.61,0,0,0,.05-.12s0-.06,0-.07,0,0,0,0h.06a.25.25,0,0,1,.08.05A.44.44,0,0,1,170.69,157.56Z" transform="translate(-11.52 -18.85)"/><path d="M172.1,156c.17.17.25.3.25.41a.61.61,0,0,1-.21.38.55.55,0,0,1-.36.21.67.67,0,0,1-.4-.23.64.64,0,0,1-.25-.41.61.61,0,0,1,.21-.38.53.53,0,0,1,.36-.21A.67.67,0,0,1,172.1,156Z" transform="translate(-11.52 -18.85)"/><path d="M173.31,148.7a2.37,2.37,0,0,1,.43.54,1.32,1.32,0,0,1,.2.54,1,1,0,0,1-.06.55,1.36,1.36,0,0,1-.34.53,1.43,1.43,0,0,1-.5.35,1,1,0,0,1-.53.07,1.31,1.31,0,0,1-.53-.19,2.58,2.58,0,0,1-.55-.43,2.52,2.52,0,0,1-.42-.52,1.49,1.49,0,0,1-.2-.54,1.16,1.16,0,0,1,.05-.55,1.36,1.36,0,0,1,.34-.53,1.58,1.58,0,0,1,.54-.37,1.16,1.16,0,0,1,.55-.05,1.47,1.47,0,0,1,.53.21A2.47,2.47,0,0,1,173.31,148.7Zm-.46.51a2.43,2.43,0,0,0-.37-.31,1.08,1.08,0,0,0-.34-.17.6.6,0,0,0-.3,0,.65.65,0,0,0-.27.17.66.66,0,0,0-.16.26.57.57,0,0,0,0,.29,1.11,1.11,0,0,0,.16.33,3.2,3.2,0,0,0,.32.36,2.45,2.45,0,0,0,.43.35,1,1,0,0,0,.34.15.45.45,0,0,0,.28,0,.71.71,0,0,0,.24-.17.6.6,0,0,0,.17-.28.51.51,0,0,0,0-.3,1.16,1.16,0,0,0-.18-.32A2.33,2.33,0,0,0,172.85,149.21Zm2.93,3.82a.34.34,0,0,1,0,.09l0,.09a.61.61,0,0,1-.07.1.58.58,0,0,1-.11.13l-.13.11-.1,0s-.06,0-.07,0a.28.28,0,0,1-.05-.11l-1.44-7.54a.27.27,0,0,1,0-.09.16.16,0,0,1,0-.09s0-.06.06-.1l.11-.12.13-.11a.13.13,0,0,1,.11,0,.08.08,0,0,1,.07,0,.15.15,0,0,1,0,.1Zm2.39-4.79a2.63,2.63,0,0,1,.44.53,1.51,1.51,0,0,1,.19.55,1.15,1.15,0,0,1-.05.55,1.66,1.66,0,0,1-.85.88,1,1,0,0,1-.52.07,1.3,1.3,0,0,1-.54-.19,3.32,3.32,0,0,1-.55-.43,2.82,2.82,0,0,1-.42-.52,1.69,1.69,0,0,1-.2-.54,1.16,1.16,0,0,1,.05-.55,1.49,1.49,0,0,1,.34-.53,1.31,1.31,0,0,1,.55-.37,1,1,0,0,1,.54-.05,1.38,1.38,0,0,1,.53.2A2.6,2.6,0,0,1,178.17,148.24Zm-.46.5a2.43,2.43,0,0,0-.37-.31,1.15,1.15,0,0,0-.34-.16.51.51,0,0,0-.3,0,.71.71,0,0,0-.27.18.66.66,0,0,0-.16.26.57.57,0,0,0,0,.29.87.87,0,0,0,.16.32,1.66,1.66,0,0,0,.31.36,2.47,2.47,0,0,0,.43.36,1.07,1.07,0,0,0,.34.15.44.44,0,0,0,.28,0A.81.81,0,0,0,178,150a.55.55,0,0,0,.17-.29.48.48,0,0,0,0-.29,1.11,1.11,0,0,0-.17-.32A3.29,3.29,0,0,0,177.71,148.74Z" transform="translate(-11.52 -18.85)"/><path d="M179.34,145.57a7.11,7.11,0,0,1,.74.81,9.4,9.4,0,0,1,.62.89,8.82,8.82,0,0,1,.51,1,10.68,10.68,0,0,1,.4,1,.11.11,0,0,1,0,.06.16.16,0,0,1,0,.08.35.35,0,0,1-.06.09l-.1.11-.15.13a.19.19,0,0,1-.1,0,.09.09,0,0,1-.07,0,.19.19,0,0,1,0-.09,10.53,10.53,0,0,0-1-1.89,9.84,9.84,0,0,0-3-2.91,9.76,9.76,0,0,0-1.93-.91.12.12,0,0,1-.07-.05.08.08,0,0,1,0-.07.21.21,0,0,1,0-.11.58.58,0,0,1,.11-.13l.13-.12.09-.07.06,0h.05a11,11,0,0,1,2,.88A7.6,7.6,0,0,1,179.34,145.57Z" transform="translate(-11.52 -18.85)"/><polyline class="cls-9" points="5.9 41.26 9.16 110.24 100.66 140.05"/><polyline class="cls-9" points="17.49 32.8 20.2 100.99 110.66 129.78"/><polyline class="cls-9" points="28.68 24.63 30.86 92.05 120.32 119.88"/><polyline class="cls-9" points="39.5 16.74 41.19 83.4 129.64 110.31"/><polyline class="cls-9" points="49.95 9.11 51.18 75.02 138.66 101.06"/><polyline class="cls-9" points="60.06 1.73 60.86 66.91 147.37 92.11"/><line class="cls-8" x1="99.89" y1="139.8" x2="102.21" y2="140.55"/><path d="M127.31,176a6.74,6.74,0,0,1-.12,1.32,2.85,2.85,0,0,1-.38,1,1.93,1.93,0,0,1-.69.67,2.27,2.27,0,0,1-1.06.23,2.22,2.22,0,0,1-1-.21,1.61,1.61,0,0,1-.65-.62,2.92,2.92,0,0,1-.36-1,8.11,8.11,0,0,1-.1-1.38,6.78,6.78,0,0,1,.12-1.33,2.92,2.92,0,0,1,.38-1,1.75,1.75,0,0,1,.69-.66,2.14,2.14,0,0,1,1.05-.24,2.19,2.19,0,0,1,1,.21,1.66,1.66,0,0,1,.66.63,2.79,2.79,0,0,1,.35,1A8.16,8.16,0,0,1,127.31,176Zm-.86.06c0-.32,0-.6,0-.85s-.06-.48-.1-.67a2.3,2.3,0,0,0-.18-.49,1.16,1.16,0,0,0-.25-.35.92.92,0,0,0-.33-.19,1.42,1.42,0,0,0-.42-.06,1.1,1.1,0,0,0-.68.19,1.34,1.34,0,0,0-.41.54,3.46,3.46,0,0,0-.2.8c0,.31,0,.64,0,1a8.24,8.24,0,0,0,.07,1.2,2.91,2.91,0,0,0,.23.81,1,1,0,0,0,.41.45,1.11,1.11,0,0,0,.6.14,1.21,1.21,0,0,0,.48-.08,1,1,0,0,0,.35-.26,1.09,1.09,0,0,0,.25-.39,2.35,2.35,0,0,0,.16-.51,4.86,4.86,0,0,0,.08-.6C126.44,176.53,126.45,176.3,126.45,176.07Z" transform="translate(-11.52 -18.85)"/><line class="cls-8" x1="109.9" y1="129.54" x2="112.19" y2="130.27"/><path d="M134.37,168.34a.61.61,0,0,1,0,.15.23.23,0,0,1,0,.1.1.1,0,0,1-.05.06l-.07,0h-3.3l-.06,0a.17.17,0,0,1-.06-.06.23.23,0,0,1,0-.1.61.61,0,0,1,0-.15.78.78,0,0,1,0-.16l0-.1.06-.06a.09.09,0,0,1,.07,0h1.32v-4.8l-1.22.73-.15.06a.12.12,0,0,1-.09,0s0,0-.05-.1a1,1,0,0,1,0-.19.61.61,0,0,1,0-.14.3.3,0,0,1,0-.1s0,0,0-.06l.07-.06,1.46-.94,0,0,.08,0h.44l.12,0a.1.1,0,0,1,.06,0,.08.08,0,0,1,0,.05V168h1.14a.09.09,0,0,1,.07,0s0,0,.06.06l0,.1A.78.78,0,0,1,134.37,168.34Z" transform="translate(-11.52 -18.85)"/><path d="M139.63,165.49a6.78,6.78,0,0,1-.12,1.33,2.92,2.92,0,0,1-.38,1,1.82,1.82,0,0,1-.69.66,2.47,2.47,0,0,1-2.06,0,1.54,1.54,0,0,1-.66-.63,2.8,2.8,0,0,1-.36-1,8.24,8.24,0,0,1-.1-1.39,6.74,6.74,0,0,1,.12-1.32,2.92,2.92,0,0,1,.38-1,1.78,1.78,0,0,1,.69-.67,2.26,2.26,0,0,1,1.05-.23,2.16,2.16,0,0,1,1,.21,1.64,1.64,0,0,1,.66.62,2.92,2.92,0,0,1,.35,1A8,8,0,0,1,139.63,165.49Zm-.86.06c0-.31,0-.6,0-.85s-.06-.47-.1-.66a2.63,2.63,0,0,0-.18-.5,1.11,1.11,0,0,0-.25-.34.84.84,0,0,0-.33-.19,1.42,1.42,0,0,0-.42-.07,1.12,1.12,0,0,0-.68.2,1.24,1.24,0,0,0-.4.54,2.82,2.82,0,0,0-.21.8c0,.3,0,.63,0,1a8.3,8.3,0,0,0,.07,1.21,2.91,2.91,0,0,0,.23.81,1.06,1.06,0,0,0,.41.45,1.11,1.11,0,0,0,.6.14,1.21,1.21,0,0,0,.48-.09.81.81,0,0,0,.35-.25,1.3,1.3,0,0,0,.25-.39,2.35,2.35,0,0,0,.16-.51,5.13,5.13,0,0,0,.08-.6C138.76,166,138.77,165.79,138.77,165.55Z" transform="translate(-11.52 -18.85)"/><line class="cls-8" x1="119.57" y1="119.64" x2="121.83" y2="120.34"/><path d="M143.79,158.16a.81.81,0,0,1,0,.16l0,.11-.06.07-.08,0h-3.49l-.12,0a.19.19,0,0,1-.09-.05.33.33,0,0,1,0-.12.44.44,0,0,1,0-.18.91.91,0,0,1,0-.17.28.28,0,0,1,0-.13l.06-.11.1-.12,1.26-1.3a8.45,8.45,0,0,0,.7-.8,4,4,0,0,0,.41-.65,2.15,2.15,0,0,0,.19-.53,2.48,2.48,0,0,0,.05-.45,1.29,1.29,0,0,0-.07-.4.93.93,0,0,0-.21-.33,1,1,0,0,0-.33-.23,1.36,1.36,0,0,0-.47-.08,1.87,1.87,0,0,0-.55.08l-.43.18-.3.19a.51.51,0,0,1-.19.08l-.06,0s0,0,0-.06a.37.37,0,0,1,0-.12,1,1,0,0,1,0-.18v-.12a.3.3,0,0,1,0-.1l0-.07.08-.09a1.15,1.15,0,0,1,.2-.13l.36-.18a3.36,3.36,0,0,1,.48-.14,2.44,2.44,0,0,1,.55-.06,2.17,2.17,0,0,1,.8.13,1.49,1.49,0,0,1,.57.35,1.34,1.34,0,0,1,.34.52,1.73,1.73,0,0,1,.12.64,3.05,3.05,0,0,1-.06.6,2.38,2.38,0,0,1-.22.65,5.12,5.12,0,0,1-.51.78,10.53,10.53,0,0,1-.86,1l-1,1.05h2.75l.08,0a.22.22,0,0,1,.06.07.23.23,0,0,1,0,.1A.81.81,0,0,1,143.79,158.16Z" transform="translate(-11.52 -18.85)"/><path d="M149.07,155.35a7.66,7.66,0,0,1-.11,1.32,3.36,3.36,0,0,1-.38,1,2,2,0,0,1-.7.67,2.27,2.27,0,0,1-1.06.23,2.15,2.15,0,0,1-1-.21,1.7,1.7,0,0,1-.66-.62,3.14,3.14,0,0,1-.35-1,8,8,0,0,1-.11-1.38,6.78,6.78,0,0,1,.12-1.33,3.12,3.12,0,0,1,.38-1,1.89,1.89,0,0,1,.69-.66,2.16,2.16,0,0,1,1.06-.24,2.22,2.22,0,0,1,1,.21,1.58,1.58,0,0,1,.65.63,2.8,2.8,0,0,1,.36,1A8.24,8.24,0,0,1,149.07,155.35Zm-.86.05q0-.47,0-.84a5.06,5.06,0,0,0-.1-.67,1.87,1.87,0,0,0-.17-.49,1.37,1.37,0,0,0-.25-.35.88.88,0,0,0-.34-.19,1.33,1.33,0,0,0-.42-.06,1.07,1.07,0,0,0-.67.19,1.26,1.26,0,0,0-.41.54,2.68,2.68,0,0,0-.2.8,7.74,7.74,0,0,0-.06,1,10,10,0,0,0,.07,1.2,2.59,2.59,0,0,0,.24.81,1,1,0,0,0,.4.45,1.16,1.16,0,0,0,.6.14,1.21,1.21,0,0,0,.48-.08,1,1,0,0,0,.36-.26,1.08,1.08,0,0,0,.24-.39,2.35,2.35,0,0,0,.16-.51,3.49,3.49,0,0,0,.08-.6C148.21,155.86,148.21,155.64,148.21,155.4Z" transform="translate(-11.52 -18.85)"/><line class="cls-8" x1="128.9" y1="110.08" x2="131.13" y2="110.76"/><path d="M152.87,146.91a1.78,1.78,0,0,1-.16.78,1.54,1.54,0,0,1-.43.6,1.9,1.9,0,0,1-.7.39,3.05,3.05,0,0,1-.94.13,3.7,3.7,0,0,1-.59-.05,2.93,2.93,0,0,1-.49-.12l-.36-.15-.17-.11a.13.13,0,0,1-.06-.07l0-.08a1,1,0,0,1,0-.12v-.17a.73.73,0,0,1,0-.25.12.12,0,0,1,.1-.07.56.56,0,0,1,.18.08,3.56,3.56,0,0,0,.34.17,3.46,3.46,0,0,0,.49.17,2.31,2.31,0,0,0,.61.08,1.78,1.78,0,0,0,.59-.09,1.22,1.22,0,0,0,.42-.23,1,1,0,0,0,.25-.36A1.13,1.13,0,0,0,152,147a1.06,1.06,0,0,0-.11-.48,1,1,0,0,0-.32-.37,1.34,1.34,0,0,0-.51-.24,2.53,2.53,0,0,0-.7-.09h-.7a.34.34,0,0,1-.06-.06.93.93,0,0,1-.05-.1.81.81,0,0,1,0-.17.66.66,0,0,1,0-.15.23.23,0,0,1,0-.1.13.13,0,0,1,.06-.05.12.12,0,0,1,.08,0h.55a2,2,0,0,0,.58-.08,1.43,1.43,0,0,0,.44-.24,1.15,1.15,0,0,0,.27-.38,1.28,1.28,0,0,0,0-.86,1,1,0,0,0-.19-.31.92.92,0,0,0-.32-.2,1.34,1.34,0,0,0-.46-.08,1.46,1.46,0,0,0-.52.09,2,2,0,0,0-.42.18,2.58,2.58,0,0,0-.31.18.39.39,0,0,1-.17.09h-.06a.12.12,0,0,1,0-.05.31.31,0,0,1,0-.11.81.81,0,0,1,0-.17.53.53,0,0,1,0-.13.3.3,0,0,1,0-.1l0-.07.07-.08.18-.14a3.84,3.84,0,0,1,.35-.17,2.09,2.09,0,0,1,.48-.14,2.74,2.74,0,0,1,.59-.06,2.27,2.27,0,0,1,.77.11,1.43,1.43,0,0,1,.55.32,1.18,1.18,0,0,1,.33.49,1.61,1.61,0,0,1,.11.63,1.93,1.93,0,0,1-.07.55,1.53,1.53,0,0,1-.23.46,1.51,1.51,0,0,1-.38.33,1.31,1.31,0,0,1-.5.2h0a1.91,1.91,0,0,1,.59.16,1.65,1.65,0,0,1,.47.33,1.57,1.57,0,0,1,.31.45A1.51,1.51,0,0,1,152.87,146.91Z" transform="translate(-11.52 -18.85)"/><path d="M158.19,145.54a6.81,6.81,0,0,1-.11,1.33,3.12,3.12,0,0,1-.38,1,1.85,1.85,0,0,1-.7.66,2.47,2.47,0,0,1-2.06,0,1.66,1.66,0,0,1-.66-.63,3,3,0,0,1-.35-1,8.16,8.16,0,0,1-.11-1.39,6.74,6.74,0,0,1,.12-1.32,3.36,3.36,0,0,1,.38-1,2,2,0,0,1,.69-.67,2.27,2.27,0,0,1,1.06-.23,2.19,2.19,0,0,1,1,.21,1.61,1.61,0,0,1,.65.62,2.92,2.92,0,0,1,.36,1A8.11,8.11,0,0,1,158.19,145.54Zm-.86.06c0-.31,0-.6,0-.85a5.15,5.15,0,0,0-.1-.66,2.09,2.09,0,0,0-.17-.5,1.25,1.25,0,0,0-.25-.34.88.88,0,0,0-.34-.19A1.33,1.33,0,0,0,156,143a1.07,1.07,0,0,0-.67.19,1.26,1.26,0,0,0-.41.54,2.6,2.6,0,0,0-.2.8,7.52,7.52,0,0,0-.06,1,8.1,8.1,0,0,0,.08,1.2,2.36,2.36,0,0,0,.23.81,1,1,0,0,0,.4.45,1.16,1.16,0,0,0,.6.14,1.21,1.21,0,0,0,.48-.09.9.9,0,0,0,.36-.25,1.53,1.53,0,0,0,.25-.39,3.09,3.09,0,0,0,.15-.51,3.49,3.49,0,0,0,.08-.6C157.33,146.06,157.33,145.84,157.33,145.6Z" transform="translate(-11.52 -18.85)"/><line class="cls-8" x1="137.92" y1="100.84" x2="140.13" y2="101.49"/><path d="M162,137.45a.55.55,0,0,1-.05.25.15.15,0,0,1-.14.1h-.71v1.32a.14.14,0,0,1,0,.07s0,0-.07.05l-.13,0h-.41l-.13,0s-.05,0-.06-.05a.14.14,0,0,1,0-.07V137.8h-2.59l-.09,0a.18.18,0,0,1-.07-.05.37.37,0,0,1,0-.11c0-.05,0-.12,0-.19a.86.86,0,0,1,0-.17.51.51,0,0,1,0-.13.42.42,0,0,1,0-.12.61.61,0,0,1,0-.12l2.26-3.84a.16.16,0,0,1,.07-.07l.12,0,.18,0h.55l.2,0,.11.05a.1.1,0,0,1,0,.08v4h.71a.16.16,0,0,1,.14.09A.57.57,0,0,1,162,137.45Zm-1.74-3.81h0l-2,3.46h2Z" transform="translate(-11.52 -18.85)"/><path d="M167,136.07a6.78,6.78,0,0,1-.12,1.33,2.8,2.8,0,0,1-.38,1,1.92,1.92,0,0,1-.69.67,2.16,2.16,0,0,1-1.06.24,2.22,2.22,0,0,1-1-.21,1.58,1.58,0,0,1-.65-.63,2.8,2.8,0,0,1-.36-1,8.32,8.32,0,0,1-.1-1.39,7.66,7.66,0,0,1,.11-1.32,3,3,0,0,1,.39-1,1.78,1.78,0,0,1,.69-.67,2.14,2.14,0,0,1,1-.23,2.19,2.19,0,0,1,1,.21,1.7,1.7,0,0,1,.66.62,3.14,3.14,0,0,1,.35,1A8,8,0,0,1,167,136.07Zm-.86.06a7.35,7.35,0,0,0,0-.85,3.84,3.84,0,0,0-.1-.66,2.09,2.09,0,0,0-.17-.5,1,1,0,0,0-.58-.54,1.44,1.44,0,0,0-.43-.06,1.09,1.09,0,0,0-.67.2,1.34,1.34,0,0,0-.41.54,2.83,2.83,0,0,0-.2.8c0,.3-.05.63-.05,1a8.3,8.3,0,0,0,.07,1.21,2.91,2.91,0,0,0,.23.81,1.13,1.13,0,0,0,.41.45,1.34,1.34,0,0,0,1.08.05,1.07,1.07,0,0,0,.35-.25,1.3,1.3,0,0,0,.25-.39,2.35,2.35,0,0,0,.16-.51c0-.18.06-.39.08-.6S166.15,136.37,166.15,136.13Z" transform="translate(-11.52 -18.85)"/><line class="cls-8" x1="146.65" y1="91.9" x2="148.83" y2="92.53"/><path d="M170.22,128.06a2.19,2.19,0,0,1-.17.9,1.88,1.88,0,0,1-.48.67,2.31,2.31,0,0,1-.74.41,3.22,3.22,0,0,1-1,.14,3.28,3.28,0,0,1-.56,0,4.24,4.24,0,0,1-.47-.1l-.34-.12a.75.75,0,0,1-.17-.1l-.05-.06a.14.14,0,0,1,0-.07.31.31,0,0,1,0-.11s0-.09,0-.15,0-.1,0-.15a.62.62,0,0,1,0-.1.18.18,0,0,1,0-.07h.06a.37.37,0,0,1,.15.06l.27.13a2.79,2.79,0,0,0,.43.13,2.69,2.69,0,0,0,.61.07,2.23,2.23,0,0,0,.6-.08,1.25,1.25,0,0,0,.47-.25,1.14,1.14,0,0,0,.31-.41,1.46,1.46,0,0,0,.11-.62,1.44,1.44,0,0,0-.09-.53.93.93,0,0,0-.29-.39,1.36,1.36,0,0,0-.5-.23,3.12,3.12,0,0,0-.73-.07,3.78,3.78,0,0,0-.51,0l-.4,0a.24.24,0,0,1-.19-.07.35.35,0,0,1-.06-.24v-2.57a.33.33,0,0,1,.07-.24.27.27,0,0,1,.22-.08h2.8l.07,0a.13.13,0,0,1,.06.07.28.28,0,0,1,0,.11.76.76,0,0,1,0,.16.64.64,0,0,1,0,.27c0,.07-.08.1-.13.1H167.4v1.77l.33,0h.4a2.77,2.77,0,0,1,.91.13,1.65,1.65,0,0,1,.65.37,1.37,1.37,0,0,1,.4.57A2,2,0,0,1,170.22,128.06Z" transform="translate(-11.52 -18.85)"/><path d="M175.53,126.91a7.69,7.69,0,0,1-.11,1.33,3.2,3.2,0,0,1-.38,1,1.87,1.87,0,0,1-.7.67,2.47,2.47,0,0,1-2.06,0,1.66,1.66,0,0,1-.66-.63,2.79,2.79,0,0,1-.35-1,8.25,8.25,0,0,1-.11-1.39,6.74,6.74,0,0,1,.12-1.32,3,3,0,0,1,.38-1,1.85,1.85,0,0,1,.69-.67,2.16,2.16,0,0,1,1.06-.23,2.22,2.22,0,0,1,1,.21,1.61,1.61,0,0,1,.65.62,2.92,2.92,0,0,1,.36,1A8.11,8.11,0,0,1,175.53,126.91Zm-.86.06c0-.31,0-.6,0-.85a5.15,5.15,0,0,0-.1-.66,2.65,2.65,0,0,0-.17-.5,1.3,1.3,0,0,0-.25-.34,1.05,1.05,0,0,0-.34-.2,1.37,1.37,0,0,0-.42-.06,1.12,1.12,0,0,0-.68.2,1.32,1.32,0,0,0-.4.54,2.82,2.82,0,0,0-.21.8c0,.3,0,.63,0,1a8.3,8.3,0,0,0,.07,1.21,2.59,2.59,0,0,0,.24.81,1.1,1.1,0,0,0,.4.45,1.24,1.24,0,0,0,.6.14,1.21,1.21,0,0,0,.48-.09,1,1,0,0,0,.36-.25,1.28,1.28,0,0,0,.24-.39,2.35,2.35,0,0,0,.16-.51,3.63,3.63,0,0,0,.08-.6C174.67,127.43,174.67,127.21,174.67,127Z" transform="translate(-11.52 -18.85)"/><line class="cls-8" x1="148.26" y1="91.2" x2="151.35" y2="23.85"/><path d="M202.72,97.17a.3.3,0,0,1,.11.07.2.2,0,0,1,.06.11.72.72,0,0,1,0,.17,2.07,2.07,0,0,1,0,.25,1.69,1.69,0,0,1,0,.25.61.61,0,0,1,0,.17.2.2,0,0,1-.07.1.28.28,0,0,1-.11,0l-4.83,1.1h0l4.71,1.44a.28.28,0,0,1,.11,0,.2.2,0,0,1,.06.11.63.63,0,0,1,0,.16,1.12,1.12,0,0,1,0,.26,2.13,2.13,0,0,1,0,.27.71.71,0,0,1,0,.17.26.26,0,0,1-.07.1.28.28,0,0,1-.11,0l-5.91,1.4-.17,0a.11.11,0,0,1-.1,0,.39.39,0,0,1,0-.14v-.25c0-.1,0-.18,0-.23a.39.39,0,0,1,0-.14.1.1,0,0,1,0-.06l.09,0,5.35-1.18h0l-5.21-1.59-.09,0a.11.11,0,0,1-.05-.08.42.42,0,0,1,0-.14,2,2,0,0,1,0-.23,1.35,1.35,0,0,1,0-.22,1,1,0,0,1,0-.13.13.13,0,0,1,.06-.07l.09,0L202,97.68h0L196.79,96l-.09,0a.1.1,0,0,1,0-.06.52.52,0,0,1,0-.14.8.8,0,0,1,0-.22,1.21,1.21,0,0,1,0-.23.32.32,0,0,1,0-.13.15.15,0,0,1,.1,0l.18,0Z" transform="translate(-11.52 -18.85)"/><path d="M200.7,90.57a.32.32,0,0,1,.26.11.37.37,0,0,1,.08.22l-.14,2.89a2.72,2.72,0,0,0,.66,0,1.43,1.43,0,0,0,.52-.22,1.12,1.12,0,0,0,.34-.43,1.85,1.85,0,0,0,.14-.67,3.29,3.29,0,0,0,0-.56,3.07,3.07,0,0,0-.1-.43,2.62,2.62,0,0,0-.1-.3.54.54,0,0,1,0-.18.14.14,0,0,1,0-.06l.05,0h.44l.06,0,.06,0,.08.17a2.94,2.94,0,0,1,.1.34c0,.15.06.31.08.49a2.89,2.89,0,0,1,0,.59,2.67,2.67,0,0,1-.19,1,1.76,1.76,0,0,1-.48.66,1.87,1.87,0,0,1-.77.39,3.85,3.85,0,0,1-2.06-.1A2.21,2.21,0,0,1,199,94a1.71,1.71,0,0,1-.46-.69,2.26,2.26,0,0,1-.13-.88,2.23,2.23,0,0,1,.21-.87,1.61,1.61,0,0,1,.48-.58,1.66,1.66,0,0,1,.67-.31,3.1,3.1,0,0,1,.81-.08Zm-.28.8a1.46,1.46,0,0,0-1,.24,1.06,1.06,0,0,0-.4.86,1.12,1.12,0,0,0,.09.53,1,1,0,0,0,.28.39,1.29,1.29,0,0,0,.42.26,2.11,2.11,0,0,0,.51.12Z" transform="translate(-11.52 -18.85)"/><path d="M197.31,88.29a.52.52,0,0,1,.38.13.5.5,0,0,1-.42.87.52.52,0,0,1-.38-.13.6.6,0,0,1-.08-.4.55.55,0,0,1,.11-.38A.53.53,0,0,1,197.31,88.29Zm5.87.36.06,0a.16.16,0,0,1,0,.07.35.35,0,0,1,0,.12v.2c0,.08,0,.15,0,.2a.34.34,0,0,1,0,.12.15.15,0,0,1,0,.06l-.07,0-4.39-.2-.06,0a.18.18,0,0,1-.05-.07.39.39,0,0,1,0-.13.6.6,0,0,1,0-.19c0-.08,0-.15,0-.2a.83.83,0,0,1,0-.12.1.1,0,0,1,.05-.06l.07,0Z" transform="translate(-11.52 -18.85)"/><path d="M199.22,83.3a.6.6,0,0,1,.25.06.15.15,0,0,1,.07.12l0,.63a1,1,0,0,1,.4-.22,1.61,1.61,0,0,1,.44,0A1.94,1.94,0,0,1,201,84a1.35,1.35,0,0,1,.48.37,1.51,1.51,0,0,1,.28.55,2.24,2.24,0,0,1,.08.7,1.71,1.71,0,0,1-.1.51,1.1,1.1,0,0,1-.19.36.7.7,0,0,0,.19.15.46.46,0,0,0,.26.07.33.33,0,0,0,.29-.14.84.84,0,0,0,.14-.42l.1-1.14a2.66,2.66,0,0,1,.12-.6,1.36,1.36,0,0,1,.25-.46,1.1,1.1,0,0,1,.38-.3,1.06,1.06,0,0,1,.51-.09,1.34,1.34,0,0,1,1,.57,1.94,1.94,0,0,1,.3.68,3.18,3.18,0,0,1,.07,1,3.73,3.73,0,0,1-.13.9,2,2,0,0,1-.27.6,1,1,0,0,1-.39.33,1.24,1.24,0,0,1-.79,0,1,1,0,0,1-.28-.13,1.64,1.64,0,0,1-.25-.21,2.26,2.26,0,0,1-.23-.29.83.83,0,0,1-.33.34.82.82,0,0,1-.4.1,1.13,1.13,0,0,1-.53-.15,1.82,1.82,0,0,1-.4-.32,1.68,1.68,0,0,1-.42.22,1.61,1.61,0,0,1-.56.06,1.53,1.53,0,0,1-.66-.16,1.3,1.3,0,0,1-.49-.37,1.53,1.53,0,0,1-.29-.55,2.25,2.25,0,0,1-.08-.69c0-.14,0-.26,0-.38a3,3,0,0,1,.08-.32l.06-1.33a.14.14,0,0,1,.08-.12A.81.81,0,0,1,199.22,83.3Zm1.1,1.32a1,1,0,0,0-.93,1.31.69.69,0,0,0,.2.3.83.83,0,0,0,.3.18,1.53,1.53,0,0,0,.37.08.94.94,0,0,0,.7-.22,1.1,1.1,0,0,0,.22-1.1.77.77,0,0,0-.19-.3.87.87,0,0,0-.31-.18A1,1,0,0,0,200.32,84.62Zm3.5-.25a.49.49,0,0,0-.45.21,1.2,1.2,0,0,0-.19.62l-.09,1.14a2,2,0,0,0,.22.26,1,1,0,0,0,.2.17.82.82,0,0,0,.19.09.69.69,0,0,0,.2,0,.53.53,0,0,0,.5-.3,2.05,2.05,0,0,0,.2-.89,2.25,2.25,0,0,0,0-.61,1.21,1.21,0,0,0-.17-.41.71.71,0,0,0-.26-.23A.84.84,0,0,0,203.82,84.37Z" transform="translate(-11.52 -18.85)"/><path d="M203.63,78.68l.07,0a.43.43,0,0,1,0,.07.37.37,0,0,1,0,.12,1.21,1.21,0,0,1,0,.2c0,.08,0,.15,0,.2a.34.34,0,0,1,0,.12.1.1,0,0,1-.05.06l-.06,0L201,79.37a2.74,2.74,0,0,0-.61,0,1.25,1.25,0,0,0-.41.15.7.7,0,0,0-.26.28.89.89,0,0,0-.11.41,1,1,0,0,0,.19.61,3.19,3.19,0,0,0,.6.67l3.07.14.06,0s0,0,0,.07,0,.07,0,.12v.2c0,.08,0,.14,0,.19a.86.86,0,0,1,0,.13l-.05.06h-.07l-6.52-.3s-.05,0-.06,0a.1.1,0,0,1,0-.06.44.44,0,0,1,0-.13.6.6,0,0,1,0-.19c0-.09,0-.15,0-.2a.4.4,0,0,1,0-.12.1.1,0,0,1,0-.06.08.08,0,0,1,.07,0l2.63.12a2.66,2.66,0,0,1-.51-.72A1.56,1.56,0,0,1,199,80a1.7,1.7,0,0,1,.18-.73,1.37,1.37,0,0,1,.42-.47,1.89,1.89,0,0,1,.6-.24,3.37,3.37,0,0,1,.81,0Z" transform="translate(-11.52 -18.85)"/><path d="M203.48,74.92a.71.71,0,0,1,.23,0,.23.23,0,0,1,.12.06.67.67,0,0,1,.06.12.78.78,0,0,1,.05.18l0,.22a2,2,0,0,1-.12.8.87.87,0,0,1-.29.39,1,1,0,0,1-.47.2,2.3,2.3,0,0,1-.66,0l-2.57-.11,0,.61a.12.12,0,0,1-.08.11.56.56,0,0,1-.26,0l-.15,0-.11,0a.12.12,0,0,1,0,0,.19.19,0,0,1,0-.07l0-.61-1,0a.11.11,0,0,1-.06,0,.13.13,0,0,1-.05-.07.35.35,0,0,1,0-.12v-.2a1,1,0,0,1,0-.2.34.34,0,0,1,0-.12.1.1,0,0,1,.05-.06l.06,0,1,.05.05-1.13a.14.14,0,0,1,0-.06.1.1,0,0,1,.06,0l.11,0h.15a.54.54,0,0,1,.26.05.16.16,0,0,1,.07.13l0,1.12,2.45.11a1.36,1.36,0,0,0,.69-.1.5.5,0,0,0,.25-.47,1.27,1.27,0,0,0,0-.2c0-.06,0-.11,0-.16a.56.56,0,0,1,0-.12.29.29,0,0,1,0-.09s0,0,0,0a.05.05,0,0,1,.05,0l.1,0A.33.33,0,0,1,203.48,74.92Z" transform="translate(-11.52 -18.85)"/><path d="M203.87,68.23l.16,0,.11,0a.18.18,0,0,1,.07,0,.11.11,0,0,1,0,.08l-.12,2.79a.48.48,0,0,1-.09.21.34.34,0,0,1-.27.09l-5.84-.27-.07,0a.16.16,0,0,1,0-.07s0-.08,0-.14v-.2a1,1,0,0,1,0-.2.4.4,0,0,1,0-.13.1.1,0,0,1,.05-.06.08.08,0,0,1,.07,0l5.45.25.11-2.26a.19.19,0,0,1,0-.08.18.18,0,0,1,.07,0l.11,0Z" transform="translate(-11.52 -18.85)"/><path d="M202.09,63.22a3.28,3.28,0,0,1,1,.19,2.15,2.15,0,0,1,.76.46,1.9,1.9,0,0,1,.48.72,2.58,2.58,0,0,1,.14,1,2.65,2.65,0,0,1-.21.94,1.78,1.78,0,0,1-.49.65,2,2,0,0,1-.77.36,3.51,3.51,0,0,1-1,.09,3.28,3.28,0,0,1-1-.19,2.13,2.13,0,0,1-.76-.45,2,2,0,0,1-.48-.72,2.59,2.59,0,0,1-.13-1,2.41,2.41,0,0,1,.2-.94,1.8,1.8,0,0,1,.5-.65,2,2,0,0,1,.77-.37A3.8,3.8,0,0,1,202.09,63.22Zm0,.84a3,3,0,0,0-.68,0,1.61,1.61,0,0,0-.56.19,1,1,0,0,0-.4.4,1.34,1.34,0,0,0-.17.64,1.33,1.33,0,0,0,.1.62,1.07,1.07,0,0,0,.34.44,1.54,1.54,0,0,0,.54.28,2.76,2.76,0,0,0,.68.11,3.7,3.7,0,0,0,.68,0,1.6,1.6,0,0,0,.57-.2,1.15,1.15,0,0,0,.39-.4,1.34,1.34,0,0,0,.17-.64,1.33,1.33,0,0,0-.1-.62,1.15,1.15,0,0,0-.33-.45,1.52,1.52,0,0,0-.54-.27A2.93,2.93,0,0,0,202.11,64.06Z" transform="translate(-11.52 -18.85)"/><path d="M203.32,59.33a1.44,1.44,0,0,1,.6.15,1.18,1.18,0,0,1,.42.38,1.37,1.37,0,0,1,.25.56,2.58,2.58,0,0,1,.06.7c0,.15,0,.3-.05.44a2.85,2.85,0,0,1-.12.38,1.46,1.46,0,0,1-.13.28.85.85,0,0,1-.11.16.32.32,0,0,1-.14.08h-.24l-.16,0-.1,0-.06,0s0,0,0-.06a.4.4,0,0,1,.07-.16l.16-.25a2,2,0,0,0,.16-.36,1.71,1.71,0,0,0,.09-.48,1.11,1.11,0,0,0,0-.37.83.83,0,0,0-.11-.29.66.66,0,0,0-.21-.2.62.62,0,0,0-.31-.08.48.48,0,0,0-.32.08.88.88,0,0,0-.23.24,1.86,1.86,0,0,0-.19.34l-.18.4a3.84,3.84,0,0,1-.21.4,1.44,1.44,0,0,1-.27.34,1.14,1.14,0,0,1-.88.3,1.07,1.07,0,0,1-.49-.12,1.11,1.11,0,0,1-.4-.32,1.53,1.53,0,0,1-.26-.51,2.2,2.2,0,0,1-.08-.71,2.27,2.27,0,0,1,0-.35,1.4,1.4,0,0,1,.09-.31,1.33,1.33,0,0,1,.1-.24,1,1,0,0,1,.1-.14.22.22,0,0,1,.07-.07l.07,0h.36l.1,0a.1.1,0,0,1,.06.05.07.07,0,0,1,0,0,.22.22,0,0,1-.06.12l-.12.21a1.81,1.81,0,0,0-.13.31,1.19,1.19,0,0,0-.07.4,1.09,1.09,0,0,0,0,.37.57.57,0,0,0,.12.26.58.58,0,0,0,.19.16.54.54,0,0,0,.25.06.51.51,0,0,0,.33-.08.82.82,0,0,0,.24-.25,2.17,2.17,0,0,0,.19-.34l.18-.4c.06-.14.13-.27.2-.4a1.36,1.36,0,0,1,.27-.35,1.13,1.13,0,0,1,.36-.24A1.24,1.24,0,0,1,203.32,59.33Z" transform="translate(-11.52 -18.85)"/><path d="M203.5,55.42a1.26,1.26,0,0,1,.59.16,1.11,1.11,0,0,1,.43.37,1.43,1.43,0,0,1,.25.56,2.61,2.61,0,0,1,.06.7,2.92,2.92,0,0,1-.06.44,1.72,1.72,0,0,1-.11.38,1.46,1.46,0,0,1-.13.28,1,1,0,0,1-.11.17.46.46,0,0,1-.14.07.88.88,0,0,1-.24,0l-.16,0-.1,0s-.05,0-.06-.05a.13.13,0,0,1,0-.06.4.4,0,0,1,.07-.16,2.22,2.22,0,0,0,.16-.25,2.29,2.29,0,0,0,.16-.35,1.71,1.71,0,0,0,.09-.48,1.54,1.54,0,0,0,0-.38.69.69,0,0,0-.12-.29.64.64,0,0,0-.2-.2.75.75,0,0,0-.31-.08.55.55,0,0,0-.32.08.91.91,0,0,0-.24.24,1.64,1.64,0,0,0-.18.35c-.06.12-.12.26-.18.39a3,3,0,0,1-.21.4,1.27,1.27,0,0,1-.27.34,1.1,1.1,0,0,1-.88.31,1.19,1.19,0,0,1-.49-.13,1.11,1.11,0,0,1-.4-.32,1.36,1.36,0,0,1-.26-.51,1.93,1.93,0,0,1-.08-.7,2,2,0,0,1,0-.35,2.49,2.49,0,0,1,.08-.32,1.67,1.67,0,0,1,.11-.23.76.76,0,0,1,.1-.15.45.45,0,0,1,.07-.07l.07,0h.36l.1,0,.06,0a.07.07,0,0,1,0,0,.28.28,0,0,1-.06.13,1,1,0,0,0-.12.21,1.42,1.42,0,0,0-.13.3,1.25,1.25,0,0,0-.07.41,1.05,1.05,0,0,0,0,.36.68.68,0,0,0,.11.26.62.62,0,0,0,.2.16.54.54,0,0,0,.25.06.51.51,0,0,0,.33-.08.76.76,0,0,0,.23-.24,2.3,2.3,0,0,0,.2-.35c.05-.13.11-.26.18-.4s.13-.27.2-.4a1.56,1.56,0,0,1,.27-.35,1,1,0,0,1,.36-.23A1.23,1.23,0,0,1,203.5,55.42Z" transform="translate(-11.52 -18.85)"/><path d="M198.33,50.1a9.26,9.26,0,0,0,2,.78,9.7,9.7,0,0,0,2.06.32,9.15,9.15,0,0,0,2.09-.13,10.65,10.65,0,0,0,2-.59l.1,0a.08.08,0,0,1,.07,0,.13.13,0,0,1,0,.1,1.09,1.09,0,0,1,0,.2c0,.05,0,.1,0,.15l0,.11a.16.16,0,0,1,0,.07.08.08,0,0,1,0,0,10.11,10.11,0,0,1-1,.42,10.27,10.27,0,0,1-1,.29,10,10,0,0,1-1.08.15,8.55,8.55,0,0,1-2.18-.1,10.12,10.12,0,0,1-1-.27,9.81,9.81,0,0,1-1-.38c-.33-.15-.66-.32-1-.5t0,0a.16.16,0,0,1,0-.06s0-.06,0-.11v-.17a.66.66,0,0,1,0-.18.28.28,0,0,1,0-.11.1.1,0,0,1,.07,0A.13.13,0,0,1,198.33,50.1Z" transform="translate(-11.52 -18.85)"/><path d="M200.47,46.51a2.84,2.84,0,0,1,.68.11,1.4,1.4,0,0,1,.51.28,1.12,1.12,0,0,1,.32.45,1.45,1.45,0,0,1,.09.61,1.41,1.41,0,0,1-.14.61,1,1,0,0,1-.34.4,1.4,1.4,0,0,1-.53.21,2.59,2.59,0,0,1-.7,0,2.27,2.27,0,0,1-.65-.11,1.38,1.38,0,0,1-.51-.27,1.14,1.14,0,0,1-.33-.44,1.37,1.37,0,0,1-.1-.62,1.47,1.47,0,0,1,.16-.64,1,1,0,0,1,.38-.4,1.26,1.26,0,0,1,.52-.2A3.39,3.39,0,0,1,200.47,46.51Zm4.72,1.6a.13.13,0,0,1,.07.06l0,.08a.43.43,0,0,1,0,.12v.17a.4.4,0,0,1,0,.17.19.19,0,0,1-.05.09.11.11,0,0,1-.08,0,.27.27,0,0,1-.1-.06L199,44.09a.13.13,0,0,1-.06-.07.2.2,0,0,1,0-.08s0-.08,0-.12v-.17a.74.74,0,0,1,0-.17.19.19,0,0,1,0-.09.15.15,0,0,1,.09,0l.1.05Zm-4.73-.92a2.57,2.57,0,0,0-.49,0,1.18,1.18,0,0,0-.36.1.61.61,0,0,0-.22.2.62.62,0,0,0-.08.31.56.56,0,0,0,.05.3.53.53,0,0,0,.2.22,1,1,0,0,0,.33.13,1.68,1.68,0,0,0,.47.06,2.42,2.42,0,0,0,.56,0,1,1,0,0,0,.36-.11.43.43,0,0,0,.19-.21.65.65,0,0,0,.06-.29.53.53,0,0,0-.06-.32.45.45,0,0,0-.2-.21,1.11,1.11,0,0,0-.35-.13Zm3.33-4.26a2.76,2.76,0,0,1,.68.11,1.62,1.62,0,0,1,.52.28,1.1,1.1,0,0,1,.31.45,1.35,1.35,0,0,1,.1.62,1.56,1.56,0,0,1-.14.6,1,1,0,0,1-.34.4,1.47,1.47,0,0,1-.53.21,3.07,3.07,0,0,1-.7,0,2.68,2.68,0,0,1-.66-.11,1.9,1.9,0,0,1-.51-.27,1.12,1.12,0,0,1-.32-.45,1.33,1.33,0,0,1-.1-.62,1.34,1.34,0,0,1,.16-.64,1.19,1.19,0,0,1,.37-.4,1.46,1.46,0,0,1,.53-.2A3.25,3.25,0,0,1,203.79,42.93Zm0,.68a2.5,2.5,0,0,0-.49,0,1.18,1.18,0,0,0-.36.1.5.5,0,0,0-.22.21.66.66,0,0,0-.09.3.75.75,0,0,0,.06.31.63.63,0,0,0,.19.21,1.2,1.2,0,0,0,.34.14,2.85,2.85,0,0,0,.47.06,3.2,3.2,0,0,0,.56,0,1.18,1.18,0,0,0,.35-.12.39.39,0,0,0,.19-.21.82.82,0,0,0,.07-.29.53.53,0,0,0-.06-.32.43.43,0,0,0-.21-.21.86.86,0,0,0-.34-.12A2.86,2.86,0,0,0,203.79,43.61Z" transform="translate(-11.52 -18.85)"/><path d="M202.89,40.16a7.89,7.89,0,0,1,1.09.11,9.64,9.64,0,0,1,1.06.26,8.44,8.44,0,0,1,1,.38q.49.23,1,.51s0,0,0,0l0,.08a.37.37,0,0,1,0,.11v.15a1,1,0,0,1,0,.2.34.34,0,0,1,0,.1.11.11,0,0,1-.07,0l-.1,0a10.76,10.76,0,0,0-2-.77,9.69,9.69,0,0,0-2.07-.32,9.83,9.83,0,0,0-2.09.13,9.5,9.5,0,0,0-2,.6h-.08s0,0-.06-.05a.23.23,0,0,1,0-.11,1.05,1.05,0,0,1,0-.18c0-.07,0-.12,0-.17l0-.11,0-.06,0,0a10.48,10.48,0,0,1,2.09-.7A7.83,7.83,0,0,1,202.89,40.16Z" transform="translate(-11.52 -18.85)"/><polyline class="cls-9" points="148.32 89.91 61.83 64.83 7.93 109.9"/><polyline class="cls-9" points="149.35 67.43 61.58 43.07 6.82 86.87"/><polyline class="cls-9" points="150.41 44.26 61.33 20.68 5.68 63.11"/><line class="cls-8" x1="147.6" y1="89.7" x2="149.78" y2="90.33"/><path d="M180.26,109.78a6.81,6.81,0,0,1-.11,1.33,3,3,0,0,1-.38,1,1.87,1.87,0,0,1-.7.67,2.13,2.13,0,0,1-1.06.24,2.17,2.17,0,0,1-1-.21,1.73,1.73,0,0,1-.66-.63,3,3,0,0,1-.35-1,8.25,8.25,0,0,1-.11-1.39,6.74,6.74,0,0,1,.12-1.32,3.26,3.26,0,0,1,.38-1,1.92,1.92,0,0,1,.69-.67,2.16,2.16,0,0,1,1.06-.23,2.19,2.19,0,0,1,1,.21,1.61,1.61,0,0,1,.65.62,2.92,2.92,0,0,1,.36,1A8.11,8.11,0,0,1,180.26,109.78Zm-.86.06c0-.31,0-.6,0-.85a5.15,5.15,0,0,0-.1-.66,2.09,2.09,0,0,0-.17-.5,1.11,1.11,0,0,0-.25-.34,1.05,1.05,0,0,0-.34-.2,1.33,1.33,0,0,0-.42-.06,1.07,1.07,0,0,0-.67.2,1.34,1.34,0,0,0-.41.54,2.53,2.53,0,0,0-.2.8,7.47,7.47,0,0,0-.06,1,8.14,8.14,0,0,0,.08,1.21,2.61,2.61,0,0,0,.23.81,1.1,1.1,0,0,0,.4.45,1.27,1.27,0,0,0,.6.14,1.21,1.21,0,0,0,.48-.09,1,1,0,0,0,.36-.25,1.53,1.53,0,0,0,.25-.39,3.09,3.09,0,0,0,.15-.51,3.63,3.63,0,0,0,.08-.6C179.4,110.3,179.4,110.08,179.4,109.84Z" transform="translate(-11.52 -18.85)"/><line class="cls-8" x1="148.62" y1="67.22" x2="150.83" y2="67.84"/><path d="M178.83,90.22a.48.48,0,0,1-.05.26l-.06,0-.06,0h-3.3l-.07,0a.12.12,0,0,1,0,0,.28.28,0,0,1,0-.11.57.57,0,0,1,0-.3.81.81,0,0,1,0-.11s0,0,.06-.06a.08.08,0,0,1,.07,0h1.31V85.07l-1.22.73-.15.06a.11.11,0,0,1-.09,0,.19.19,0,0,1,0-.1,1,1,0,0,1,0-.19V85.4l0-.1,0-.06.07-.06,1.45-.93.05,0,.08,0h.44l.12,0a.1.1,0,0,1,.06,0,.09.09,0,0,1,0,0v5.56h1.15a.1.1,0,0,1,.07,0,.17.17,0,0,1,.06.06.81.81,0,0,1,0,.11A.66.66,0,0,1,178.83,90.22Z" transform="translate(-11.52 -18.85)"/><path d="M184.1,87.38A6.74,6.74,0,0,1,184,88.7a2.92,2.92,0,0,1-.38,1,1.89,1.89,0,0,1-.69.66,2.16,2.16,0,0,1-1.06.24,2.19,2.19,0,0,1-1-.21,1.58,1.58,0,0,1-.65-.63,2.8,2.8,0,0,1-.36-1,8.24,8.24,0,0,1-.1-1.39,7.66,7.66,0,0,1,.11-1.32,3.36,3.36,0,0,1,.38-1,1.85,1.85,0,0,1,.7-.66,2.12,2.12,0,0,1,1.05-.24,2.19,2.19,0,0,1,1,.21,1.7,1.7,0,0,1,.66.62,3.14,3.14,0,0,1,.35,1A8.08,8.08,0,0,1,184.1,87.38Zm-.86.05a7.46,7.46,0,0,0,0-.85,3.84,3.84,0,0,0-.1-.66,2.09,2.09,0,0,0-.17-.5,1.25,1.25,0,0,0-.25-.34.92.92,0,0,0-.33-.19,1.44,1.44,0,0,0-.43-.06,1.09,1.09,0,0,0-.67.19,1.34,1.34,0,0,0-.41.54,2.6,2.6,0,0,0-.2.8,7.71,7.71,0,0,0,0,1,8.24,8.24,0,0,0,.07,1.2,2.91,2.91,0,0,0,.23.81,1,1,0,0,0,.41.45,1.1,1.1,0,0,0,.59.14,1.44,1.44,0,0,0,.49-.08,1.1,1.1,0,0,0,.35-.26,1.38,1.38,0,0,0,.25-.39,2.35,2.35,0,0,0,.15-.51,3.49,3.49,0,0,0,.08-.6C183.23,87.89,183.24,87.67,183.24,87.43Z" transform="translate(-11.52 -18.85)"/><line class="cls-8" x1="149.66" y1="44.06" x2="151.91" y2="44.66"/><path d="M180.15,67.1a.81.81,0,0,1,0,.16s0,.08,0,.12l-.06.06a.12.12,0,0,1-.08,0h-3.61a.15.15,0,0,1-.09-.06s0-.06-.06-.11a1,1,0,0,1,0-.18.86.86,0,0,1,0-.17.28.28,0,0,1,0-.13.39.39,0,0,1,.06-.11l.1-.12,1.26-1.3a7.36,7.36,0,0,0,.7-.81,3.58,3.58,0,0,0,.41-.65,1.9,1.9,0,0,0,.19-.53,2.42,2.42,0,0,0,0-.45,1.09,1.09,0,0,0-.07-.4.94.94,0,0,0-.2-.33,1,1,0,0,0-.33-.22,1.16,1.16,0,0,0-.47-.08,1.59,1.59,0,0,0-.55.08,2.14,2.14,0,0,0-.43.18l-.31.18a.33.33,0,0,1-.18.08.07.07,0,0,1-.06,0,.1.1,0,0,1-.05-.06.37.37,0,0,1,0-.12.79.79,0,0,1,0-.17c0-.05,0-.09,0-.13a.2.2,0,0,1,0-.09s0,0,0-.08a.29.29,0,0,1,.08-.08l.2-.14a2,2,0,0,1,.36-.17,3,3,0,0,1,.48-.15,2.54,2.54,0,0,1,1.35.07,1.64,1.64,0,0,1,.57.36,1.38,1.38,0,0,1,.34.52,1.67,1.67,0,0,1,.11.63,3.08,3.08,0,0,1-.05.61,2.22,2.22,0,0,1-.23.65,4.3,4.3,0,0,1-.5.77,8.53,8.53,0,0,1-.87,1l-1,1H180l.08,0,.06.07a.36.36,0,0,1,0,.11A.71.71,0,0,1,180.15,67.1Z" transform="translate(-11.52 -18.85)"/><path d="M185.43,64.29a7.69,7.69,0,0,1-.11,1.33,3.29,3.29,0,0,1-.38,1,1.87,1.87,0,0,1-.7.67,2.47,2.47,0,0,1-2.06,0,1.66,1.66,0,0,1-.66-.63,2.79,2.79,0,0,1-.35-1,8.25,8.25,0,0,1-.11-1.39,6.92,6.92,0,0,1,.12-1.33,3.06,3.06,0,0,1,.38-1,1.85,1.85,0,0,1,.69-.67,2.16,2.16,0,0,1,1.06-.24,2.22,2.22,0,0,1,1,.22,1.61,1.61,0,0,1,.65.62,2.92,2.92,0,0,1,.36,1A8.11,8.11,0,0,1,185.43,64.29Zm-.86.06c0-.32,0-.6,0-.85s-.06-.47-.1-.66a2.43,2.43,0,0,0-.17-.5A1.14,1.14,0,0,0,184,62a.79.79,0,0,0-.33-.2,1.42,1.42,0,0,0-.42-.06,1.12,1.12,0,0,0-.68.2,1.35,1.35,0,0,0-.4.53,3,3,0,0,0-.21.81c0,.3-.05.63-.05,1a8.24,8.24,0,0,0,.07,1.2,2.44,2.44,0,0,0,.24.81,1.07,1.07,0,0,0,.4.46,1.34,1.34,0,0,0,1.08,0,1,1,0,0,0,.36-.25,1.28,1.28,0,0,0,.24-.39,2.76,2.76,0,0,0,.16-.51,3.78,3.78,0,0,0,.08-.6C184.56,64.81,184.57,64.58,184.57,64.35Z" transform="translate(-11.52 -18.85)"/><g class="cls-10"><line class="cls-11" x1="69.88" y1="55.71" x2="69.86" y2="52.55"/></g><g class="cls-10"><line class="cls-11" x1="77.79" y1="36.74" x2="77.79" y2="31.3"/></g><g class="cls-10"><line class="cls-11" x1="59.85" y1="75.84" x2="59.84" y2="74.96"/></g><g class="cls-10"><line class="cls-11" x1="59.86" y1="76.94" x2="59.84" y2="74.96"/></g><g class="cls-10"><line class="cls-11" x1="59.89" y1="78.82" x2="59.84" y2="74.96"/></g><g class="cls-10"><line class="cls-11" x1="93.22" y1="84.65" x2="93.23" y2="83.57"/></g><g class="cls-10"><line class="cls-11" x1="93.22" y1="85.15" x2="93.23" y2="83.57"/></g><g class="cls-10"><line class="cls-11" x1="93.23" y1="83.62" x2="93.23" y2="83.57"/></g><g class="cls-10"><line class="cls-11" x1="48.02" y1="89.5" x2="47.89" y2="83.17"/></g><g class="cls-10"><line class="cls-11" x1="37.65" y1="93.15" x2="37.59" y2="91.31"/></g><g class="cls-10"><line class="cls-11" x1="37.74" y1="96.46" x2="37.59" y2="91.31"/></g><g class="cls-10"><line class="cls-12" x1="69.86" y1="52.55" x2="69.83" y2="47.84"/></g><g class="cls-10"><line class="cls-12" x1="69.86" y1="52.55" x2="69.84" y2="49.99"/></g><g class="cls-10"><line class="cls-12" x1="77.79" y1="31.3" x2="77.79" y2="28.95"/></g><g class="cls-10"><line class="cls-12" x1="59.84" y1="74.96" x2="59.83" y2="74.64"/></g><g class="cls-10"><line class="cls-12" x1="59.84" y1="74.96" x2="59.83" y2="74.13"/></g><g class="cls-10"><line class="cls-12" x1="59.84" y1="74.96" x2="59.81" y2="73.09"/></g><g class="cls-10"><line class="cls-12" x1="75.82" y1="78.44" x2="75.81" y2="76.59"/></g><g class="cls-10"><line class="cls-12" x1="75.82" y1="78.44" x2="75.82" y2="77.73"/></g><g class="cls-10"><line class="cls-12" x1="75.82" y1="78.44" x2="75.82" y2="78.31"/></g><g class="cls-10"><line class="cls-12" x1="47.89" y1="83.17" x2="47.76" y2="77.26"/></g><g class="cls-10"><line class="cls-12" x1="37.59" y1="91.31" x2="37.58" y2="90.87"/></g><g class="cls-10"><line class="cls-12" x1="50.62" y1="81.51" x2="50.6" y2="80.55"/></g><g class="cls-10"><line class="cls-12" x1="50.62" y1="81.51" x2="50.59" y2="79.97"/></g><g class="cls-10"><line class="cls-12" x1="40.33" y1="89.64" x2="40.28" y2="87.62"/></g><g class="cls-10"><line class="cls-12" x1="40.33" y1="89.64" x2="40.17" y2="83.43"/></g><g class="cls-10"><line class="cls-12" x1="40.33" y1="89.64" x2="40.29" y2="87.96"/></g><g class="cls-10"><g class="cls-13"><path class="cls-14" d="M81.4,76.06a1.5,1.5,0,0,0,1.06-.44,1.51,1.51,0,0,0,0-2.13,1.52,1.52,0,0,0-2.12,0,1.51,1.51,0,0,0,0,2.13A1.5,1.5,0,0,0,81.4,76.06Z" transform="translate(-11.52 -18.85)"/><path class="cls-15" d="M81.4,76.06a1.5,1.5,0,0,0,1.06-.44,1.51,1.51,0,0,0,0-2.13,1.52,1.52,0,0,0-2.12,0,1.51,1.51,0,0,0,0,2.13A1.5,1.5,0,0,0,81.4,76.06Z" transform="translate(-11.52 -18.85)"/></g><g class="cls-16"><path class="cls-14" d="M89.31,57.09a1.54,1.54,0,0,0,1.07-.44,1.51,1.51,0,0,0,.43-1.06,1.5,1.5,0,0,0-3,0,1.52,1.52,0,0,0,.44,1.06A1.53,1.53,0,0,0,89.31,57.09Z" transform="translate(-11.52 -18.85)"/><path class="cls-15" d="M89.31,57.09a1.54,1.54,0,0,0,1.07-.44,1.51,1.51,0,0,0,.43-1.06,1.5,1.5,0,0,0-3,0,1.52,1.52,0,0,0,.44,1.06A1.53,1.53,0,0,0,89.31,57.09Z" transform="translate(-11.52 -18.85)"/></g><g class="cls-17"><path class="cls-14" d="M71.37,96.19a1.5,1.5,0,1,0-1.06-.44A1.5,1.5,0,0,0,71.37,96.19Z" transform="translate(-11.52 -18.85)"/><path class="cls-15" d="M71.37,96.19a1.5,1.5,0,1,0-1.06-.44A1.5,1.5,0,0,0,71.37,96.19Z" transform="translate(-11.52 -18.85)"/></g><g class="cls-18"><path class="cls-14" d="M71.38,97.29a1.5,1.5,0,1,0-1.06-.44A1.5,1.5,0,0,0,71.38,97.29Z" transform="translate(-11.52 -18.85)"/><path class="cls-15" d="M71.38,97.29a1.5,1.5,0,1,0-1.06-.44A1.5,1.5,0,0,0,71.38,97.29Z" transform="translate(-11.52 -18.85)"/></g><g class="cls-19"><path class="cls-14" d="M71.41,99.17a1.51,1.51,0,0,0,1.06-.43,1.54,1.54,0,0,0,.44-1.07,1.5,1.5,0,0,0-1.5-1.5,1.5,1.5,0,0,0-1.06.44,1.47,1.47,0,0,0-.44,1.06,1.49,1.49,0,0,0,1.5,1.5Z" transform="translate(-11.52 -18.85)"/><path class="cls-15" d="M71.41,99.17a1.51,1.51,0,0,0,1.06-.43,1.54,1.54,0,0,0,.44-1.07,1.5,1.5,0,0,0-1.5-1.5,1.5,1.5,0,0,0-1.06.44,1.47,1.47,0,0,0-.44,1.06,1.49,1.49,0,0,0,1.5,1.5Z" transform="translate(-11.52 -18.85)"/></g><g class="cls-20"><path class="cls-14" d="M104.74,105a1.54,1.54,0,0,0,1.07-.44,1.52,1.52,0,0,0,0-2.12,1.51,1.51,0,0,0-2.13,0,1.5,1.5,0,0,0,0,2.12A1.53,1.53,0,0,0,104.74,105Z" transform="translate(-11.52 -18.85)"/><path class="cls-15" d="M104.74,105a1.54,1.54,0,0,0,1.07-.44,1.52,1.52,0,0,0,0-2.12,1.51,1.51,0,0,0-2.13,0,1.5,1.5,0,0,0,0,2.12A1.53,1.53,0,0,0,104.74,105Z" transform="translate(-11.52 -18.85)"/></g><g class="cls-21"><path class="cls-14" d="M104.74,105.5a1.5,1.5,0,0,0,1.5-1.5,1.52,1.52,0,0,0-.44-1.06,1.5,1.5,0,0,0-2.12,0,1.52,1.52,0,0,0-.44,1.06,1.5,1.5,0,0,0,1.5,1.5Z" transform="translate(-11.52 -18.85)"/><path class="cls-15" d="M104.74,105.5a1.5,1.5,0,0,0,1.5-1.5,1.52,1.52,0,0,0-.44-1.06,1.5,1.5,0,0,0-2.12,0,1.52,1.52,0,0,0-.44,1.06,1.5,1.5,0,0,0,1.5,1.5Z" transform="translate(-11.52 -18.85)"/></g><g class="cls-22"><path class="cls-14" d="M104.75,104a1.5,1.5,0,0,0,1.06-.44,1.5,1.5,0,0,0,0-2.12,1.5,1.5,0,0,0-1.06-.44,1.52,1.52,0,0,0-1.06.44,1.5,1.5,0,0,0,0,2.12A1.52,1.52,0,0,0,104.75,104Z" transform="translate(-11.52 -18.85)"/><path class="cls-15" d="M104.75,104a1.5,1.5,0,0,0,1.06-.44,1.5,1.5,0,0,0,0-2.12,1.5,1.5,0,0,0-1.06-.44,1.52,1.52,0,0,0-1.06.44,1.5,1.5,0,0,0,0,2.12A1.52,1.52,0,0,0,104.75,104Z" transform="translate(-11.52 -18.85)"/></g><g class="cls-23"><path class="cls-14" d="M59.54,109.85a1.5,1.5,0,1,0-1.06-.44A1.5,1.5,0,0,0,59.54,109.85Z" transform="translate(-11.52 -18.85)"/><path class="cls-15" d="M59.54,109.85a1.5,1.5,0,1,0-1.06-.44A1.5,1.5,0,0,0,59.54,109.85Z" transform="translate(-11.52 -18.85)"/></g><g class="cls-24"><path class="cls-14" d="M49.17,113.5a1.52,1.52,0,0,0,1.06-.44,1.5,1.5,0,0,0,0-2.12,1.52,1.52,0,0,0-1.06-.44,1.5,1.5,0,0,0-1.06.44,1.5,1.5,0,0,0,0,2.12A1.5,1.5,0,0,0,49.17,113.5Z" transform="translate(-11.52 -18.85)"/><path class="cls-15" d="M49.17,113.5a1.52,1.52,0,0,0,1.06-.44,1.5,1.5,0,0,0,0-2.12,1.52,1.52,0,0,0-1.06-.44,1.5,1.5,0,0,0-1.06.44,1.5,1.5,0,0,0,0,2.12A1.5,1.5,0,0,0,49.17,113.5Z" transform="translate(-11.52 -18.85)"/></g><g class="cls-25"><path class="cls-14" d="M49.26,116.81a1.5,1.5,0,1,0-1.06-.44A1.5,1.5,0,0,0,49.26,116.81Z" transform="translate(-11.52 -18.85)"/><path class="cls-15" d="M49.26,116.81a1.5,1.5,0,1,0-1.06-.44A1.5,1.5,0,0,0,49.26,116.81Z" transform="translate(-11.52 -18.85)"/></g></g><g class="cls-10"><g class="cls-26"><path class="cls-27" d="M81.35,68.19a1.5,1.5,0,0,0,1.06-.44,1.52,1.52,0,0,0,.44-1.06,1.5,1.5,0,0,0-.44-1.06,1.5,1.5,0,0,0-2.12,0,1.5,1.5,0,0,0-.44,1.06,1.52,1.52,0,0,0,.44,1.06A1.5,1.5,0,0,0,81.35,68.19Z" transform="translate(-11.52 -18.85)"/><path class="cls-28" d="M81.35,68.19a1.5,1.5,0,0,0,1.06-.44,1.52,1.52,0,0,0,.44-1.06,1.5,1.5,0,0,0-.44-1.06,1.5,1.5,0,0,0-2.12,0,1.5,1.5,0,0,0-.44,1.06,1.52,1.52,0,0,0,.44,1.06A1.5,1.5,0,0,0,81.35,68.19Z" transform="translate(-11.52 -18.85)"/></g><g class="cls-29"><path class="cls-27" d="M81.36,70.34a1.54,1.54,0,0,0,1.07-.44,1.52,1.52,0,0,0,0-2.12,1.51,1.51,0,0,0-2.13,0,1.5,1.5,0,0,0,0,2.12A1.53,1.53,0,0,0,81.36,70.34Z" transform="translate(-11.52 -18.85)"/><path class="cls-28" d="M81.36,70.34a1.54,1.54,0,0,0,1.07-.44,1.52,1.52,0,0,0,0-2.12,1.51,1.51,0,0,0-2.13,0,1.5,1.5,0,0,0,0,2.12A1.53,1.53,0,0,0,81.36,70.34Z" transform="translate(-11.52 -18.85)"/></g><g class="cls-30"><path class="cls-27" d="M89.31,49.3a1.52,1.52,0,0,0,1.06-.44,1.5,1.5,0,0,0,0-2.12,1.52,1.52,0,0,0-1.06-.44,1.5,1.5,0,0,0-1.06.44,1.5,1.5,0,0,0,0,2.12A1.5,1.5,0,0,0,89.31,49.3Z" transform="translate(-11.52 -18.85)"/><path class="cls-28" d="M89.31,49.3a1.52,1.52,0,0,0,1.06-.44,1.5,1.5,0,0,0,0-2.12,1.52,1.52,0,0,0-1.06-.44,1.5,1.5,0,0,0-1.06.44,1.5,1.5,0,0,0,0,2.12A1.5,1.5,0,0,0,89.31,49.3Z" transform="translate(-11.52 -18.85)"/></g><g class="cls-31"><path class="cls-27" d="M71.35,95a1.5,1.5,0,0,0,0-3,1.52,1.52,0,0,0-1.06.44,1.5,1.5,0,0,0,0,2.12A1.52,1.52,0,0,0,71.35,95Z" transform="translate(-11.52 -18.85)"/><path class="cls-28" d="M71.35,95a1.5,1.5,0,0,0,0-3,1.52,1.52,0,0,0-1.06.44,1.5,1.5,0,0,0,0,2.12A1.52,1.52,0,0,0,71.35,95Z" transform="translate(-11.52 -18.85)"/></g><g class="cls-32"><path class="cls-27" d="M71.35,94.48A1.52,1.52,0,0,0,72.41,94a1.5,1.5,0,0,0,0-2.12,1.52,1.52,0,0,0-1.06-.44,1.5,1.5,0,0,0-1.06.44,1.5,1.5,0,0,0,0,2.12A1.5,1.5,0,0,0,71.35,94.48Z" transform="translate(-11.52 -18.85)"/><path class="cls-28" d="M71.35,94.48A1.52,1.52,0,0,0,72.41,94a1.5,1.5,0,0,0,0-2.12,1.52,1.52,0,0,0-1.06-.44,1.5,1.5,0,0,0-1.06.44,1.5,1.5,0,0,0,0,2.12A1.5,1.5,0,0,0,71.35,94.48Z" transform="translate(-11.52 -18.85)"/></g><g class="cls-33"><path class="cls-27" d="M71.33,93.44a1.5,1.5,0,0,0,0-3,1.52,1.52,0,0,0-1.06.44,1.5,1.5,0,0,0,0,2.12A1.52,1.52,0,0,0,71.33,93.44Z" transform="translate(-11.52 -18.85)"/><path class="cls-28" d="M71.33,93.44a1.5,1.5,0,0,0,0-3,1.52,1.52,0,0,0-1.06.44,1.5,1.5,0,0,0,0,2.12A1.52,1.52,0,0,0,71.33,93.44Z" transform="translate(-11.52 -18.85)"/></g><g class="cls-34"><path class="cls-27" d="M87.34,96.94a1.53,1.53,0,0,0,1.06-.44,1.5,1.5,0,0,0,0-2.12,1.51,1.51,0,0,0-2.13,0,1.52,1.52,0,0,0,0,2.12A1.54,1.54,0,0,0,87.34,96.94Z" transform="translate(-11.52 -18.85)"/><path class="cls-28" d="M87.34,96.94a1.53,1.53,0,0,0,1.06-.44,1.5,1.5,0,0,0,0-2.12,1.51,1.51,0,0,0-2.13,0,1.52,1.52,0,0,0,0,2.12A1.54,1.54,0,0,0,87.34,96.94Z" transform="translate(-11.52 -18.85)"/></g><g class="cls-35"><path class="cls-27" d="M87.34,98.08a1.5,1.5,0,0,0,1.5-1.5,1.52,1.52,0,0,0-.44-1.06,1.5,1.5,0,0,0-2.12,0,1.52,1.52,0,0,0-.44,1.06,1.5,1.5,0,0,0,1.5,1.5Z" transform="translate(-11.52 -18.85)"/><path class="cls-28" d="M87.34,98.08a1.5,1.5,0,0,0,1.5-1.5,1.52,1.52,0,0,0-.44-1.06,1.5,1.5,0,0,0-2.12,0,1.52,1.52,0,0,0-.44,1.06,1.5,1.5,0,0,0,1.5,1.5Z" transform="translate(-11.52 -18.85)"/></g><g class="cls-36"><path class="cls-27" d="M87.34,98.66a1.5,1.5,0,0,0,1.06-.44,1.51,1.51,0,0,0,0-2.13,1.52,1.52,0,0,0-2.12,0,1.51,1.51,0,0,0,0,2.13A1.5,1.5,0,0,0,87.34,98.66Z" transform="translate(-11.52 -18.85)"/><path class="cls-28" d="M87.34,98.66a1.5,1.5,0,0,0,1.06-.44,1.51,1.51,0,0,0,0-2.13,1.52,1.52,0,0,0-2.12,0,1.51,1.51,0,0,0,0,2.13A1.5,1.5,0,0,0,87.34,98.66Z" transform="translate(-11.52 -18.85)"/></g><g class="cls-37"><path class="cls-27" d="M59.28,97.61a1.5,1.5,0,0,0,1.06-.44,1.5,1.5,0,0,0,0-2.12,1.5,1.5,0,0,0-1.06-.44,1.52,1.52,0,0,0-1.06.44,1.5,1.5,0,0,0,0,2.12A1.52,1.52,0,0,0,59.28,97.61Z" transform="translate(-11.52 -18.85)"/><path class="cls-28" d="M59.28,97.61a1.5,1.5,0,0,0,1.06-.44,1.5,1.5,0,0,0,0-2.12,1.5,1.5,0,0,0-1.06-.44,1.52,1.52,0,0,0-1.06.44,1.5,1.5,0,0,0,0,2.12A1.52,1.52,0,0,0,59.28,97.61Z" transform="translate(-11.52 -18.85)"/></g><g class="cls-38"><path class="cls-27" d="M49.1,111.22a1.5,1.5,0,0,0,1.5-1.5,1.47,1.47,0,0,0-.44-1.06,1.5,1.5,0,0,0-1.06-.44,1.5,1.5,0,0,0-1.5,1.5,1.5,1.5,0,0,0,.44,1.06A1.47,1.47,0,0,0,49.1,111.22Z" transform="translate(-11.52 -18.85)"/><path class="cls-28" d="M49.1,111.22a1.5,1.5,0,0,0,1.5-1.5,1.47,1.47,0,0,0-.44-1.06,1.5,1.5,0,0,0-1.06-.44,1.5,1.5,0,0,0-1.5,1.5,1.5,1.5,0,0,0,.44,1.06A1.47,1.47,0,0,0,49.1,111.22Z" transform="translate(-11.52 -18.85)"/></g><g class="cls-39"><path class="cls-27" d="M62.12,100.9a1.5,1.5,0,1,0-1.06-.44A1.5,1.5,0,0,0,62.12,100.9Z" transform="translate(-11.52 -18.85)"/><path class="cls-28" d="M62.12,100.9a1.5,1.5,0,1,0-1.06-.44A1.5,1.5,0,0,0,62.12,100.9Z" transform="translate(-11.52 -18.85)"/></g><g class="cls-40"><path class="cls-27" d="M62.11,100.32a1.5,1.5,0,1,0-1.06-.44A1.5,1.5,0,0,0,62.11,100.32Z" transform="translate(-11.52 -18.85)"/><path class="cls-28" d="M62.11,100.32a1.5,1.5,0,1,0-1.06-.44A1.5,1.5,0,0,0,62.11,100.32Z" transform="translate(-11.52 -18.85)"/></g><g class="cls-41"><path class="cls-27" d="M51.8,108a1.51,1.51,0,0,0,1.06-.43,1.51,1.51,0,0,0,0-2.13A1.52,1.52,0,0,0,51.8,105a1.5,1.5,0,0,0-1.06.44,1.51,1.51,0,0,0,0,2.13A1.49,1.49,0,0,0,51.8,108Z" transform="translate(-11.52 -18.85)"/><path class="cls-28" d="M51.8,108a1.51,1.51,0,0,0,1.06-.43,1.51,1.51,0,0,0,0-2.13A1.52,1.52,0,0,0,51.8,105a1.5,1.5,0,0,0-1.06.44,1.51,1.51,0,0,0,0,2.13A1.49,1.49,0,0,0,51.8,108Z" transform="translate(-11.52 -18.85)"/></g><g class="cls-42"><path class="cls-27" d="M51.69,103.78a1.5,1.5,0,1,0-1.06-.44A1.5,1.5,0,0,0,51.69,103.78Z" transform="translate(-11.52 -18.85)"/><path class="cls-28" d="M51.69,103.78a1.5,1.5,0,1,0-1.06-.44A1.5,1.5,0,0,0,51.69,103.78Z" transform="translate(-11.52 -18.85)"/></g><g class="cls-43"><path class="cls-27" d="M51.81,108.31a1.52,1.52,0,0,0,1.06-.44,1.5,1.5,0,0,0,0-2.12,1.52,1.52,0,0,0-1.06-.44,1.5,1.5,0,0,0-1.06.44,1.5,1.5,0,0,0,0,2.12A1.5,1.5,0,0,0,51.81,108.31Z" transform="translate(-11.52 -18.85)"/><path class="cls-28" d="M51.81,108.31a1.52,1.52,0,0,0,1.06-.44,1.5,1.5,0,0,0,0-2.12,1.52,1.52,0,0,0-1.06-.44,1.5,1.5,0,0,0-1.06.44,1.5,1.5,0,0,0,0,2.12A1.5,1.5,0,0,0,51.81,108.31Z" transform="translate(-11.52 -18.85)"/></g></g><g class="cls-10"><polygon class="cls-44" points="49.9 52.16 70.5 50.4 82.64 32.15 62.14 34.19 49.9 52.16"/><polygon class="cls-45" points="49.9 52.16 70.5 50.4 82.64 32.15 62.14 34.19 49.9 52.16"/><polygon class="cls-44" points="37.27 70.68 57.99 69.21 70.5 50.4 49.9 52.16 37.27 70.68"/><polygon class="cls-45" points="37.27 70.68 57.99 69.21 70.5 50.4 49.9 52.16 37.27 70.68"/><polygon class="cls-44" points="70.5 50.4 91.82 48.57 103.83 30.05 82.64 32.15 70.5 50.4"/><polygon class="cls-45" points="70.5 50.4 91.82 48.57 103.83 30.05 82.64 32.15 70.5 50.4"/><polygon class="cls-44" points="24.26 89.78 45.08 88.62 57.99 69.21 37.27 70.68 24.26 89.78"/><polygon class="cls-45" points="24.26 89.78 45.08 88.62 57.99 69.21 37.27 70.68 24.26 89.78"/><polygon class="cls-44" points="57.99 69.21 79.42 67.69 91.82 48.57 70.5 50.4 57.99 69.21"/><polygon class="cls-45" points="57.99 69.21 79.42 67.69 91.82 48.57 70.5 50.4 57.99 69.21"/><polygon class="cls-44" points="91.82 48.57 113.89 46.68 125.76 27.87 103.83 30.05 91.82 48.57"/><polygon class="cls-45" points="91.82 48.57 113.89 46.68 125.76 27.87 103.83 30.05 91.82 48.57"/><polygon class="cls-44" points="10.84 109.48 31.75 108.65 45.08 88.62 24.26 89.78 10.84 109.48"/><polygon class="cls-45" points="10.84 109.48 31.75 108.65 45.08 88.62 24.26 89.78 10.84 109.48"/><polygon class="cls-44" points="45.08 88.62 66.63 87.42 79.42 67.69 57.99 69.21 45.08 88.62"/><polygon class="cls-45" points="45.08 88.62 66.63 87.42 79.42 67.69 57.99 69.21 45.08 88.62"/><polygon class="cls-44" points="79.42 67.69 101.62 66.11 113.89 46.68 91.82 48.57 79.42 67.69"/><polygon class="cls-45" points="79.42 67.69 101.62 66.11 113.89 46.68 91.82 48.57 79.42 67.69"/><polygon class="cls-44" points="113.89 46.68 136.74 44.73 148.46 25.61 125.76 27.87 113.89 46.68"/><polygon class="cls-45" points="113.89 46.68 136.74 44.73 148.46 25.61 125.76 27.87 113.89 46.68"/><polygon class="cls-44" points="31.75 108.65 53.41 107.79 66.63 87.42 45.08 88.62 31.75 108.65"/><polygon class="cls-45" points="31.75 108.65 53.41 107.79 66.63 87.42 45.08 88.62 31.75 108.65"/><polygon class="cls-44" points="66.63 87.42 88.96 86.17 101.62 66.11 79.42 67.69 66.63 87.42"/><polygon class="cls-45" points="66.63 87.42 88.96 86.17 101.62 66.11 79.42 67.69 66.63 87.42"/><polygon class="cls-44" points="101.62 66.11 124.63 64.47 136.74 44.73 113.89 46.68 101.62 66.11"/><polygon class="cls-45" points="101.62 66.11 124.63 64.47 136.74 44.73 113.89 46.68 101.62 66.11"/><polygon class="cls-44" points="53.41 107.79 75.87 106.9 88.96 86.17 66.63 87.42 53.41 107.79"/><polygon class="cls-45" points="53.41 107.79 75.87 106.9 88.96 86.17 66.63 87.42 53.41 107.79"/><polygon class="cls-44" points="88.96 86.17 112.12 84.88 124.63 64.47 101.62 66.11 88.96 86.17"/><polygon class="cls-45" points="88.96 86.17 112.12 84.88 124.63 64.47 101.62 66.11 88.96 86.17"/><polygon class="cls-44" points="75.87 106.9 99.18 105.97 112.12 84.88 88.96 86.17 75.87 106.9"/><polygon class="cls-45" points="75.87 106.9 99.18 105.97 112.12 84.88 88.96 86.17 75.87 106.9"/></g></svg>