<svg id="Layer_1" data-name="Layer 1" xmlns="http://www.w3.org/2000/svg" xmlns:xlink="http://www.w3.org/1999/xlink" width="340.02" height="307.62" viewBox="0 0 340.02 307.62"><defs><style>.cls-1,.cls-10,.cls-16,.cls-17,.cls-18,.cls-21,.cls-3,.cls-34,.cls-5,.cls-7,.cls-8{fill:none;}.cls-2{fill:#f2f2f2;}.cls-2,.cls-3,.cls-4,.cls-5,.cls-6,.cls-7{opacity:0.5;}.cls-3{stroke:#f2f2f2;}.cls-3,.cls-5,.cls-7{stroke-miterlimit:10;}.cls-4{fill:#e6e6e6;}.cls-5{stroke:#e6e6e6;}.cls-6{fill:#ececec;}.cls-7{stroke:#ececec;}.cls-16,.cls-8{stroke:#000;}.cls-17,.cls-18,.cls-8{stroke-linecap:square;}.cls-10,.cls-16,.cls-17,.cls-18,.cls-21,.cls-34,.cls-8{stroke-linejoin:round;}.cls-10,.cls-8{stroke-width:0.8px;}.cls-9{font-size:14px;font-family:IBMPlexSans, IBM Plex Sans;}.cls-10{stroke:#b0b0b0;}.cls-11{font-size:10px;font-family:Calibri;}.cls-12{letter-spacing:0em;}.cls-13{letter-spacing:0em;}.cls-14{clip-path:url(#clip-path);}.cls-15{fill:#717171;}.cls-15,.cls-16{opacity:0.3;}.cls-17,.cls-21{stroke:#001282;}.cls-17,.cls-18{stroke-width:1.5px;}.cls-18,.cls-34{stroke:#99004d;}.cls-19{clip-path:url(#clip-path-30);}.cls-20{fill:#001282;}.cls-22{clip-path:url(#clip-path-31);}.cls-23{clip-path:url(#clip-path-32);}.cls-24{clip-path:url(#clip-path-33);}.cls-25{clip-path:url(#clip-path-34);}.cls-26{clip-path:url(#clip-path-35);}.cls-27{clip-path:url(#clip-path-36);}.cls-28{clip-path:url(#clip-path-37);}.cls-29{clip-path:url(#clip-path-38);}.cls-30{clip-path:url(#clip-path-39);}.cls-31{clip-path:url(#clip-path-40);}.cls-32{clip-path:url(#clip-path-42);}.cls-33{fill:#99004d;}.cls-35{clip-path:url(#clip-path-43);}.cls-36{clip-path:url(#clip-path-44);}.cls-37{clip-path:url(#clip-path-45);}.cls-38{clip-path:url(#clip-path-46);}.cls-39{clip-path:url(#clip-path-47);}.cls-40{clip-path:url(#clip-path-48);}.cls-41{clip-path:url(#clip-path-49);}.cls-42{clip-path:url(#clip-path-50);}.cls-43{clip-path:url(#clip-path-51);}.cls-44{clip-path:url(#clip-path-52);}.cls-45{clip-path:url(#clip-path-53);}.cls-46{clip-path:url(#clip-path-54);}.cls-47{clip-path:url(#clip-path-55);}.cls-48{clip-path:url(#clip-path-56);}.cls-49{clip-path:url(#clip-path-57);}</style><clipPath id="clip-path" transform="translate(-24.88 -31.48)"><rect class="cls-1" x="7.2" y="7.2" width="326.16" height="326.16"/></clipPath><clipPath id="clip-path-30" transform="translate(-24.88 -31.48)"><rect class="cls-1" x="149.1" y="135.41" width="13" height="13"/></clipPath><clipPath id="clip-path-31" transform="translate(-24.88 -31.48)"><rect class="cls-1" x="164.93" y="97.47" width="13" height="13"/></clipPath><clipPath id="clip-path-32" transform="translate(-24.88 -31.48)"><rect class="cls-1" x="129.04" y="175.68" width="13" height="13"/></clipPath><clipPath id="clip-path-33" transform="translate(-24.88 -31.48)"><rect class="cls-1" x="129.07" y="177.88" width="13" height="13"/></clipPath><clipPath id="clip-path-34" transform="translate(-24.88 -31.48)"><rect class="cls-1" x="129.11" y="181.65" width="13" height="13"/></clipPath><clipPath id="clip-path-35" transform="translate(-24.88 -31.48)"><rect class="cls-1" x="195.79" y="193.3" width="13" height="13"/></clipPath><clipPath id="clip-path-36" transform="translate(-24.88 -31.48)"><rect class="cls-1" x="195.78" y="194.31" width="13" height="13"/></clipPath><clipPath id="clip-path-37" transform="translate(-24.88 -31.48)"><rect class="cls-1" x="195.81" y="191.24" width="13" height="13"/></clipPath><clipPath id="clip-path-38" transform="translate(-24.88 -31.48)"><rect class="cls-1" x="105.38" y="203" width="13" height="13"/></clipPath><clipPath id="clip-path-39" transform="translate(-24.88 -31.48)"><rect class="cls-1" x="84.63" y="210.3" width="13" height="13"/></clipPath><clipPath id="clip-path-40" transform="translate(-24.88 -31.48)"><rect class="cls-1" x="84.82" y="216.93" width="13" height="13"/></clipPath><clipPath id="clip-path-42" transform="translate(-24.88 -31.48)"><rect class="cls-1" x="149" y="119.67" width="13" height="13"/></clipPath><clipPath id="clip-path-43" transform="translate(-24.88 -31.48)"><rect class="cls-1" x="149.03" y="123.98" width="13" height="13"/></clipPath><clipPath id="clip-path-44" transform="translate(-24.88 -31.48)"><rect class="cls-1" x="164.91" y="81.9" width="13" height="13"/></clipPath><clipPath id="clip-path-45" transform="translate(-24.88 -31.48)"><rect class="cls-1" x="129.01" y="173.28" width="13" height="13"/></clipPath><clipPath id="clip-path-46" transform="translate(-24.88 -31.48)"><rect class="cls-1" x="128.99" y="172.26" width="13" height="13"/></clipPath><clipPath id="clip-path-47" transform="translate(-24.88 -31.48)"><rect class="cls-1" x="128.97" y="170.18" width="13" height="13"/></clipPath><clipPath id="clip-path-48" transform="translate(-24.88 -31.48)"><rect class="cls-1" x="160.97" y="177.18" width="13" height="13"/></clipPath><clipPath id="clip-path-49" transform="translate(-24.88 -31.48)"><rect class="cls-1" x="160.98" y="179.47" width="13" height="13"/></clipPath><clipPath id="clip-path-50" transform="translate(-24.88 -31.48)"><rect class="cls-1" x="160.98" y="180.61" width="13" height="13"/></clipPath><clipPath id="clip-path-51" transform="translate(-24.88 -31.48)"><rect class="cls-1" x="104.87" y="178.52" width="13" height="13"/></clipPath><clipPath id="clip-path-52" transform="translate(-24.88 -31.48)"><rect class="cls-1" x="84.51" y="205.75" width="13" height="13"/></clipPath><clipPath id="clip-path-53" transform="translate(-24.88 -31.48)"><rect class="cls-1" x="110.54" y="185.1" width="13" height="13"/></clipPath><clipPath id="clip-path-54" transform="translate(-24.88 -31.48)"><rect class="cls-1" x="110.52" y="183.94" width="13" height="13"/></clipPath><clipPath id="clip-path-55" transform="translate(-24.88 -31.48)"><rect class="cls-1" x="89.89" y="199.23" width="13" height="13"/></clipPath><clipPath id="clip-path-56" transform="translate(-24.88 -31.48)"><rect class="cls-1" x="89.68" y="190.86" width="13" height="13"/></clipPath><clipPath id="clip-path-57" transform="translate(-24.88 -31.48)"><rect class="cls-1" x="89.91" y="199.92" width="13" height="13"/></clipPath></defs><polyline class="cls-2" points="6.95 221.46 114.66 131.18 113.16 0.98 0.29 83.34"/><polyline class="cls-3" points="6.95 221.46 114.66 131.18 113.16 0.98 0.29 83.34"/><polyline class="cls-4" points="114.66 131.18 287.49 181.42 293.66 46.73 113.16 0.98"/><polyline class="cls-5" points="114.66 131.18 287.49 181.42 293.66 46.73 113.16 0.98"/><polyline class="cls-6" points="6.95 221.46 190.16 281.3 287.49 181.42 114.66 131.18"/><polyline class="cls-7" points="6.95 221.46 190.16 281.3 287.49 181.42 114.66 131.18"/><line class="cls-8" x1="6.95" y1="221.46" x2="190.16" y2="281.3"/><text class="cls-9" transform="matrix(0.95, 0.31, -0.31, 0.95, 55.04, 280.41)">MgO (wt. %)</text><polyline class="cls-10" points="10.43 222.6 117.95 132.14 116.59 1.85"/><polyline class="cls-10" points="44.2 233.63 149.92 141.43 149.93 10.29"/><polyline class="cls-10" points="78.65 244.88 182.48 150.89 183.9 18.91"/><polyline class="cls-10" points="113.8 256.36 215.64 160.53 218.53 27.68"/><polyline class="cls-10" points="149.68 268.08 249.43 170.36 253.85 36.64"/><polyline class="cls-10" points="186.3 280.04 283.87 180.36 289.86 45.77"/><line class="cls-8" x1="11.36" y1="221.81" x2="8.55" y2="224.18"/><text class="cls-11" transform="translate(0.36 245.05)">0</text><line class="cls-8" x1="45.12" y1="232.83" x2="42.35" y2="235.24"/><text class="cls-11" transform="translate(31.63 256.27)">10</text><line class="cls-8" x1="79.56" y1="244.06" x2="76.84" y2="246.53"/><text class="cls-11" transform="translate(66.12 267.72)">20</text><line class="cls-8" x1="114.69" y1="255.53" x2="112.02" y2="258.04"/><text class="cls-11" transform="translate(101.3 279.4)">30</text><line class="cls-8" x1="150.55" y1="267.23" x2="147.93" y2="269.79"/><text class="cls-11" transform="translate(137.21 291.32)">40</text><line class="cls-8" x1="187.15" y1="279.17" x2="184.59" y2="281.79"/><text class="cls-11" transform="translate(173.88 303.49)">50</text><line class="cls-8" x1="287.49" y1="181.42" x2="190.16" y2="281.3"/><text class="cls-9" transform="matrix(0.7, -0.72, 0.72, 0.7, 250.41, 278.78)">Al<tspan x="12.78" y="2.8">2</tspan><tspan class="cls-12" x="21.18" y="0">O</tspan><tspan x="31.09" y="2.8">3</tspan><tspan class="cls-13" x="39.49" y="0" xml:space="preserve"> (wt. %)</tspan></text><polyline class="cls-10" points="2.76 81.54 9.29 219.5 192.28 279.12"/><polyline class="cls-10" points="25.94 64.62 31.35 201.01 212.29 258.59"/><polyline class="cls-10" points="48.33 48.28 52.69 183.12 231.6 238.78"/><polyline class="cls-10" points="69.96 32.5 73.33 165.82 250.25 219.63"/><polyline class="cls-10" points="90.87 17.24 93.32 149.07 268.27 201.13"/><polyline class="cls-10" points="111.09 2.48 112.67 132.84 285.71 183.25"/><line class="cls-8" x1="190.74" y1="278.62" x2="195.37" y2="280.13"/><text class="cls-11" transform="translate(202.68 299.4)">0</text><line class="cls-8" x1="210.76" y1="258.11" x2="215.34" y2="259.56"/><text class="cls-11" transform="translate(219.94 278.62)">10</text><line class="cls-8" x1="230.09" y1="238.31" x2="234.61" y2="239.71"/><text class="cls-11" transform="translate(239.04 258.56)">20</text><line class="cls-8" x1="248.76" y1="219.18" x2="253.23" y2="220.54"/><text class="cls-11" transform="translate(257.48 239.19)">30</text><line class="cls-8" x1="266.81" y1="200.7" x2="271.22" y2="202.01"/><text class="cls-11" transform="translate(275.31 220.47)">40</text><line class="cls-8" x1="284.25" y1="182.82" x2="288.61" y2="184.09"/><text class="cls-11" transform="translate(292.55 202.37)">50</text><line class="cls-8" x1="287.49" y1="181.42" x2="293.66" y2="46.73"/><text class="cls-9" transform="matrix(0.05, -1, 1, 0.05, 331.96, 169.46)">Weight Loss (%)</text><polyline class="cls-10" points="287.61 178.84 114.63 128.68 6.82 218.82"/><polyline class="cls-10" points="288.63 156.52 114.38 107.07 5.72 195.97"/><polyline class="cls-10" points="289.67 133.88 114.13 85.16 4.6 172.76"/><polyline class="cls-10" points="290.72 110.89 113.87 62.93 3.47 149.19"/><polyline class="cls-10" points="291.79 87.55 113.61 40.38 2.31 125.25"/><polyline class="cls-10" points="292.87 63.86 113.35 17.5 1.14 100.93"/><line class="cls-8" x1="286.16" y1="178.42" x2="290.51" y2="179.68"/><text class="cls-11" transform="translate(303.35 183.03)">0</text><line class="cls-8" x1="287.17" y1="156.11" x2="291.56" y2="157.35"/><text class="cls-11" transform="translate(304.5 160.75)">5</text><line class="cls-8" x1="288.19" y1="133.47" x2="292.62" y2="134.69"/><text class="cls-11" transform="translate(303.14 138.14)">10</text><line class="cls-8" x1="289.23" y1="110.48" x2="293.69" y2="111.69"/><text class="cls-11" transform="translate(304.33 115.19)">15</text><line class="cls-8" x1="290.29" y1="87.15" x2="294.79" y2="88.34"/><text class="cls-11" transform="translate(305.54 91.9)">20</text><line class="cls-8" x1="291.36" y1="63.47" x2="295.9" y2="64.64"/><text class="cls-11" transform="translate(306.77 68.25)">25</text><g class="cls-14"><polygon class="cls-15" points="90.75 103.35 131.96 99.82 156.24 63.33 115.24 67.4 90.75 103.35"/><polygon class="cls-16" points="90.75 103.35 131.96 99.82 156.24 63.33 115.24 67.4 90.75 103.35"/><polygon class="cls-15" points="65.51 140.39 106.93 137.45 131.96 99.82 90.75 103.35 65.51 140.39"/><polygon class="cls-16" points="65.51 140.39 106.93 137.45 131.96 99.82 90.75 103.35 65.51 140.39"/><polygon class="cls-15" points="131.96 99.82 174.6 96.17 198.63 59.12 156.24 63.33 131.96 99.82"/><polygon class="cls-16" points="131.96 99.82 174.6 96.17 198.63 59.12 156.24 63.33 131.96 99.82"/><polygon class="cls-15" points="39.49 178.59 81.11 176.26 106.93 137.45 65.51 140.39 39.49 178.59"/><polygon class="cls-16" points="39.49 178.59 81.11 176.26 106.93 137.45 65.51 140.39 39.49 178.59"/><polygon class="cls-15" points="106.93 137.45 149.81 134.4 174.6 96.17 131.96 99.82 106.93 137.45"/><polygon class="cls-16" points="106.93 137.45 149.81 134.4 174.6 96.17 131.96 99.82 106.93 137.45"/><polygon class="cls-15" points="174.6 96.17 218.73 92.39 242.49 54.76 198.63 59.12 174.6 96.17"/><polygon class="cls-16" points="174.6 96.17 218.73 92.39 242.49 54.76 198.63 59.12 174.6 96.17"/><polygon class="cls-15" points="12.64 217.99 54.46 216.33 81.11 176.26 39.49 178.59 12.64 217.99"/><polygon class="cls-16" points="12.64 217.99 54.46 216.33 81.11 176.26 39.49 178.59 12.64 217.99"/><polygon class="cls-15" points="81.11 176.26 124.22 173.86 149.81 134.4 106.93 137.45 81.11 176.26"/><polygon class="cls-16" points="81.11 176.26 124.22 173.86 149.81 134.4 106.93 137.45 81.11 176.26"/><polygon class="cls-15" points="149.81 134.4 194.21 131.24 218.73 92.39 174.6 96.17 149.81 134.4"/><polygon class="cls-16" points="149.81 134.4 194.21 131.24 218.73 92.39 174.6 96.17 149.81 134.4"/><polygon class="cls-15" points="218.73 92.39 264.44 88.48 287.88 50.24 242.49 54.76 218.73 92.39"/><polygon class="cls-16" points="218.73 92.39 264.44 88.48 287.88 50.24 242.49 54.76 218.73 92.39"/><polygon class="cls-15" points="54.46 216.33 97.78 214.61 124.22 173.86 81.11 176.26 54.46 216.33"/><polygon class="cls-16" points="54.46 216.33 97.78 214.61 124.22 173.86 81.11 176.26 54.46 216.33"/><polygon class="cls-15" points="124.22 173.86 168.88 171.36 194.21 131.24 149.81 134.4 124.22 173.86"/><polygon class="cls-16" points="124.22 173.86 168.88 171.36 194.21 131.24 149.81 134.4 124.22 173.86"/><polygon class="cls-15" points="194.21 131.24 240.22 127.97 264.44 88.48 218.73 92.39 194.21 131.24"/><polygon class="cls-16" points="194.21 131.24 240.22 127.97 264.44 88.48 218.73 92.39 194.21 131.24"/><polygon class="cls-15" points="97.78 214.61 142.71 212.82 168.88 171.36 124.22 173.86 97.78 214.61"/><polygon class="cls-16" points="97.78 214.61 142.71 212.82 168.88 171.36 124.22 173.86 97.78 214.61"/><polygon class="cls-15" points="168.88 171.36 215.19 168.78 240.22 127.97 194.21 131.24 168.88 171.36"/><polygon class="cls-16" points="168.88 171.36 215.19 168.78 240.22 127.97 194.21 131.24 168.88 171.36"/><polygon class="cls-15" points="142.71 212.82 189.32 210.97 215.19 168.78 168.88 171.36 142.71 212.82"/><polygon class="cls-16" points="142.71 212.82 189.32 210.97 215.19 168.78 168.88 171.36 142.71 212.82"/></g><g class="cls-14"><line class="cls-17" x1="130.72" y1="110.44" x2="130.68" y2="104.13"/></g><g class="cls-14"><line class="cls-17" x1="146.55" y1="72.5" x2="146.54" y2="61.62"/></g><g class="cls-14"><line class="cls-17" x1="110.66" y1="150.7" x2="110.63" y2="148.95"/></g><g class="cls-14"><line class="cls-17" x1="110.68" y1="152.91" x2="110.63" y2="148.95"/></g><g class="cls-14"><line class="cls-17" x1="110.73" y1="156.67" x2="110.63" y2="148.95"/></g><g class="cls-14"><line class="cls-17" x1="177.41" y1="168.33" x2="177.43" y2="166.16"/></g><g class="cls-14"><line class="cls-17" x1="177.4" y1="169.33" x2="177.43" y2="166.16"/></g><g class="cls-14"><line class="cls-17" x1="177.43" y1="166.27" x2="177.43" y2="166.16"/></g><g class="cls-14"><line class="cls-17" x1="87" y1="178.02" x2="86.73" y2="165.37"/></g><g class="cls-14"><line class="cls-17" x1="66.25" y1="185.33" x2="66.15" y2="181.64"/></g><g class="cls-14"><line class="cls-17" x1="66.44" y1="191.95" x2="66.15" y2="181.64"/></g><g class="cls-14"><line class="cls-18" x1="130.68" y1="104.13" x2="130.62" y2="94.7"/></g><g class="cls-14"><line class="cls-18" x1="130.68" y1="104.13" x2="130.65" y2="99"/></g><g class="cls-14"><line class="cls-18" x1="146.54" y1="61.62" x2="146.53" y2="56.93"/></g><g class="cls-14"><line class="cls-18" x1="110.63" y1="148.95" x2="110.62" y2="148.3"/></g><g class="cls-14"><line class="cls-18" x1="110.63" y1="148.95" x2="110.61" y2="147.29"/></g><g class="cls-14"><line class="cls-18" x1="110.63" y1="148.95" x2="110.59" y2="145.2"/></g><g class="cls-14"><line class="cls-18" x1="142.6" y1="155.9" x2="142.59" y2="152.21"/></g><g class="cls-14"><line class="cls-18" x1="142.6" y1="155.9" x2="142.59" y2="154.49"/></g><g class="cls-14"><line class="cls-18" x1="142.6" y1="155.9" x2="142.6" y2="155.64"/></g><g class="cls-14"><line class="cls-18" x1="86.73" y1="165.37" x2="86.49" y2="153.54"/></g><g class="cls-14"><line class="cls-18" x1="66.15" y1="181.64" x2="66.13" y2="180.77"/></g><g class="cls-14"><line class="cls-18" x1="92.19" y1="162.05" x2="92.16" y2="160.13"/></g><g class="cls-14"><line class="cls-18" x1="92.19" y1="162.05" x2="92.13" y2="158.97"/></g><g class="cls-14"><line class="cls-18" x1="71.62" y1="178.31" x2="71.51" y2="174.25"/></g><g class="cls-14"><line class="cls-18" x1="71.62" y1="178.31" x2="71.3" y2="165.88"/></g><g class="cls-14"><line class="cls-18" x1="71.62" y1="178.31" x2="71.53" y2="174.95"/></g><g class="cls-14"><g class="cls-19"><path class="cls-20" d="M155.6,143.41a1.5,1.5,0,1,0-1.06-.44A1.5,1.5,0,0,0,155.6,143.41Z" transform="translate(-24.88 -31.48)"/><path class="cls-21" d="M155.6,143.41a1.5,1.5,0,1,0-1.06-.44A1.5,1.5,0,0,0,155.6,143.41Z" transform="translate(-24.88 -31.48)"/></g><g class="cls-22"><path class="cls-20" d="M171.43,105.47a1.46,1.46,0,0,0,1.06-.44,1.5,1.5,0,0,0,.44-1.06,1.52,1.52,0,0,0-.44-1.06,1.5,1.5,0,0,0-2.12,0,1.52,1.52,0,0,0-.44,1.06,1.5,1.5,0,0,0,.44,1.06A1.46,1.46,0,0,0,171.43,105.47Z" transform="translate(-24.88 -31.48)"/><path class="cls-21" d="M171.43,105.47a1.46,1.46,0,0,0,1.06-.44,1.5,1.5,0,0,0,.44-1.06,1.52,1.52,0,0,0-.44-1.06,1.5,1.5,0,0,0-2.12,0,1.52,1.52,0,0,0-.44,1.06,1.5,1.5,0,0,0,.44,1.06A1.46,1.46,0,0,0,171.43,105.47Z" transform="translate(-24.88 -31.48)"/></g><g class="cls-23"><path class="cls-20" d="M135.54,183.68a1.52,1.52,0,0,0,1.06-.44,1.5,1.5,0,0,0,0-2.12,1.52,1.52,0,0,0-1.06-.44,1.5,1.5,0,0,0-1.06.44,1.5,1.5,0,0,0,0,2.12A1.5,1.5,0,0,0,135.54,183.68Z" transform="translate(-24.88 -31.48)"/><path class="cls-21" d="M135.54,183.68a1.52,1.52,0,0,0,1.06-.44,1.5,1.5,0,0,0,0-2.12,1.52,1.52,0,0,0-1.06-.44,1.5,1.5,0,0,0-1.06.44,1.5,1.5,0,0,0,0,2.12A1.5,1.5,0,0,0,135.54,183.68Z" transform="translate(-24.88 -31.48)"/></g><g class="cls-24"><path class="cls-20" d="M135.57,185.88a1.53,1.53,0,0,0,1.06-.44,1.5,1.5,0,0,0,.44-1.06,1.52,1.52,0,0,0-.44-1.06,1.51,1.51,0,0,0-2.13,0,1.51,1.51,0,0,0-.43,1.06,1.49,1.49,0,0,0,.43,1.06A1.54,1.54,0,0,0,135.57,185.88Z" transform="translate(-24.88 -31.48)"/><path class="cls-21" d="M135.57,185.88a1.53,1.53,0,0,0,1.06-.44,1.5,1.5,0,0,0,.44-1.06,1.52,1.52,0,0,0-.44-1.06,1.51,1.51,0,0,0-2.13,0,1.51,1.51,0,0,0-.43,1.06,1.49,1.49,0,0,0,.43,1.06A1.54,1.54,0,0,0,135.57,185.88Z" transform="translate(-24.88 -31.48)"/></g><g class="cls-25"><path class="cls-20" d="M135.61,189.65a1.5,1.5,0,0,0,1.06-.44,1.5,1.5,0,0,0,0-2.12,1.5,1.5,0,0,0-1.06-.44,1.52,1.52,0,0,0-1.06.44,1.5,1.5,0,0,0,0,2.12A1.52,1.52,0,0,0,135.61,189.65Z" transform="translate(-24.88 -31.48)"/><path class="cls-21" d="M135.61,189.65a1.5,1.5,0,0,0,1.06-.44,1.5,1.5,0,0,0,0-2.12,1.5,1.5,0,0,0-1.06-.44,1.52,1.52,0,0,0-1.06.44,1.5,1.5,0,0,0,0,2.12A1.52,1.52,0,0,0,135.61,189.65Z" transform="translate(-24.88 -31.48)"/></g><g class="cls-26"><path class="cls-20" d="M202.29,201.3a1.5,1.5,0,1,0-1.06-.44A1.5,1.5,0,0,0,202.29,201.3Z" transform="translate(-24.88 -31.48)"/><path class="cls-21" d="M202.29,201.3a1.5,1.5,0,1,0-1.06-.44A1.5,1.5,0,0,0,202.29,201.3Z" transform="translate(-24.88 -31.48)"/></g><g class="cls-27"><path class="cls-20" d="M202.28,202.31a1.5,1.5,0,0,0,1.06-.44,1.52,1.52,0,0,0,.44-1.06,1.5,1.5,0,0,0-.44-1.06,1.5,1.5,0,0,0-2.12,0,1.5,1.5,0,0,0-.44,1.06,1.52,1.52,0,0,0,.44,1.06A1.5,1.5,0,0,0,202.28,202.31Z" transform="translate(-24.88 -31.48)"/><path class="cls-21" d="M202.28,202.31a1.5,1.5,0,0,0,1.06-.44,1.52,1.52,0,0,0,.44-1.06,1.5,1.5,0,0,0-.44-1.06,1.5,1.5,0,0,0-2.12,0,1.5,1.5,0,0,0-.44,1.06,1.52,1.52,0,0,0,.44,1.06A1.5,1.5,0,0,0,202.28,202.31Z" transform="translate(-24.88 -31.48)"/></g><g class="cls-28"><path class="cls-20" d="M202.31,199.24a1.5,1.5,0,1,0-1.06-.44A1.5,1.5,0,0,0,202.31,199.24Z" transform="translate(-24.88 -31.48)"/><path class="cls-21" d="M202.31,199.24a1.5,1.5,0,1,0-1.06-.44A1.5,1.5,0,0,0,202.31,199.24Z" transform="translate(-24.88 -31.48)"/></g><g class="cls-29"><path class="cls-20" d="M111.88,211a1.5,1.5,0,1,0-1.06-.44A1.5,1.5,0,0,0,111.88,211Z" transform="translate(-24.88 -31.48)"/><path class="cls-21" d="M111.88,211a1.5,1.5,0,1,0-1.06-.44A1.5,1.5,0,0,0,111.88,211Z" transform="translate(-24.88 -31.48)"/></g><g class="cls-30"><path class="cls-20" d="M91.13,218.3a1.5,1.5,0,0,0,0-3,1.52,1.52,0,0,0-1.06.44,1.51,1.51,0,0,0,0,2.13A1.51,1.51,0,0,0,91.13,218.3Z" transform="translate(-24.88 -31.48)"/><path class="cls-21" d="M91.13,218.3a1.5,1.5,0,0,0,0-3,1.52,1.52,0,0,0-1.06.44,1.51,1.51,0,0,0,0,2.13A1.51,1.51,0,0,0,91.13,218.3Z" transform="translate(-24.88 -31.48)"/></g><g class="cls-31"><path class="cls-20" d="M91.32,224.93a1.5,1.5,0,0,0,1.06-.44,1.51,1.51,0,0,0,0-2.13,1.52,1.52,0,0,0-2.12,0,1.51,1.51,0,0,0,0,2.13A1.5,1.5,0,0,0,91.32,224.93Z" transform="translate(-24.88 -31.48)"/><path class="cls-21" d="M91.32,224.93a1.5,1.5,0,0,0,1.06-.44,1.51,1.51,0,0,0,0-2.13,1.52,1.52,0,0,0-2.12,0,1.51,1.51,0,0,0,0,2.13A1.5,1.5,0,0,0,91.32,224.93Z" transform="translate(-24.88 -31.48)"/></g></g><g class="cls-14"><g class="cls-32"><path class="cls-33" d="M155.5,127.67a1.5,1.5,0,1,0-1.06-.44A1.5,1.5,0,0,0,155.5,127.67Z" transform="translate(-24.88 -31.48)"/><path class="cls-34" d="M155.5,127.67a1.5,1.5,0,1,0-1.06-.44A1.5,1.5,0,0,0,155.5,127.67Z" transform="translate(-24.88 -31.48)"/></g><g class="cls-35"><path class="cls-33" d="M155.53,132a1.5,1.5,0,0,0,1.06-.44,1.52,1.52,0,0,0,.44-1.06,1.5,1.5,0,0,0-3,0,1.52,1.52,0,0,0,.44,1.06A1.5,1.5,0,0,0,155.53,132Z" transform="translate(-24.88 -31.48)"/><path class="cls-34" d="M155.53,132a1.5,1.5,0,0,0,1.06-.44,1.52,1.52,0,0,0,.44-1.06,1.5,1.5,0,0,0-3,0,1.52,1.52,0,0,0,.44,1.06A1.5,1.5,0,0,0,155.53,132Z" transform="translate(-24.88 -31.48)"/></g><g class="cls-36"><path class="cls-33" d="M171.41,89.9a1.5,1.5,0,1,0-1.06-.44A1.5,1.5,0,0,0,171.41,89.9Z" transform="translate(-24.88 -31.48)"/><path class="cls-34" d="M171.41,89.9a1.5,1.5,0,1,0-1.06-.44A1.5,1.5,0,0,0,171.41,89.9Z" transform="translate(-24.88 -31.48)"/></g><g class="cls-37"><path class="cls-33" d="M135.51,181.28a1.5,1.5,0,0,0,1.5-1.5,1.5,1.5,0,0,0-.44-1.06,1.47,1.47,0,0,0-1.06-.44,1.5,1.5,0,0,0-1.5,1.5,1.47,1.47,0,0,0,.44,1.06A1.5,1.5,0,0,0,135.51,181.28Z" transform="translate(-24.88 -31.48)"/><path class="cls-34" d="M135.51,181.28a1.5,1.5,0,0,0,1.5-1.5,1.5,1.5,0,0,0-.44-1.06,1.47,1.47,0,0,0-1.06-.44,1.5,1.5,0,0,0-1.5,1.5,1.47,1.47,0,0,0,.44,1.06A1.5,1.5,0,0,0,135.51,181.28Z" transform="translate(-24.88 -31.48)"/></g><g class="cls-38"><path class="cls-33" d="M135.49,180.26a1.5,1.5,0,1,0-1.06-.44A1.5,1.5,0,0,0,135.49,180.26Z" transform="translate(-24.88 -31.48)"/><path class="cls-34" d="M135.49,180.26a1.5,1.5,0,1,0-1.06-.44A1.5,1.5,0,0,0,135.49,180.26Z" transform="translate(-24.88 -31.48)"/></g><g class="cls-39"><path class="cls-33" d="M135.47,178.18a1.52,1.52,0,0,0,1.06-.44,1.5,1.5,0,0,0,0-2.12,1.52,1.52,0,0,0-1.06-.44,1.5,1.5,0,0,0-1.06.44,1.5,1.5,0,0,0,0,2.12A1.5,1.5,0,0,0,135.47,178.18Z" transform="translate(-24.88 -31.48)"/><path class="cls-34" d="M135.47,178.18a1.52,1.52,0,0,0,1.06-.44,1.5,1.5,0,0,0,0-2.12,1.52,1.52,0,0,0-1.06-.44,1.5,1.5,0,0,0-1.06.44,1.5,1.5,0,0,0,0,2.12A1.5,1.5,0,0,0,135.47,178.18Z" transform="translate(-24.88 -31.48)"/></g><g class="cls-40"><path class="cls-33" d="M167.47,185.18a1.46,1.46,0,0,0,1.06-.44,1.5,1.5,0,0,0,.44-1.06,1.52,1.52,0,0,0-.44-1.06,1.5,1.5,0,0,0-2.12,0,1.52,1.52,0,0,0-.44,1.06,1.5,1.5,0,0,0,.44,1.06A1.46,1.46,0,0,0,167.47,185.18Z" transform="translate(-24.88 -31.48)"/><path class="cls-34" d="M167.47,185.18a1.46,1.46,0,0,0,1.06-.44,1.5,1.5,0,0,0,.44-1.06,1.52,1.52,0,0,0-.44-1.06,1.5,1.5,0,0,0-2.12,0,1.52,1.52,0,0,0-.44,1.06,1.5,1.5,0,0,0,.44,1.06A1.46,1.46,0,0,0,167.47,185.18Z" transform="translate(-24.88 -31.48)"/></g><g class="cls-41"><path class="cls-33" d="M167.48,187.47a1.53,1.53,0,0,0,1.06-.44A1.52,1.52,0,0,0,169,186a1.5,1.5,0,1,0-2.57,1.06A1.54,1.54,0,0,0,167.48,187.47Z" transform="translate(-24.88 -31.48)"/><path class="cls-34" d="M167.48,187.47a1.53,1.53,0,0,0,1.06-.44A1.52,1.52,0,0,0,169,186a1.5,1.5,0,1,0-2.57,1.06A1.54,1.54,0,0,0,167.48,187.47Z" transform="translate(-24.88 -31.48)"/></g><g class="cls-42"><path class="cls-33" d="M167.48,188.61a1.5,1.5,0,1,0-1.06-.44A1.5,1.5,0,0,0,167.48,188.61Z" transform="translate(-24.88 -31.48)"/><path class="cls-34" d="M167.48,188.61a1.5,1.5,0,1,0-1.06-.44A1.5,1.5,0,0,0,167.48,188.61Z" transform="translate(-24.88 -31.48)"/></g><g class="cls-43"><path class="cls-33" d="M111.37,186.52a1.5,1.5,0,0,0,1.5-1.5,1.5,1.5,0,0,0-.44-1.06,1.47,1.47,0,0,0-1.06-.44,1.5,1.5,0,0,0-1.5,1.5,1.47,1.47,0,0,0,.44,1.06A1.5,1.5,0,0,0,111.37,186.52Z" transform="translate(-24.88 -31.48)"/><path class="cls-34" d="M111.37,186.52a1.5,1.5,0,0,0,1.5-1.5,1.5,1.5,0,0,0-.44-1.06,1.47,1.47,0,0,0-1.06-.44,1.5,1.5,0,0,0-1.5,1.5,1.47,1.47,0,0,0,.44,1.06A1.5,1.5,0,0,0,111.37,186.52Z" transform="translate(-24.88 -31.48)"/></g><g class="cls-44"><path class="cls-33" d="M91,213.75a1.5,1.5,0,0,0,1.5-1.5,1.5,1.5,0,0,0-.44-1.06,1.47,1.47,0,0,0-1.06-.44,1.5,1.5,0,0,0-1.5,1.5,1.47,1.47,0,0,0,.44,1.06A1.5,1.5,0,0,0,91,213.75Z" transform="translate(-24.88 -31.48)"/><path class="cls-34" d="M91,213.75a1.5,1.5,0,0,0,1.5-1.5,1.5,1.5,0,0,0-.44-1.06,1.47,1.47,0,0,0-1.06-.44,1.5,1.5,0,0,0-1.5,1.5,1.47,1.47,0,0,0,.44,1.06A1.5,1.5,0,0,0,91,213.75Z" transform="translate(-24.88 -31.48)"/></g><g class="cls-45"><path class="cls-33" d="M117,193.1a1.46,1.46,0,0,0,1.06-.44,1.5,1.5,0,0,0,.44-1.06,1.52,1.52,0,0,0-.44-1.06,1.5,1.5,0,0,0-2.12,0,1.52,1.52,0,0,0-.44,1.06,1.5,1.5,0,0,0,.44,1.06A1.46,1.46,0,0,0,117,193.1Z" transform="translate(-24.88 -31.48)"/><path class="cls-34" d="M117,193.1a1.46,1.46,0,0,0,1.06-.44,1.5,1.5,0,0,0,.44-1.06,1.52,1.52,0,0,0-.44-1.06,1.5,1.5,0,0,0-2.12,0,1.52,1.52,0,0,0-.44,1.06,1.5,1.5,0,0,0,.44,1.06A1.46,1.46,0,0,0,117,193.1Z" transform="translate(-24.88 -31.48)"/></g><g class="cls-46"><path class="cls-33" d="M117,191.94a1.52,1.52,0,0,0,1.06-.43,1.51,1.51,0,0,0-2.13-2.13,1.5,1.5,0,0,0,1.07,2.56Z" transform="translate(-24.88 -31.48)"/><path class="cls-34" d="M117,191.94a1.52,1.52,0,0,0,1.06-.43,1.51,1.51,0,0,0-2.13-2.13,1.5,1.5,0,0,0,1.07,2.56Z" transform="translate(-24.88 -31.48)"/></g><g class="cls-47"><path class="cls-33" d="M96.39,207.23a1.5,1.5,0,0,0,1.06-.44,1.5,1.5,0,0,0,0-2.12,1.5,1.5,0,0,0-1.06-.44,1.52,1.52,0,0,0-1.06.44,1.5,1.5,0,0,0,0,2.12A1.52,1.52,0,0,0,96.39,207.23Z" transform="translate(-24.88 -31.48)"/><path class="cls-34" d="M96.39,207.23a1.5,1.5,0,0,0,1.06-.44,1.5,1.5,0,0,0,0-2.12,1.5,1.5,0,0,0-1.06-.44,1.52,1.52,0,0,0-1.06.44,1.5,1.5,0,0,0,0,2.12A1.52,1.52,0,0,0,96.39,207.23Z" transform="translate(-24.88 -31.48)"/></g><g class="cls-48"><path class="cls-33" d="M96.18,198.86a1.52,1.52,0,0,0,1.06-.44,1.51,1.51,0,0,0,0-2.13,1.51,1.51,0,0,0-1.06-.43,1.5,1.5,0,0,0,0,3Z" transform="translate(-24.88 -31.48)"/><path class="cls-34" d="M96.18,198.86a1.52,1.52,0,0,0,1.06-.44,1.51,1.51,0,0,0,0-2.13,1.51,1.51,0,0,0-1.06-.43,1.5,1.5,0,0,0,0,3Z" transform="translate(-24.88 -31.48)"/></g><g class="cls-49"><path class="cls-33" d="M96.41,207.92a1.46,1.46,0,0,0,1.06-.44,1.5,1.5,0,0,0,.44-1.06,1.52,1.52,0,0,0-.44-1.06,1.5,1.5,0,0,0-2.12,0,1.52,1.52,0,0,0-.44,1.06,1.5,1.5,0,0,0,.44,1.06A1.46,1.46,0,0,0,96.41,207.92Z" transform="translate(-24.88 -31.48)"/><path class="cls-34" d="M96.41,207.92a1.46,1.46,0,0,0,1.06-.44,1.5,1.5,0,0,0,.44-1.06,1.52,1.52,0,0,0-.44-1.06,1.5,1.5,0,0,0-2.12,0,1.52,1.52,0,0,0-.44,1.06,1.5,1.5,0,0,0,.44,1.06A1.46,1.46,0,0,0,96.41,207.92Z" transform="translate(-24.88 -31.48)"/></g></g></svg>